<?xml version="1.0" encoding="utf-8"?>
<!-- Generator: Adobe Illustrator 24.3.0, SVG Export Plug-In . SVG Version: 6.00 Build 0)  -->
<svg version="1.1" id="Layer_1" xmlns="http://www.w3.org/2000/svg" xmlns:xlink="http://www.w3.org/1999/xlink" x="0px" y="0px"
	 viewBox="0 0 150 18" style="enable-background:new 0 0 150 18;" xml:space="preserve">
<style type="text/css">
	.st0{fill:#34ACFF;stroke:#0000FF;stroke-width:0.25;stroke-miterlimit:10;}
</style>
<g>
	<path class="st0" d="M5.77,10.62H7c-0.07,1.97-0.42,3.57-1.04,4.79s-1.35,1.84-2.21,1.84c-0.87,0-1.61-0.77-2.22-2.31
		c-0.61-1.54-0.92-3.52-0.92-5.93c0-2.4,0.33-4.39,1-5.98C2.29,1.44,3.09,0.64,4,0.64c0.46,0,0.85,0.16,1.19,0.47S5.8,1.89,6.01,2.5
		l0.71-1.55v5.21C6.36,4.43,5.95,3.15,5.5,2.31C5.05,1.48,4.55,1.06,3.98,1.06c-0.67,0-1.16,0.71-1.47,2.12s-0.46,3.73-0.46,6.93
		c0,2.39,0.14,4.1,0.41,5.13c0.27,1.03,0.72,1.55,1.34,1.55c0.58,0,1.05-0.45,1.42-1.34c0.37-0.89,0.56-2.05,0.56-3.48V10.62z"/>
	<path class="st0" d="M10.84,5.29c0.79,0,1.44,0.56,1.97,1.67c0.53,1.11,0.79,2.54,0.79,4.29c0,1.81-0.26,3.27-0.77,4.38
		c-0.52,1.11-1.18,1.66-1.99,1.66c-0.8,0-1.46-0.56-1.98-1.68c-0.52-1.12-0.78-2.57-0.78-4.37c0-1.74,0.27-3.17,0.8-4.29
		S10.06,5.29,10.84,5.29z M10.82,5.81c-0.52,0-0.92,0.44-1.19,1.31C9.37,8,9.23,9.29,9.23,10.99c0,1.9,0.13,3.33,0.4,4.3
		c0.27,0.97,0.66,1.46,1.19,1.46c0.53,0,0.94-0.49,1.21-1.48c0.28-0.98,0.42-2.41,0.42-4.28c0-1.71-0.14-2.99-0.41-3.87
		C11.76,6.25,11.35,5.81,10.82,5.81z"/>
	<path class="st0" d="M14.26,17.1l1.43-0.86V6.27l-1.43-0.8h2.1l0.09,3.02c0.23-1.02,0.55-1.81,0.95-2.37s0.86-0.83,1.37-0.83
		c0.79,0,1.45,0.51,1.99,1.52s0.81,2.31,0.81,3.89c0,1.11-0.16,2.12-0.47,3.03c-0.31,0.91-0.81,1.75-1.48,2.54l1.93,0.83h-3.12
		c0.67-0.83,1.16-1.76,1.47-2.79c0.31-1.02,0.46-2.29,0.46-3.78c0-1.61-0.14-2.8-0.41-3.57c-0.27-0.78-0.69-1.17-1.25-1.17
		c-0.55,0-1.05,0.57-1.5,1.7c-0.45,1.13-0.68,2.49-0.68,4.07c0,0.89,0.04,1.8,0.12,2.73s0.2,1.87,0.37,2.81H14.26z"/>
	<path class="st0" d="M29.01,12.76v4.13l-0.39-1.48c-0.3,0.66-0.62,1.14-0.95,1.44c-0.33,0.3-0.72,0.44-1.16,0.44
		c-0.77,0-1.35-0.32-1.73-0.95c-0.38-0.63-0.57-1.59-0.57-2.88c0-0.86,0.04-1.75,0.11-2.68c0.07-0.93,0.19-1.88,0.35-2.87h-1.06
		l-0.85,2.01V5.51l0.88,1.97h1.08c0.26-1.38,0.49-2.55,0.69-3.53c0.19-0.97,0.36-1.74,0.48-2.28l-1.49-0.83h3.91l-1.83,0.86
		c-0.22,1.35-0.39,2.5-0.51,3.45s-0.21,1.73-0.25,2.34h1.84l0.9-1.97v4.36l-0.9-1.95h-1.89c-0.07,0.73-0.13,1.51-0.17,2.34
		c-0.04,0.82-0.06,1.7-0.06,2.64c0,1.39,0.1,2.38,0.3,2.98c0.2,0.6,0.53,0.89,0.99,0.89c0.47,0,0.89-0.33,1.27-0.98
		C28.35,15.13,28.69,14.12,29.01,12.76z"/>
	<path class="st0" d="M37.31,17.1h-2.5v-2.01c-0.27,0.73-0.57,1.28-0.92,1.65c-0.34,0.37-0.71,0.56-1.12,0.56
		c-0.88,0-1.58-0.54-2.11-1.61s-0.79-2.52-0.79-4.36c0-1.79,0.28-3.25,0.85-4.37s1.29-1.68,2.17-1.68c0.46,0,0.87,0.25,1.23,0.75
		c0.36,0.5,0.66,1.22,0.88,2.17l0.2-2.74h2.01l-1.43,0.82v9.91L37.31,17.1z M34.96,10.99c0-1.43-0.21-2.65-0.62-3.65
		s-0.89-1.5-1.42-1.5c-0.58,0-1.01,0.46-1.29,1.39c-0.28,0.93-0.42,2.33-0.42,4.21c0,1.96,0.13,3.34,0.38,4.12
		c0.25,0.79,0.67,1.18,1.25,1.18s1.08-0.54,1.5-1.63S34.96,12.65,34.96,10.99z"/>
	<path class="st0" d="M42.36,12.61h1.29c-0.16,1.56-0.46,2.73-0.91,3.51c-0.45,0.78-1.04,1.18-1.76,1.18c-0.9,0-1.62-0.53-2.17-1.58
		s-0.82-2.48-0.82-4.28c0-1.83,0.29-3.31,0.86-4.44c0.58-1.13,1.31-1.7,2.2-1.7c0.36,0,0.69,0.15,1,0.45s0.58,0.74,0.81,1.33
		l0.44-1.93v5.19C43.07,8.89,42.74,7.78,42.34,7c-0.4-0.78-0.86-1.17-1.36-1.17c-0.53,0-0.94,0.5-1.22,1.5s-0.43,2.44-0.43,4.31
		c0,1.76,0.13,3.05,0.4,3.86c0.27,0.81,0.7,1.22,1.28,1.22c0.5,0,0.85-0.25,1.05-0.75c0.2-0.5,0.3-1.49,0.3-2.95V12.61z"/>
	<path class="st0" d="M50.74,12.76v4.13l-0.39-1.48c-0.3,0.66-0.62,1.14-0.95,1.44c-0.33,0.3-0.72,0.44-1.16,0.44
		c-0.77,0-1.35-0.32-1.73-0.95c-0.38-0.63-0.57-1.59-0.57-2.88c0-0.86,0.04-1.75,0.11-2.68c0.07-0.93,0.19-1.88,0.35-2.87h-1.06
		l-0.85,2.01V5.51l0.88,1.97h1.08c0.26-1.38,0.49-2.55,0.69-3.53c0.19-0.97,0.36-1.74,0.48-2.28l-1.49-0.83h3.91l-1.83,0.86
		c-0.22,1.35-0.39,2.5-0.51,3.45s-0.21,1.73-0.25,2.34h1.84l0.9-1.97v4.36l-0.9-1.95h-1.89c-0.07,0.73-0.13,1.51-0.17,2.34
		c-0.04,0.82-0.06,1.7-0.06,2.64c0,1.39,0.1,2.38,0.3,2.98c0.2,0.6,0.53,0.89,0.99,0.89c0.47,0,0.89-0.33,1.27-0.98
		C50.08,15.13,50.43,14.12,50.74,12.76z"/>
	<path class="st0" d="M63.05,17.1h-2.5v-2.01c-0.27,0.73-0.57,1.28-0.92,1.65c-0.34,0.37-0.71,0.56-1.12,0.56
		c-0.88,0-1.58-0.54-2.11-1.61s-0.79-2.52-0.79-4.36c0-1.79,0.28-3.25,0.85-4.37s1.29-1.68,2.17-1.68c0.46,0,0.87,0.25,1.23,0.75
		c0.36,0.5,0.66,1.22,0.88,2.17l0.2-2.74h2.01l-1.43,0.82v9.91L63.05,17.1z M60.7,10.99c0-1.43-0.21-2.65-0.62-3.65
		s-0.89-1.5-1.42-1.5c-0.58,0-1.01,0.46-1.29,1.39c-0.28,0.93-0.42,2.33-0.42,4.21c0,1.96,0.13,3.34,0.38,4.12
		c0.25,0.79,0.67,1.18,1.25,1.18s1.08-0.54,1.5-1.63S60.7,12.65,60.7,10.99z"/>
	<path class="st0" d="M63.21,17.1l1.43-0.86V6.27l-1.43-0.8h2.1l0.09,3.02c0.23-1.02,0.55-1.81,0.95-2.37s0.86-0.83,1.37-0.83
		c0.79,0,1.45,0.51,1.99,1.52s0.81,2.31,0.81,3.89c0,1.11-0.16,2.12-0.47,3.03c-0.31,0.91-0.81,1.75-1.48,2.54l1.93,0.83h-3.12
		c0.67-0.83,1.16-1.76,1.47-2.79c0.31-1.02,0.46-2.29,0.46-3.78c0-1.61-0.14-2.8-0.41-3.57c-0.27-0.78-0.69-1.17-1.25-1.17
		c-0.55,0-1.05,0.57-1.5,1.7c-0.45,1.13-0.68,2.49-0.68,4.07c0,0.89,0.04,1.8,0.12,2.73s0.2,1.87,0.37,2.81H63.21z"/>
	<path class="st0" d="M79.31,17.1h-2.1l-0.11-3.31c-0.25,1.18-0.57,2.05-0.96,2.63c-0.39,0.58-0.84,0.87-1.36,0.87
		c-0.88,0-1.58-0.54-2.11-1.61s-0.79-2.52-0.79-4.36c0-1.77,0.28-3.22,0.85-4.35c0.57-1.13,1.27-1.7,2.09-1.7
		c0.42,0,0.79,0.19,1.11,0.58s0.6,0.97,0.84,1.74l-0.31-6.8h2.85l-1.52,0.83V16.2L79.31,17.1z M76.96,10.99
		c0-1.44-0.21-2.66-0.62-3.66s-0.89-1.5-1.42-1.5c-0.56,0-0.99,0.46-1.29,1.39c-0.3,0.92-0.44,2.25-0.44,3.99
		c0,2.11,0.12,3.56,0.37,4.34c0.25,0.79,0.67,1.18,1.28,1.18c0.6,0,1.1-0.54,1.51-1.61C76.76,14.05,76.96,12.67,76.96,10.99z"/>
	<path class="st0" d="M83.77,17.1l1.52-0.86V1.67l-1.52-0.86h2.88l-0.37,6.67c0.27-0.73,0.57-1.28,0.9-1.65
		c0.33-0.36,0.71-0.55,1.13-0.55c0.88,0,1.58,0.53,2.11,1.6c0.53,1.07,0.79,2.51,0.79,4.34c0,1.77-0.29,3.22-0.88,4.36
		c-0.59,1.14-1.31,1.71-2.16,1.71c-0.46,0-0.88-0.25-1.25-0.75c-0.37-0.5-0.66-1.23-0.89-2.18l-0.16,2.74H83.77z M88.23,5.83
		c-0.56,0-1.05,0.54-1.48,1.61c-0.42,1.07-0.63,2.4-0.63,3.99c0,1.48,0.21,2.73,0.62,3.76s0.87,1.54,1.38,1.54
		c0.6,0,1.04-0.46,1.34-1.38c0.29-0.92,0.44-2.32,0.44-4.21c0-1.95-0.13-3.32-0.38-4.11S88.83,5.83,88.23,5.83z"/>
	<path class="st0" d="M99.85,17.1h-2.5v-2.01c-0.27,0.73-0.57,1.28-0.92,1.65c-0.34,0.37-0.71,0.56-1.12,0.56
		c-0.88,0-1.58-0.54-2.11-1.61s-0.79-2.52-0.79-4.36c0-1.79,0.28-3.25,0.85-4.37s1.29-1.68,2.17-1.68c0.46,0,0.87,0.25,1.23,0.75
		c0.36,0.5,0.66,1.22,0.88,2.17l0.2-2.74h2.01l-1.43,0.82v9.91L99.85,17.1z M97.5,10.99c0-1.43-0.21-2.65-0.62-3.65
		s-0.89-1.5-1.42-1.5c-0.58,0-1.01,0.46-1.29,1.39c-0.28,0.93-0.42,2.33-0.42,4.21c0,1.96,0.13,3.34,0.38,4.12
		c0.25,0.79,0.67,1.18,1.25,1.18s1.08-0.54,1.5-1.63S97.5,12.65,97.5,10.99z"/>
	<path class="st0" d="M105.51,5.35v4.32c-0.24-1.33-0.53-2.32-0.88-2.95c-0.34-0.63-0.76-0.95-1.25-0.95c-0.45,0-0.8,0.15-1.04,0.46
		c-0.24,0.31-0.36,0.75-0.36,1.32c0,1.23,0.83,2.43,2.48,3.61c0.07,0.04,0.12,0.08,0.15,0.1c0.49,0.36,0.86,0.78,1.09,1.27
		s0.35,1.08,0.35,1.76c0,0.92-0.24,1.65-0.72,2.2s-1.12,0.82-1.91,0.82c-0.51,0-0.96-0.18-1.36-0.54c-0.4-0.36-0.77-0.92-1.12-1.69
		l-0.44,2.03v-5.21c0.31,1.56,0.72,2.77,1.21,3.61c0.49,0.85,1.04,1.27,1.64,1.27c0.51,0,0.87-0.19,1.08-0.56s0.32-1,0.32-1.89
		c0-0.88-0.11-1.56-0.33-2.04c-0.22-0.48-0.58-0.9-1.1-1.24c-0.02-0.01-0.04-0.03-0.08-0.05c-1.6-1.08-2.4-2.22-2.4-3.41
		c0-0.66,0.22-1.21,0.66-1.64c0.44-0.43,0.99-0.64,1.67-0.64c0.45,0,0.82,0.11,1.1,0.34s0.56,0.62,0.83,1.19L105.51,5.35z"/>
	<path class="st0" d="M107.14,17.1l1.71-0.86l-0.42-9.93l-1.86-0.85h5l-1.91,0.85l-0.33,9.93l1.63,0.86H107.14z M107.49,3.57
		c0-0.19,0.15-0.34,0.44-0.48c0.3-0.13,0.67-0.2,1.12-0.2s0.82,0.07,1.12,0.2c0.3,0.13,0.45,0.29,0.45,0.48s-0.15,0.34-0.44,0.47
		s-0.67,0.19-1.13,0.19c-0.46,0-0.83-0.06-1.12-0.19C107.63,3.93,107.49,3.77,107.49,3.57z"/>
	<path class="st0" d="M116.6,12.61h1.29c-0.16,1.56-0.46,2.73-0.91,3.51c-0.45,0.78-1.04,1.18-1.76,1.18c-0.9,0-1.62-0.53-2.17-1.58
		s-0.82-2.48-0.82-4.28c0-1.83,0.29-3.31,0.86-4.44c0.58-1.13,1.31-1.7,2.2-1.7c0.36,0,0.69,0.15,1,0.45s0.58,0.74,0.81,1.33
		l0.44-1.93v5.19c-0.24-1.44-0.56-2.55-0.97-3.33c-0.4-0.78-0.86-1.17-1.36-1.17c-0.53,0-0.94,0.5-1.22,1.5s-0.43,2.44-0.43,4.31
		c0,1.76,0.13,3.05,0.4,3.86c0.27,0.81,0.7,1.22,1.28,1.22c0.5,0,0.85-0.25,1.05-0.75c0.2-0.5,0.3-1.49,0.3-2.95V12.61z"/>
	<path class="st0" d="M123.24,17.1l1.71-0.86l-0.42-9.93l-1.86-0.85h5l-1.91,0.85l-0.33,9.93l1.63,0.86H123.24z M123.59,3.57
		c0-0.19,0.15-0.34,0.44-0.48c0.3-0.13,0.67-0.2,1.12-0.2s0.82,0.07,1.12,0.2c0.3,0.13,0.45,0.29,0.45,0.48s-0.15,0.34-0.44,0.47
		s-0.67,0.19-1.13,0.19c-0.46,0-0.83-0.06-1.12-0.19C123.74,3.93,123.59,3.77,123.59,3.57z"/>
	<path class="st0" d="M127.8,17.1l1.43-0.86V6.27l-1.43-0.8h2.1l0.09,3.02c0.23-1.02,0.55-1.81,0.95-2.37s0.86-0.83,1.37-0.83
		c0.79,0,1.45,0.51,1.99,1.52s0.81,2.31,0.81,3.89c0,1.11-0.16,2.12-0.47,3.03c-0.31,0.91-0.81,1.75-1.48,2.54l1.93,0.83h-3.12
		c0.67-0.83,1.16-1.76,1.47-2.79c0.31-1.02,0.46-2.29,0.46-3.78c0-1.61-0.14-2.8-0.41-3.57c-0.27-0.78-0.69-1.17-1.25-1.17
		c-0.55,0-1.05,0.57-1.5,1.7c-0.45,1.13-0.68,2.49-0.68,4.07c0,0.89,0.04,1.8,0.12,2.73s0.2,1.87,0.37,2.81H127.8z"/>
	<path class="st0" d="M143.33,1.06v4.12c-0.26-1.34-0.57-2.34-0.94-2.99c-0.36-0.65-0.79-0.98-1.27-0.98
		c-0.55,0-0.93,0.45-1.16,1.35c-0.23,0.9-0.37,2.89-0.42,5.97h1.28l0.9-1.97v4.36l-0.92-1.97h-1.26v0.77c0,1.16,0.02,2.28,0.07,3.37
		c0.04,1.09,0.11,2.14,0.2,3.16l1.8,0.86h-3.91l1.52-0.83c-0.22-1.37-0.39-2.67-0.52-3.91c-0.13-1.24-0.22-2.37-0.26-3.41h-1.08
		l-0.83,2.04V6.56l0.88,1.97h1.01c-0.01-0.24-0.01-0.47-0.02-0.7c0-0.23-0.01-0.49-0.01-0.79c0-2.44,0.19-4.12,0.58-5.03
		s1.06-1.37,2-1.37c0.43,0,0.81,0.15,1.13,0.45c0.32,0.3,0.61,0.78,0.87,1.43L143.33,1.06z"/>
	<path class="st0" d="M146.01,5.29c0.79,0,1.44,0.56,1.97,1.67c0.53,1.11,0.79,2.54,0.79,4.29c0,1.81-0.26,3.27-0.77,4.38
		c-0.52,1.11-1.18,1.66-1.99,1.66c-0.8,0-1.46-0.56-1.98-1.68c-0.52-1.12-0.78-2.57-0.78-4.37c0-1.74,0.27-3.17,0.8-4.29
		S145.23,5.29,146.01,5.29z M145.99,5.81c-0.52,0-0.92,0.44-1.19,1.31c-0.27,0.87-0.4,2.16-0.4,3.87c0,1.9,0.13,3.33,0.4,4.3
		c0.27,0.97,0.66,1.46,1.19,1.46c0.53,0,0.94-0.49,1.21-1.48c0.28-0.98,0.42-2.41,0.42-4.28c0-1.71-0.14-2.99-0.41-3.87
		C146.93,6.25,146.52,5.81,145.99,5.81z"/>
</g>
<g>
</g>
<g>
</g>
<g>
</g>
<g>
</g>
<g>
</g>
<g>
</g>
<g>
</g>
<g>
</g>
<g>
</g>
<g>
</g>
<g>
</g>
<g>
</g>
<g>
</g>
<g>
</g>
<g>
</g>
</svg>
