<?xml version="1.0" encoding="utf-8"?>
<!-- Generator: Adobe Illustrator 24.3.0, SVG Export Plug-In . SVG Version: 6.00 Build 0)  -->
<svg version="1.1" id="Layer_1" xmlns="http://www.w3.org/2000/svg" xmlns:xlink="http://www.w3.org/1999/xlink" x="0px" y="0px"
	 viewBox="0 0 143.62 18.04" style="enable-background:new 0 0 143.62 18.04;" xml:space="preserve">
<style type="text/css">
	.st0{fill:#34ACFF;stroke:#0000FF;stroke-width:0.25;stroke-miterlimit:10;}
</style>
<g>
	<path class="st0" d="M0.17,17.23l1.4-0.86V1.73L0.38,0.94h2.39c1.41,0,2.48,0.61,3.22,1.83C6.73,3.99,7.1,5.76,7.1,8.09
		c0,1.58-0.21,3.05-0.64,4.43c-0.43,1.37-1.01,2.5-1.75,3.38c-0.38,0.44-0.8,0.77-1.26,1c-0.46,0.23-0.94,0.34-1.45,0.34H0.17z
		 M1.94,16.81c1.39-0.03,2.39-0.82,3.02-2.36c0.63-1.55,0.94-4.05,0.94-7.5c0-2.14-0.21-3.6-0.64-4.38S4.09,1.38,3.02,1.37
		L1.94,16.81z"/>
	<path class="st0" d="M13.99,11.2H9.56c0,2.08,0.14,3.55,0.43,4.39c0.29,0.84,0.77,1.26,1.45,1.26c0.43,0,0.83-0.33,1.17-0.98
		c0.35-0.65,0.69-1.71,1.03-3.18v4.49l-0.44-1.6c-0.28,0.65-0.56,1.12-0.86,1.41c-0.3,0.29-0.63,0.43-1,0.43
		c-0.89,0-1.61-0.53-2.15-1.59c-0.54-1.06-0.81-2.49-0.81-4.29c0-1.77,0.28-3.23,0.84-4.39s1.24-1.73,2.03-1.73
		c0.72,0,1.35,0.5,1.91,1.49s0.83,2.19,0.83,3.59V11.2z M12.75,10.76v-0.73c0-1.26-0.13-2.25-0.4-2.98s-0.63-1.1-1.09-1.1
		c-0.52,0-0.92,0.4-1.2,1.2s-0.45,2-0.49,3.6H12.75z"/>
	<path class="st0" d="M21.24,12.88v4.13l-0.39-1.48c-0.3,0.66-0.62,1.14-0.95,1.44c-0.33,0.3-0.72,0.44-1.16,0.44
		c-0.77,0-1.35-0.32-1.73-0.95c-0.38-0.63-0.57-1.59-0.57-2.88c0-0.86,0.04-1.75,0.11-2.68c0.07-0.93,0.19-1.88,0.35-2.87h-1.06
		l-0.85,2.01V5.64l0.88,1.97h1.08c0.26-1.38,0.49-2.55,0.69-3.53c0.19-0.97,0.36-1.74,0.48-2.28l-1.49-0.83h3.91l-1.83,0.86
		c-0.22,1.35-0.39,2.5-0.51,3.45s-0.21,1.73-0.25,2.34h1.84l0.9-1.97v4.36l-0.9-1.95h-1.89c-0.07,0.73-0.13,1.51-0.17,2.34
		c-0.04,0.82-0.06,1.7-0.06,2.64c0,1.39,0.1,2.38,0.3,2.98c0.2,0.6,0.53,0.89,0.99,0.89c0.47,0,0.89-0.33,1.27-0.98
		C20.58,15.25,20.92,14.24,21.24,12.88z"/>
	<path class="st0" d="M29.54,17.23h-2.5v-2.01c-0.27,0.73-0.57,1.28-0.92,1.65c-0.34,0.37-0.71,0.56-1.12,0.56
		c-0.88,0-1.58-0.54-2.11-1.61s-0.79-2.52-0.79-4.36c0-1.79,0.28-3.25,0.85-4.37s1.29-1.68,2.17-1.68c0.46,0,0.87,0.25,1.23,0.75
		c0.36,0.5,0.66,1.22,0.88,2.17l0.2-2.74h2.01l-1.43,0.82v9.91L29.54,17.23z M27.19,11.11c0-1.43-0.21-2.65-0.62-3.65
		s-0.89-1.5-1.42-1.5c-0.58,0-1.01,0.46-1.29,1.39c-0.28,0.93-0.42,2.33-0.42,4.21c0,1.96,0.13,3.34,0.38,4.12
		c0.25,0.79,0.67,1.18,1.25,1.18s1.08-0.54,1.5-1.63S27.19,12.77,27.19,11.11z"/>
	<path class="st0" d="M30.27,17.23l1.71-0.86l-0.42-9.93l-1.86-0.85h5l-1.91,0.85l-0.33,9.93l1.63,0.86H30.27z M30.62,3.7
		c0-0.19,0.15-0.34,0.44-0.48c0.3-0.13,0.67-0.2,1.12-0.2S33,3.09,33.3,3.22c0.3,0.13,0.45,0.29,0.45,0.48s-0.15,0.34-0.44,0.47
		s-0.67,0.19-1.13,0.19c-0.46,0-0.83-0.06-1.12-0.19C30.76,4.05,30.62,3.89,30.62,3.7z"/>
	<path class="st0" d="M35.06,17.23l1.38-0.86V1.88l-1.62-0.94h2.85l-0.69,15.43l1.4,0.86H35.06z"/>
	<path class="st0" d="M44.5,5.48V9.8c-0.24-1.33-0.53-2.32-0.88-2.95c-0.34-0.63-0.76-0.95-1.25-0.95c-0.45,0-0.8,0.15-1.04,0.46
		c-0.24,0.31-0.36,0.75-0.36,1.32c0,1.23,0.83,2.43,2.48,3.61c0.07,0.04,0.12,0.08,0.15,0.1c0.49,0.36,0.86,0.78,1.09,1.27
		s0.35,1.08,0.35,1.76c0,0.92-0.24,1.65-0.72,2.2s-1.12,0.82-1.91,0.82c-0.51,0-0.96-0.18-1.36-0.54c-0.4-0.36-0.77-0.92-1.12-1.69
		l-0.44,2.03v-5.21c0.31,1.56,0.72,2.77,1.21,3.61c0.49,0.85,1.04,1.27,1.64,1.27c0.51,0,0.87-0.19,1.08-0.56s0.32-1,0.32-1.89
		c0-0.88-0.11-1.56-0.33-2.04c-0.22-0.48-0.58-0.9-1.1-1.24c-0.02-0.01-0.04-0.03-0.08-0.05c-1.6-1.08-2.4-2.22-2.4-3.41
		c0-0.66,0.22-1.21,0.66-1.64c0.44-0.43,0.99-0.64,1.67-0.64c0.45,0,0.82,0.11,1.1,0.34s0.56,0.62,0.83,1.19L44.5,5.48z"/>
	<path class="st0" d="M57.82,17.23h-2.5v-2.01c-0.27,0.73-0.57,1.28-0.92,1.65c-0.34,0.37-0.71,0.56-1.12,0.56
		c-0.88,0-1.58-0.54-2.11-1.61s-0.79-2.52-0.79-4.36c0-1.79,0.28-3.25,0.85-4.37s1.29-1.68,2.17-1.68c0.46,0,0.87,0.25,1.23,0.75
		c0.36,0.5,0.66,1.22,0.88,2.17l0.2-2.74h2.01L56.3,6.42v9.91L57.82,17.23z M55.47,11.11c0-1.43-0.21-2.65-0.62-3.65
		s-0.89-1.5-1.42-1.5c-0.58,0-1.01,0.46-1.29,1.39c-0.28,0.93-0.42,2.33-0.42,4.21c0,1.96,0.13,3.34,0.38,4.12
		c0.25,0.79,0.67,1.18,1.25,1.18s1.08-0.54,1.5-1.63S55.47,12.77,55.47,11.11z"/>
	<path class="st0" d="M57.97,17.23l1.52-0.86V1.79l-1.52-0.86h2.88L60.48,7.6c0.27-0.73,0.57-1.28,0.9-1.65
		c0.33-0.36,0.71-0.55,1.13-0.55c0.88,0,1.58,0.53,2.11,1.6c0.53,1.07,0.79,2.51,0.79,4.34c0,1.77-0.29,3.22-0.88,4.36
		c-0.59,1.14-1.31,1.71-2.16,1.71c-0.46,0-0.88-0.25-1.25-0.75c-0.37-0.5-0.66-1.23-0.89-2.18l-0.16,2.74H57.97z M62.43,5.96
		c-0.56,0-1.05,0.54-1.48,1.61c-0.42,1.07-0.63,2.4-0.63,3.99c0,1.48,0.21,2.73,0.62,3.76s0.87,1.54,1.38,1.54
		c0.6,0,1.04-0.46,1.34-1.38c0.29-0.92,0.44-2.32,0.44-4.21c0-1.95-0.13-3.32-0.38-4.11S63.03,5.96,62.43,5.96z"/>
	<path class="st0" d="M69.38,5.41c0.79,0,1.44,0.56,1.97,1.67c0.53,1.11,0.79,2.54,0.79,4.29c0,1.81-0.26,3.27-0.77,4.38
		c-0.52,1.11-1.18,1.66-1.99,1.66c-0.8,0-1.46-0.56-1.98-1.68c-0.52-1.12-0.78-2.57-0.78-4.37c0-1.74,0.27-3.17,0.8-4.29
		S68.6,5.41,69.38,5.41z M69.36,5.94c-0.52,0-0.92,0.44-1.19,1.31c-0.27,0.87-0.4,2.16-0.4,3.87c0,1.9,0.13,3.33,0.4,4.3
		c0.27,0.97,0.66,1.46,1.19,1.46c0.53,0,0.94-0.49,1.21-1.48c0.28-0.98,0.42-2.41,0.42-4.28c0-1.71-0.14-2.99-0.41-3.87
		C70.31,6.37,69.9,5.94,69.36,5.94z"/>
	<path class="st0" d="M80.79,17.23h-2.41l0.02-2.15c-0.25,0.78-0.54,1.37-0.89,1.76c-0.35,0.39-0.75,0.58-1.21,0.58
		c-0.78,0-1.44-0.51-1.98-1.54c-0.54-1.03-0.81-2.32-0.81-3.88c0-1.11,0.16-2.12,0.48-3.03c0.32-0.91,0.81-1.76,1.48-2.55
		l-1.93-0.82h3.12c-0.67,0.83-1.16,1.76-1.47,2.8c-0.31,1.04-0.46,2.32-0.46,3.84c0,1.62,0.13,2.8,0.4,3.55
		c0.27,0.75,0.7,1.12,1.28,1.12c0.51,0,0.98-0.45,1.43-1.34s0.68-1.97,0.71-3.22l0.13-6.74h2.12l-1.45,0.87v9.95L80.79,17.23z"/>
	<path class="st0" d="M87.55,12.88v4.13l-0.39-1.48c-0.3,0.66-0.62,1.14-0.95,1.44c-0.33,0.3-0.72,0.44-1.16,0.44
		c-0.77,0-1.35-0.32-1.73-0.95c-0.38-0.63-0.57-1.59-0.57-2.88c0-0.86,0.04-1.75,0.11-2.68c0.07-0.93,0.19-1.88,0.35-2.87h-1.06
		l-0.85,2.01V5.64l0.88,1.97h1.08c0.26-1.38,0.49-2.55,0.69-3.53c0.19-0.97,0.36-1.74,0.48-2.28l-1.49-0.83h3.91L85,1.81
		c-0.22,1.35-0.39,2.5-0.51,3.45s-0.21,1.73-0.25,2.34h1.84l0.9-1.97v4.36l-0.9-1.95H84.2c-0.07,0.73-0.13,1.51-0.17,2.34
		c-0.04,0.82-0.06,1.7-0.06,2.64c0,1.39,0.1,2.38,0.3,2.98c0.2,0.6,0.53,0.89,0.99,0.89c0.47,0,0.89-0.33,1.27-0.98
		C86.9,15.25,87.24,14.24,87.55,12.88z"/>
	<path class="st0" d="M98.32,0.66v5.48c-0.48-1.96-0.91-3.27-1.29-3.94c-0.38-0.66-0.84-1-1.39-1c-0.43,0-0.75,0.24-0.98,0.71
		c-0.22,0.47-0.34,1.16-0.34,2.08c0,0.96,0.12,1.74,0.36,2.33c0.24,0.59,0.73,1.22,1.45,1.9c1.07,1.01,1.76,1.85,2.08,2.52
		c0.31,0.67,0.47,1.44,0.47,2.33c0,1.26-0.31,2.3-0.92,3.1c-0.61,0.81-1.38,1.21-2.32,1.21c-0.51,0-0.95-0.19-1.33-0.56
		c-0.37-0.37-0.71-0.96-1-1.77l-0.79,1.54v-6.21c0.58,2.57,1.09,4.29,1.53,5.18s0.95,1.33,1.56,1.33s1.05-0.3,1.34-0.91
		s0.43-1.56,0.43-2.86c0-1.26-0.12-2.21-0.36-2.84s-0.66-1.22-1.27-1.79c-0.1-0.09-0.25-0.21-0.45-0.39
		C94.23,7.35,93.6,6.65,93.26,6c-0.11-0.21-0.2-0.49-0.27-0.86c-0.07-0.36-0.1-0.75-0.1-1.16c0-0.93,0.26-1.71,0.79-2.31
		s1.19-0.91,1.99-0.91c0.42,0,0.79,0.14,1.1,0.41c0.31,0.27,0.59,0.7,0.83,1.28L98.32,0.66z"/>
	<path class="st0" d="M107.32,17.23h-2.41l0.02-2.15c-0.25,0.78-0.54,1.37-0.89,1.76c-0.35,0.39-0.75,0.58-1.21,0.58
		c-0.78,0-1.44-0.51-1.98-1.54c-0.54-1.03-0.81-2.32-0.81-3.88c0-1.11,0.16-2.12,0.48-3.03c0.32-0.91,0.81-1.76,1.48-2.55
		l-1.93-0.82h3.12c-0.67,0.83-1.16,1.76-1.47,2.8c-0.31,1.04-0.46,2.32-0.46,3.84c0,1.62,0.13,2.8,0.4,3.55
		c0.27,0.75,0.7,1.12,1.28,1.12c0.51,0,0.98-0.45,1.43-1.34s0.68-1.97,0.71-3.22l0.13-6.74h2.12l-1.45,0.87v9.95L107.32,17.23z"/>
	<path class="st0" d="M107.48,17.23l1.52-0.86V1.79l-1.52-0.86h2.88l-0.37,6.67c0.27-0.73,0.57-1.28,0.9-1.65
		c0.33-0.36,0.71-0.55,1.13-0.55c0.88,0,1.58,0.53,2.11,1.6c0.53,1.07,0.79,2.51,0.79,4.34c0,1.77-0.29,3.22-0.88,4.36
		c-0.59,1.14-1.31,1.71-2.16,1.71c-0.46,0-0.88-0.25-1.25-0.75c-0.37-0.5-0.66-1.23-0.89-2.18l-0.16,2.74H107.48z M111.94,5.96
		c-0.56,0-1.05,0.54-1.48,1.61c-0.42,1.07-0.63,2.4-0.63,3.99c0,1.48,0.21,2.73,0.62,3.76s0.87,1.54,1.38,1.54
		c0.6,0,1.04-0.46,1.34-1.38c0.29-0.92,0.44-2.32,0.44-4.21c0-1.95-0.13-3.32-0.38-4.11S112.53,5.96,111.94,5.96z"/>
	<path class="st0" d="M118.47,0.94l-0.35,6.6c0.25-0.69,0.54-1.22,0.89-1.58c0.34-0.36,0.72-0.55,1.12-0.55
		c0.79,0,1.45,0.51,1.99,1.53c0.54,1.02,0.81,2.31,0.81,3.88c0,1.11-0.16,2.11-0.47,3.01c-0.31,0.9-0.81,1.75-1.48,2.55l1.93,0.83
		h-3.12c0.67-0.81,1.15-1.73,1.47-2.75c0.31-1.02,0.47-2.21,0.47-3.59c0-1.7-0.13-2.95-0.4-3.76c-0.27-0.81-0.69-1.21-1.26-1.21
		c-0.45,0-0.88,0.38-1.3,1.13s-0.65,1.63-0.7,2.61l-0.36,7.57h-2.1l1.52-0.86V1.79l-1.52-0.86H118.47z"/>
	<path class="st0" d="M131.72,17.23h-2.5v-2.01c-0.27,0.73-0.57,1.28-0.92,1.65c-0.34,0.37-0.71,0.56-1.12,0.56
		c-0.88,0-1.58-0.54-2.11-1.61s-0.79-2.52-0.79-4.36c0-1.79,0.28-3.25,0.85-4.37s1.29-1.68,2.17-1.68c0.46,0,0.87,0.25,1.23,0.75
		c0.36,0.5,0.66,1.22,0.88,2.17l0.2-2.74h2.01l-1.43,0.82v9.91L131.72,17.23z M129.38,11.11c0-1.43-0.21-2.65-0.62-3.65
		s-0.89-1.5-1.42-1.5c-0.58,0-1.01,0.46-1.29,1.39c-0.28,0.93-0.42,2.33-0.42,4.21c0,1.96,0.13,3.34,0.38,4.12
		c0.25,0.79,0.67,1.18,1.25,1.18s1.08-0.54,1.5-1.63S129.38,12.77,129.38,11.11z"/>
	<path class="st0" d="M131.88,17.23l1.43-0.86V6.4l-1.43-0.8h2.1l0.09,3.02c0.22-1.03,0.52-1.82,0.91-2.37
		c0.39-0.55,0.83-0.83,1.31-0.83c0.4,0,0.75,0.1,1.06,0.3s0.6,0.52,0.88,0.95c0.26-0.43,0.53-0.74,0.81-0.95
		c0.28-0.2,0.58-0.3,0.9-0.3c0.79,0,1.45,0.51,1.99,1.53c0.54,1.02,0.81,2.31,0.81,3.88c0,1.11-0.16,2.11-0.48,3.01
		c-0.32,0.9-0.81,1.75-1.48,2.55l1.91,0.83h-3.13c0.67-0.82,1.17-1.74,1.48-2.76c0.31-1.02,0.47-2.23,0.47-3.62
		c0-1.72-0.14-2.97-0.41-3.76c-0.27-0.79-0.7-1.18-1.29-1.18c-0.25,0-0.49,0.1-0.7,0.3c-0.21,0.2-0.42,0.51-0.63,0.93
		c0.11,0.31,0.2,0.63,0.26,0.97s0.09,0.69,0.09,1.06c0,0.94-0.13,1.94-0.39,3.01s-0.65,2.19-1.16,3.37l1.4,0.81h-3.38l1.43-0.81
		c0.32-1.01,0.56-1.98,0.72-2.91c0.16-0.92,0.24-1.8,0.24-2.62c0-1.23-0.15-2.22-0.44-2.98s-0.66-1.14-1.1-1.14
		c-0.48,0-0.94,0.56-1.38,1.69c-0.44,1.13-0.66,2.42-0.66,3.87c0,0.83,0.04,1.73,0.13,2.71c0.09,0.98,0.21,1.99,0.38,3.04H131.88z"
		/>
</g>
<g>
</g>
<g>
</g>
<g>
</g>
<g>
</g>
<g>
</g>
<g>
</g>
<g>
</g>
<g>
</g>
<g>
</g>
<g>
</g>
<g>
</g>
<g>
</g>
<g>
</g>
<g>
</g>
<g>
</g>
</svg>
