<?xml version="1.0" encoding="utf-8"?>
<!-- Generator: Adobe Illustrator 24.3.0, SVG Export Plug-In . SVG Version: 6.00 Build 0)  -->
<svg version="1.1" id="Layer_1" xmlns="http://www.w3.org/2000/svg" xmlns:xlink="http://www.w3.org/1999/xlink" x="0px" y="0px"
	 viewBox="0 0 67.98 19.04" style="enable-background:new 0 0 67.98 19.04;" xml:space="preserve">
<style type="text/css">
	.st0{fill:#34ACFF;stroke:#0000FF;stroke-width:0.25;stroke-miterlimit:10;}
</style>
<g>
	<path class="st0" d="M1.17,17.23l1.4-0.86V1.73L1.38,0.94h2.64L2.94,16.79h3.4l1.27-5.65v6.09H1.17z"/>
	<path class="st0" d="M8.66,17.23l1.71-0.86L9.95,6.44L8.09,5.59h5l-1.91,0.85l-0.33,9.93l1.63,0.86H8.66z M9.01,3.7
		c0-0.19,0.15-0.34,0.44-0.48c0.3-0.13,0.67-0.2,1.12-0.2s0.82,0.07,1.12,0.2c0.3,0.13,0.45,0.29,0.45,0.48S12,4.04,11.7,4.17
		s-0.67,0.19-1.13,0.19c-0.46,0-0.83-0.06-1.12-0.19C9.15,4.05,9.01,3.89,9.01,3.7z"/>
	<path class="st0" d="M20.61,1.18V5.3c-0.26-1.34-0.57-2.34-0.94-2.99c-0.36-0.65-0.79-0.98-1.27-0.98c-0.55,0-0.93,0.45-1.16,1.35
		c-0.23,0.9-0.37,2.89-0.42,5.97h1.28l0.9-1.97v4.36l-0.92-1.97h-1.26v0.77c0,1.16,0.02,2.28,0.07,3.37
		c0.04,1.09,0.11,2.14,0.2,3.16l1.8,0.86h-3.91l1.52-0.83c-0.22-1.37-0.39-2.67-0.52-3.91c-0.13-1.24-0.22-2.37-0.26-3.41h-1.08
		l-0.83,2.04V6.68l0.88,1.97h1.01c-0.01-0.24-0.01-0.47-0.02-0.7c0-0.23-0.01-0.49-0.01-0.79c0-2.44,0.19-4.12,0.58-5.03
		s1.06-1.37,2-1.37c0.43,0,0.81,0.15,1.13,0.45c0.32,0.3,0.61,0.78,0.87,1.43L20.61,1.18z"/>
	<path class="st0" d="M26.14,11.2H21.7c0,2.08,0.14,3.55,0.43,4.39c0.29,0.84,0.77,1.26,1.45,1.26c0.43,0,0.83-0.33,1.17-0.98
		c0.35-0.65,0.69-1.71,1.03-3.18v4.49l-0.44-1.6c-0.28,0.65-0.56,1.12-0.86,1.41c-0.3,0.29-0.63,0.43-1,0.43
		c-0.89,0-1.61-0.53-2.15-1.59c-0.54-1.06-0.81-2.49-0.81-4.29c0-1.77,0.28-3.23,0.84-4.39s1.24-1.73,2.03-1.73
		c0.72,0,1.35,0.5,1.91,1.49s0.83,2.19,0.83,3.59V11.2z M24.89,10.76v-0.73c0-1.26-0.13-2.25-0.4-2.98s-0.63-1.1-1.09-1.1
		c-0.52,0-0.92,0.4-1.2,1.2s-0.45,2-0.49,3.6H24.89z"/>
	<path class="st0" d="M30.85,17.23l1.4-0.86V1.73l-1.19-0.79h6.83l-1.31,3.22v-2.8H33.7l-0.53,7.48h1.77l1.12-2.19v4.96l-1.17-2.28
		h-1.75l-0.53,7.49h3.89l1.19-3.99v4.41H30.85z"/>
	<path class="st0" d="M45.84,6.02l-1.39,0.86l-1.91,10.35h-2.12l1.47-0.79l-2.22-9.97l-1.53-0.87h2.79l1.34,10.44l1.71-9.16
		l-1.48-0.86H45.84z"/>
	<path class="st0" d="M51.67,11.2h-4.44c0,2.08,0.14,3.55,0.43,4.39c0.29,0.84,0.77,1.26,1.45,1.26c0.43,0,0.83-0.33,1.17-0.98
		c0.35-0.65,0.69-1.71,1.03-3.18v4.49l-0.44-1.6c-0.28,0.65-0.56,1.12-0.86,1.41c-0.3,0.29-0.63,0.43-1,0.43
		c-0.89,0-1.61-0.53-2.15-1.59c-0.54-1.06-0.81-2.49-0.81-4.29c0-1.77,0.28-3.23,0.84-4.39s1.24-1.73,2.03-1.73
		c0.72,0,1.35,0.5,1.91,1.49s0.83,2.19,0.83,3.59V11.2z M50.43,10.76v-0.73c0-1.26-0.13-2.25-0.4-2.98s-0.63-1.1-1.09-1.1
		c-0.52,0-0.92,0.4-1.2,1.2s-0.45,2-0.49,3.6H50.43z"/>
	<path class="st0" d="M52.11,17.23l1.43-0.86V6.4l-1.43-0.8h2.1l0.09,3.02c0.23-1.02,0.55-1.81,0.95-2.37s0.86-0.83,1.37-0.83
		c0.79,0,1.45,0.51,1.99,1.52s0.81,2.31,0.81,3.89c0,1.11-0.16,2.12-0.47,3.03c-0.31,0.91-0.81,1.75-1.48,2.54l1.93,0.83h-3.12
		c0.67-0.83,1.16-1.76,1.47-2.79c0.31-1.02,0.46-2.29,0.46-3.78c0-1.61-0.14-2.8-0.41-3.57c-0.27-0.78-0.69-1.17-1.25-1.17
		c-0.55,0-1.05,0.57-1.5,1.7c-0.45,1.13-0.68,2.49-0.68,4.07c0,0.89,0.04,1.8,0.12,2.73s0.2,1.87,0.37,2.81H52.11z"/>
	<path class="st0" d="M66.86,12.88v4.13l-0.39-1.48c-0.3,0.66-0.62,1.14-0.95,1.44c-0.33,0.3-0.72,0.44-1.16,0.44
		c-0.77,0-1.35-0.32-1.73-0.95c-0.38-0.63-0.57-1.59-0.57-2.88c0-0.86,0.04-1.75,0.11-2.68c0.07-0.93,0.19-1.88,0.35-2.87h-1.06
		l-0.85,2.01V5.64l0.88,1.97h1.08c0.26-1.38,0.49-2.55,0.69-3.53c0.19-0.97,0.36-1.74,0.48-2.28l-1.49-0.83h3.91l-1.83,0.86
		c-0.22,1.35-0.39,2.5-0.51,3.45s-0.21,1.73-0.25,2.34h1.84l0.9-1.97v4.36l-0.9-1.95H63.5c-0.07,0.73-0.13,1.51-0.17,2.34
		c-0.04,0.82-0.06,1.7-0.06,2.64c0,1.39,0.1,2.38,0.3,2.98c0.2,0.6,0.53,0.89,0.99,0.89c0.47,0,0.89-0.33,1.27-0.98
		C66.2,15.25,66.54,14.24,66.86,12.88z"/>
</g>
<g>
</g>
<g>
</g>
<g>
</g>
<g>
</g>
<g>
</g>
<g>
</g>
<g>
</g>
<g>
</g>
<g>
</g>
<g>
</g>
<g>
</g>
<g>
</g>
<g>
</g>
<g>
</g>
<g>
</g>
</svg>
