<?xml version="1.0" encoding="utf-8"?>
<!-- Generator: Adobe Illustrator 24.3.0, SVG Export Plug-In . SVG Version: 6.00 Build 0)  -->
<svg version="1.1" id="Layer_1" xmlns="http://www.w3.org/2000/svg" xmlns:xlink="http://www.w3.org/1999/xlink" x="0px" y="0px"
	 viewBox="0 0 79 19" style="enable-background:new 0 0 79 19;" xml:space="preserve">
<style type="text/css">
	.st0{fill:#34ACFF;stroke:#0000FF;stroke-width:0.25;stroke-miterlimit:10;}
</style>
<g>
	<path class="st0" d="M1,17.1l1.4-0.86V1.6L1.21,0.81h2.55c1.22,0,2.2,0.43,2.94,1.3c0.74,0.87,1.11,2.01,1.11,3.44
		c0,1.43-0.44,2.63-1.31,3.57c-0.87,0.95-1.97,1.42-3.28,1.42L2.78,17.1H1z M3.24,10.18h0.16c1,0,1.8-0.45,2.4-1.35
		s0.89-2.12,0.89-3.67c0-1.36-0.22-2.37-0.67-3.01C5.57,1.51,4.87,1.19,3.92,1.19H3.88L3.24,10.18z"/>
	<path class="st0" d="M8.37,17.1l1.38-0.86V1.75L8.13,0.81h2.85L10.3,16.25l1.4,0.86H8.37z"/>
	<path class="st0" d="M20.26,17.1h-2.5v-2.01c-0.27,0.73-0.57,1.28-0.92,1.65c-0.34,0.37-0.71,0.56-1.12,0.56
		c-0.88,0-1.58-0.54-2.11-1.61s-0.79-2.52-0.79-4.36c0-1.79,0.28-3.25,0.85-4.37s1.29-1.68,2.17-1.68c0.46,0,0.87,0.25,1.23,0.75
		c0.36,0.5,0.66,1.22,0.88,2.17l0.2-2.74h2.01l-1.43,0.82v9.91L20.26,17.1z M17.91,10.99c0-1.43-0.21-2.65-0.62-3.65
		s-0.89-1.5-1.42-1.5c-0.58,0-1.01,0.46-1.29,1.39c-0.28,0.93-0.42,2.33-0.42,4.21c0,1.96,0.13,3.34,0.38,4.12
		c0.25,0.79,0.67,1.18,1.25,1.18s1.08-0.54,1.5-1.63S17.91,12.65,17.91,10.99z"/>
	<path class="st0" d="M25.31,12.61h1.29c-0.16,1.56-0.46,2.73-0.91,3.51c-0.45,0.78-1.04,1.18-1.76,1.18c-0.9,0-1.62-0.53-2.17-1.58
		s-0.82-2.48-0.82-4.28c0-1.83,0.29-3.31,0.86-4.44c0.58-1.13,1.31-1.7,2.2-1.7c0.36,0,0.69,0.15,1,0.45s0.58,0.74,0.81,1.33
		l0.44-1.93v5.19C26.02,8.89,25.7,7.78,25.29,7c-0.4-0.78-0.86-1.17-1.36-1.17c-0.53,0-0.94,0.5-1.22,1.5s-0.43,2.44-0.43,4.31
		c0,1.76,0.13,3.05,0.4,3.86c0.27,0.81,0.7,1.22,1.28,1.22c0.5,0,0.85-0.25,1.05-0.75c0.2-0.5,0.3-1.49,0.3-2.95V12.61z"/>
	<path class="st0" d="M33.23,11.08H28.8c0,2.08,0.14,3.55,0.43,4.39c0.29,0.84,0.77,1.26,1.45,1.26c0.43,0,0.83-0.33,1.17-0.98
		c0.35-0.65,0.69-1.71,1.03-3.18v4.49l-0.44-1.6c-0.28,0.65-0.56,1.12-0.86,1.41c-0.3,0.29-0.63,0.43-1,0.43
		c-0.89,0-1.61-0.53-2.15-1.59c-0.54-1.06-0.81-2.49-0.81-4.29c0-1.77,0.28-3.23,0.84-4.39s1.24-1.73,2.03-1.73
		c0.72,0,1.35,0.5,1.91,1.49s0.83,2.19,0.83,3.59V11.08z M31.99,10.64V9.91c0-1.26-0.13-2.25-0.4-2.98s-0.63-1.1-1.09-1.1
		c-0.52,0-0.92,0.4-1.2,1.2s-0.45,2-0.49,3.6H31.99z"/>
	<path class="st0" d="M39.17,5.35v4.32c-0.24-1.33-0.53-2.32-0.88-2.95c-0.34-0.63-0.76-0.95-1.25-0.95c-0.45,0-0.8,0.15-1.04,0.46
		c-0.24,0.31-0.36,0.75-0.36,1.32c0,1.23,0.83,2.43,2.48,3.61c0.07,0.04,0.12,0.08,0.15,0.1c0.49,0.36,0.86,0.78,1.09,1.27
		s0.35,1.08,0.35,1.76c0,0.92-0.24,1.65-0.72,2.2s-1.12,0.82-1.91,0.82c-0.51,0-0.96-0.18-1.36-0.54c-0.4-0.36-0.77-0.92-1.12-1.69
		l-0.44,2.03v-5.21c0.31,1.56,0.72,2.77,1.21,3.61c0.49,0.85,1.04,1.27,1.64,1.27c0.51,0,0.87-0.19,1.08-0.56s0.32-1,0.32-1.89
		c0-0.88-0.11-1.56-0.33-2.04c-0.22-0.48-0.58-0.9-1.1-1.24c-0.02-0.01-0.04-0.03-0.08-0.05c-1.6-1.08-2.4-2.22-2.4-3.41
		c0-0.66,0.22-1.21,0.66-1.64c0.44-0.43,0.99-0.64,1.67-0.64c0.45,0,0.82,0.11,1.1,0.34s0.56,0.62,0.83,1.19L39.17,5.35z"/>
	<path class="st0" d="M44.51,17.1l1.4-0.86V1.6l-1.19-0.79h2.64l-1.08,15.85h3.4l1.27-5.65v6.09H44.51z"/>
	<path class="st0" d="M52,17.1l1.71-0.86l-0.42-9.93l-1.86-0.85h5l-1.91,0.85l-0.33,9.93l1.63,0.86H52z M52.35,3.57
		c0-0.19,0.15-0.34,0.44-0.48c0.3-0.13,0.67-0.2,1.12-0.2s0.82,0.07,1.12,0.2c0.3,0.13,0.45,0.29,0.45,0.48s-0.15,0.34-0.44,0.47
		s-0.67,0.19-1.13,0.19c-0.46,0-0.83-0.06-1.12-0.19C52.49,3.93,52.35,3.77,52.35,3.57z"/>
	<path class="st0" d="M63.89,5.9L62.5,6.75L60.59,17.1h-2.12l1.47-0.79l-2.22-9.97l-1.53-0.87h2.79l1.34,10.44l1.71-9.16L60.53,5.9
		H63.89z"/>
	<path class="st0" d="M69.72,11.08h-4.44c0,2.08,0.14,3.55,0.43,4.39c0.29,0.84,0.77,1.26,1.45,1.26c0.43,0,0.83-0.33,1.17-0.98
		c0.35-0.65,0.69-1.71,1.03-3.18v4.49l-0.44-1.6c-0.28,0.65-0.56,1.12-0.86,1.41c-0.3,0.29-0.63,0.43-1,0.43
		c-0.89,0-1.61-0.53-2.15-1.59c-0.54-1.06-0.81-2.49-0.81-4.29c0-1.77,0.28-3.23,0.84-4.39s1.24-1.73,2.03-1.73
		c0.72,0,1.35,0.5,1.91,1.49s0.83,2.19,0.83,3.59V11.08z M68.47,10.64V9.91c0-1.26-0.13-2.25-0.4-2.98s-0.63-1.1-1.09-1.1
		c-0.52,0-0.92,0.4-1.2,1.2s-0.45,2-0.49,3.6H68.47z"/>
	<path class="st0" d="M78.12,17.1h-2.1l-0.11-3.31c-0.25,1.18-0.57,2.05-0.96,2.63c-0.39,0.58-0.84,0.87-1.36,0.87
		c-0.88,0-1.58-0.54-2.11-1.61s-0.79-2.52-0.79-4.36c0-1.77,0.28-3.22,0.85-4.35c0.57-1.13,1.27-1.7,2.09-1.7
		c0.42,0,0.79,0.19,1.11,0.58s0.6,0.97,0.84,1.74l-0.31-6.8h2.85L76.6,1.65V16.2L78.12,17.1z M75.77,10.99
		c0-1.44-0.21-2.66-0.62-3.66s-0.89-1.5-1.42-1.5c-0.56,0-0.99,0.46-1.29,1.39C72.15,8.14,72,9.47,72,11.2
		c0,2.11,0.12,3.56,0.37,4.34c0.25,0.79,0.67,1.18,1.28,1.18c0.6,0,1.1-0.54,1.51-1.61C75.57,14.05,75.77,12.67,75.77,10.99z"/>
</g>
<g>
</g>
<g>
</g>
<g>
</g>
<g>
</g>
<g>
</g>
<g>
</g>
<g>
</g>
<g>
</g>
<g>
</g>
<g>
</g>
<g>
</g>
<g>
</g>
<g>
</g>
<g>
</g>
<g>
</g>
</svg>
