<?xml version="1.0" encoding="utf-8"?>
<!-- Generator: Adobe Illustrator 24.3.0, SVG Export Plug-In . SVG Version: 6.00 Build 0)  -->
<svg version="1.1" id="Layer_1" xmlns="http://www.w3.org/2000/svg" xmlns:xlink="http://www.w3.org/1999/xlink" x="0px" y="0px"
	 viewBox="0 0 550 750" style="enable-background:new 0 0 550 750;" xml:space="preserve">
<style type="text/css">
	.st0{fill:#FFFF45;}
</style>
<g>
	<path class="st0" d="M20.8,749.5c-11.2,0-20.3-9.1-20.3-20.3V20.8C0.5,9.6,9.6,0.5,20.8,0.5h508.3c11.2,0,20.3,9.1,20.3,20.3v708.3
		c0,11.2-9.1,20.3-20.3,20.3H20.8z"/>
	<path d="M529.2,1C540.1,1,549,9.9,549,20.8v708.3c0,10.9-8.9,19.8-19.8,19.8H20.8C9.9,749,1,740.1,1,729.2V20.8C1,9.9,9.9,1,20.8,1
		H529.2 M529.2,0H20.8C9.3,0,0,9.3,0,20.8v708.3C0,740.7,9.3,750,20.8,750h508.3c11.5,0,20.8-9.3,20.8-20.8V20.8
		C550,9.3,540.7,0,529.2,0L529.2,0z"/>
</g>
<g>
</g>
<g>
</g>
<g>
</g>
<g>
</g>
<g>
</g>
<g>
</g>
<g>
</g>
<g>
</g>
<g>
</g>
<g>
</g>
<g>
</g>
<g>
</g>
<g>
</g>
<g>
</g>
<g>
</g>
</svg>
