<?xml version="1.0" encoding="utf-8"?>
<!-- Generator: Adobe Illustrator 24.3.0, SVG Export Plug-In . SVG Version: 6.00 Build 0)  -->
<svg version="1.1" id="Layer_1" xmlns="http://www.w3.org/2000/svg" xmlns:xlink="http://www.w3.org/1999/xlink" x="0px" y="0px"
	 viewBox="0 0 49 19" style="enable-background:new 0 0 49 19;" xml:space="preserve">
<style type="text/css">
	.st0{fill:#34ACFF;stroke:#0000FF;stroke-width:0.25;stroke-miterlimit:10;}
</style>
<g>
	<path class="st0" d="M1,17.1l1.4-0.86V1.6L1.21,0.81h7.01L6.64,4.76V1.23H3.85L3.35,8.71h1.77l1.12-2.19v4.96L5.08,9.19H3.3
		L2.78,17.1H1z"/>
	<path class="st0" d="M7.8,17.1l1.38-0.86V6.27l-1.43-0.8h2.02l0.17,2.98c0.16-1.1,0.4-1.9,0.69-2.4c0.3-0.5,0.69-0.75,1.17-0.75
		c0.36,0,0.66,0.13,0.9,0.39c0.24,0.26,0.44,0.67,0.6,1.21l0.51-1.48v5.64c-0.28-1.63-0.59-2.84-0.95-3.65
		c-0.36-0.81-0.75-1.21-1.2-1.21c-0.48,0-0.87,0.46-1.17,1.39s-0.45,2.16-0.45,3.7c0,1,0.04,1.99,0.11,2.96
		c0.07,0.97,0.19,1.93,0.35,2.87H7.8z"/>
	<path class="st0" d="M15.2,17.1l1.71-0.86l-0.42-9.93l-1.86-0.85h5l-1.91,0.85l-0.33,9.93l1.63,0.86H15.2z M15.54,3.57
		c0-0.19,0.15-0.34,0.44-0.48c0.3-0.13,0.67-0.2,1.12-0.2s0.82,0.07,1.12,0.2c0.3,0.13,0.45,0.29,0.45,0.48s-0.15,0.34-0.44,0.47
		s-0.67,0.19-1.13,0.19c-0.46,0-0.83-0.06-1.12-0.19C15.69,3.93,15.54,3.77,15.54,3.57z"/>
	<path class="st0" d="M25.9,11.08h-4.44c0,2.08,0.14,3.55,0.43,4.39c0.29,0.84,0.77,1.26,1.45,1.26c0.43,0,0.83-0.33,1.17-0.98
		c0.35-0.65,0.69-1.71,1.03-3.18v4.49l-0.44-1.6c-0.28,0.65-0.56,1.12-0.86,1.41c-0.3,0.29-0.63,0.43-1,0.43
		c-0.89,0-1.61-0.53-2.15-1.59c-0.54-1.06-0.81-2.49-0.81-4.29c0-1.77,0.28-3.23,0.84-4.39s1.24-1.73,2.03-1.73
		c0.72,0,1.35,0.5,1.91,1.49s0.83,2.19,0.83,3.59V11.08z M24.65,10.64V9.91c0-1.26-0.13-2.25-0.4-2.98s-0.63-1.1-1.09-1.1
		c-0.52,0-0.92,0.4-1.2,1.2s-0.45,2-0.49,3.6H24.65z"/>
	<path class="st0" d="M26.34,17.1l1.43-0.86V6.27l-1.43-0.8h2.1l0.09,3.02c0.23-1.02,0.55-1.81,0.95-2.37s0.86-0.83,1.37-0.83
		c0.79,0,1.45,0.51,1.99,1.52s0.81,2.31,0.81,3.89c0,1.11-0.16,2.12-0.47,3.03c-0.31,0.91-0.81,1.75-1.48,2.54l1.93,0.83H30.5
		c0.67-0.83,1.16-1.76,1.47-2.79c0.31-1.02,0.46-2.29,0.46-3.78c0-1.61-0.14-2.8-0.41-3.57c-0.27-0.78-0.69-1.17-1.25-1.17
		c-0.55,0-1.05,0.57-1.5,1.7c-0.45,1.13-0.68,2.49-0.68,4.07c0,0.89,0.04,1.8,0.12,2.73s0.2,1.87,0.37,2.81H26.34z"/>
	<path class="st0" d="M42.44,17.1h-2.1l-0.11-3.31c-0.25,1.18-0.57,2.05-0.96,2.63c-0.39,0.58-0.84,0.87-1.36,0.87
		c-0.88,0-1.58-0.54-2.11-1.61s-0.79-2.52-0.79-4.36c0-1.77,0.28-3.22,0.85-4.35c0.57-1.13,1.27-1.7,2.09-1.7
		c0.42,0,0.79,0.19,1.11,0.58s0.6,0.97,0.84,1.74l-0.31-6.8h2.85l-1.52,0.83V16.2L42.44,17.1z M40.09,10.99
		c0-1.44-0.21-2.66-0.62-3.66s-0.89-1.5-1.42-1.5c-0.56,0-0.99,0.46-1.29,1.39c-0.3,0.92-0.44,2.25-0.44,3.99
		c0,2.11,0.12,3.56,0.37,4.34c0.25,0.79,0.67,1.18,1.28,1.18c0.6,0,1.1-0.54,1.51-1.61C39.89,14.05,40.09,12.67,40.09,10.99z"/>
	<path class="st0" d="M48.1,5.35v4.32c-0.24-1.33-0.53-2.32-0.88-2.95c-0.34-0.63-0.76-0.95-1.25-0.95c-0.45,0-0.8,0.15-1.04,0.46
		c-0.24,0.31-0.36,0.75-0.36,1.32c0,1.23,0.83,2.43,2.48,3.61c0.07,0.04,0.12,0.08,0.15,0.1c0.49,0.36,0.86,0.78,1.09,1.27
		s0.35,1.08,0.35,1.76c0,0.92-0.24,1.65-0.72,2.2s-1.12,0.82-1.91,0.82c-0.51,0-0.96-0.18-1.36-0.54c-0.4-0.36-0.77-0.92-1.12-1.69
		L43.1,17.1v-5.21c0.31,1.56,0.72,2.77,1.21,3.61c0.49,0.85,1.04,1.27,1.64,1.27c0.51,0,0.87-0.19,1.08-0.56s0.32-1,0.32-1.89
		c0-0.88-0.11-1.56-0.33-2.04c-0.22-0.48-0.58-0.9-1.1-1.24c-0.02-0.01-0.04-0.03-0.08-0.05c-1.6-1.08-2.4-2.22-2.4-3.41
		c0-0.66,0.22-1.21,0.66-1.64c0.44-0.43,0.99-0.64,1.67-0.64c0.45,0,0.82,0.11,1.1,0.34s0.56,0.62,0.83,1.19L48.1,5.35z"/>
</g>
<g>
</g>
<g>
</g>
<g>
</g>
<g>
</g>
<g>
</g>
<g>
</g>
<g>
</g>
<g>
</g>
<g>
</g>
<g>
</g>
<g>
</g>
<g>
</g>
<g>
</g>
<g>
</g>
<g>
</g>
</svg>
