<?xml version="1.0" encoding="utf-8"?>
<!-- Generator: Adobe Illustrator 24.3.0, SVG Export Plug-In . SVG Version: 6.00 Build 0)  -->
<svg version="1.1" id="Layer_1" xmlns="http://www.w3.org/2000/svg" xmlns:xlink="http://www.w3.org/1999/xlink" x="0px" y="0px"
	 viewBox="0 0 66 18" style="enable-background:new 0 0 66 18;" xml:space="preserve">
<style type="text/css">
	.st0{fill:#34ACFF;stroke:#0000FF;stroke-width:0.25;stroke-miterlimit:10;}
</style>
<g>
	<path class="st0" d="M2.62,8.95c0-2.54,0.31-4.56,0.94-6.06C4.18,1.39,5,0.64,6.02,0.64s1.84,0.75,2.46,2.25
		c0.62,1.5,0.93,3.52,0.93,6.06c0,2.54-0.31,4.56-0.93,6.06c-0.62,1.5-1.44,2.25-2.46,2.25s-1.84-0.75-2.46-2.24
		C2.93,13.51,2.62,11.49,2.62,8.95z M4.04,8.95c0,2.99,0.15,5.03,0.44,6.13c0.3,1.1,0.81,1.65,1.53,1.65s1.24-0.54,1.53-1.63
		s0.44-3.14,0.44-6.15c0-3.02-0.15-5.07-0.44-6.14s-0.8-1.62-1.53-1.62S4.78,1.73,4.49,2.83C4.19,3.92,4.04,5.96,4.04,8.95z"/>
	<path class="st0" d="M17.48,5.9l-1.39,0.86L14.17,17.1h-2.12l1.47-0.79L11.3,6.33L9.77,5.47h2.79l1.34,10.44l1.71-9.16L14.12,5.9
		H17.48z"/>
	<path class="st0" d="M23.31,11.08h-4.44c0,2.08,0.14,3.55,0.43,4.39c0.29,0.84,0.77,1.26,1.45,1.26c0.43,0,0.83-0.33,1.17-0.98
		c0.35-0.65,0.69-1.71,1.03-3.18v4.49l-0.44-1.6c-0.28,0.65-0.56,1.12-0.86,1.41c-0.3,0.29-0.63,0.43-1.01,0.43
		c-0.89,0-1.61-0.53-2.15-1.59c-0.54-1.06-0.81-2.49-0.81-4.29c0-1.77,0.28-3.23,0.84-4.39s1.24-1.73,2.03-1.73
		c0.72,0,1.35,0.5,1.91,1.49s0.83,2.19,0.83,3.59V11.08z M22.06,10.64V9.91c0-1.26-0.13-2.25-0.4-2.98s-0.63-1.1-1.09-1.1
		c-0.52,0-0.92,0.4-1.2,1.2s-0.45,2-0.49,3.6H22.06z"/>
	<path class="st0" d="M23.79,17.1l1.38-0.86V6.27l-1.43-0.8h2.02l0.17,2.98c0.16-1.1,0.4-1.9,0.69-2.4c0.3-0.5,0.69-0.75,1.17-0.75
		c0.36,0,0.66,0.13,0.9,0.39c0.24,0.26,0.44,0.67,0.6,1.21l0.51-1.48v5.64c-0.28-1.63-0.59-2.84-0.95-3.65
		c-0.36-0.81-0.75-1.21-1.2-1.21c-0.48,0-0.87,0.46-1.17,1.39c-0.3,0.92-0.45,2.16-0.45,3.7c0,1,0.04,1.99,0.11,2.96
		c0.07,0.97,0.19,1.93,0.35,2.87H23.79z"/>
	<path class="st0" d="M35.24,12.61h1.29c-0.16,1.56-0.46,2.73-0.91,3.51c-0.45,0.78-1.04,1.18-1.76,1.18c-0.9,0-1.62-0.53-2.17-1.58
		s-0.82-2.48-0.82-4.28c0-1.83,0.29-3.31,0.86-4.44c0.58-1.13,1.31-1.7,2.2-1.7c0.36,0,0.69,0.15,1,0.45s0.58,0.74,0.81,1.33
		l0.44-1.93v5.19C35.95,8.89,35.63,7.78,35.22,7c-0.4-0.78-0.86-1.17-1.36-1.17c-0.53,0-0.94,0.5-1.22,1.5s-0.43,2.44-0.43,4.31
		c0,1.76,0.13,3.05,0.4,3.86c0.27,0.81,0.7,1.22,1.28,1.22c0.5,0,0.85-0.25,1.05-0.75c0.2-0.5,0.3-1.49,0.3-2.95V12.61z"/>
	<path class="st0" d="M37.59,17.1l1.71-0.86l-0.42-9.93l-1.86-0.85h5l-1.91,0.85l-0.33,9.93l1.63,0.86H37.59z M37.94,3.57
		c0-0.19,0.15-0.34,0.44-0.48c0.3-0.13,0.67-0.2,1.12-0.2s0.82,0.07,1.12,0.2c0.3,0.13,0.45,0.29,0.45,0.48s-0.15,0.34-0.44,0.47
		s-0.67,0.19-1.13,0.19c-0.46,0-0.83-0.06-1.12-0.19C38.08,3.93,37.94,3.77,37.94,3.57z"/>
	<path class="st0" d="M48.29,11.08h-4.44c0,2.08,0.14,3.55,0.43,4.39c0.29,0.84,0.77,1.26,1.45,1.26c0.43,0,0.83-0.33,1.17-0.98
		c0.35-0.65,0.69-1.71,1.03-3.18v4.49l-0.44-1.6c-0.28,0.65-0.56,1.12-0.86,1.41c-0.3,0.29-0.63,0.43-1.01,0.43
		c-0.89,0-1.61-0.53-2.15-1.59c-0.54-1.06-0.81-2.49-0.81-4.29c0-1.77,0.28-3.23,0.84-4.39s1.24-1.73,2.03-1.73
		c0.72,0,1.35,0.5,1.91,1.49s0.83,2.19,0.83,3.59V11.08z M47.05,10.64V9.91c0-1.26-0.13-2.25-0.4-2.98s-0.63-1.1-1.09-1.1
		c-0.52,0-0.92,0.4-1.2,1.2s-0.45,2-0.49,3.6H47.05z"/>
	<path class="st0" d="M60.33,5.47l-1.58,0.87l-2.08,9.93l1.49,0.83h-2.11L54.3,8.49l-1.63,8.61h-2.17l1.53-0.83l-2.19-9.91
		l-1.47-0.89h2.53l1.57,10.21l1.58-8.51l-1.4-0.83h3.34l-1.43,0.81l1.67,8.59l1.4-10.27H60.33z"/>
</g>
<g>
</g>
<g>
</g>
<g>
</g>
<g>
</g>
<g>
</g>
<g>
</g>
<g>
</g>
<g>
</g>
<g>
</g>
<g>
</g>
<g>
</g>
<g>
</g>
<g>
</g>
<g>
</g>
<g>
</g>
</svg>
