<?xml version="1.0" encoding="utf-8"?>
<!-- Generator: Adobe Illustrator 24.3.0, SVG Export Plug-In . SVG Version: 6.00 Build 0)  -->
<svg version="1.1" id="Layer_1" xmlns="http://www.w3.org/2000/svg" xmlns:xlink="http://www.w3.org/1999/xlink" x="0px" y="0px"
	 viewBox="0 0 129.8 17.6" style="enable-background:new 0 0 129.8 17.6;" xml:space="preserve">
<style type="text/css">
	.st0{fill:#34ACFF;stroke:#0000FF;stroke-width:0.25;stroke-miterlimit:10;}
</style>
<g>
	<path class="st0" d="M11.1,0.1L9.7,0.9v14.8l1.1,0.7H8L6.3,8.5L3,16.4H1.2l1.4-0.9V0.9L1.4,0.1h2.7l-1,14L6.2,5l2.1,10.5l1-15.3
		L11.1,0.1L11.1,0.1z"/>
	<path class="st0" d="M14.3,4.6c0.8,0,1.4,0.6,2,1.7c0.5,1.1,0.8,2.5,0.8,4.3c0,1.8-0.3,3.3-0.8,4.4c-0.5,1.1-1.2,1.7-2,1.7
		c-0.8,0-1.5-0.6-2-1.7c-0.5-1.1-0.8-2.6-0.8-4.4c0-1.7,0.3-3.2,0.8-4.3C12.9,5.2,13.6,4.6,14.3,4.6z M14.3,5.1
		c-0.5,0-0.9,0.4-1.2,1.3c-0.3,0.9-0.4,2.2-0.4,3.9c0,1.9,0.1,3.3,0.4,4.3c0.3,1,0.7,1.5,1.2,1.5c0.5,0,0.9-0.5,1.2-1.5
		c0.3-1,0.4-2.4,0.4-4.3c0-1.7-0.1-3-0.4-3.9C15.3,5.6,14.9,5.1,14.3,5.1z"/>
	<path class="st0" d="M17.8,16.4l1.4-0.9v-10l-1.4-0.8h2l0.2,3c0.2-1.1,0.4-1.9,0.7-2.4c0.3-0.5,0.7-0.8,1.2-0.8
		c0.4,0,0.7,0.1,0.9,0.4s0.4,0.7,0.6,1.2l0.5-1.5v5.6c-0.3-1.6-0.6-2.8-1-3.6c-0.4-0.8-0.8-1.2-1.2-1.2c-0.5,0-0.9,0.5-1.2,1.4
		C20.2,7.8,20,9.1,20,10.6c0,1,0,2,0.1,3s0.2,1.9,0.4,2.9L17.8,16.4L17.8,16.4z"/>
	<path class="st0" d="M23.9,16.4l1.5-0.9V1l-1.5-0.9h2.9l-0.5,9.3L29,5.7l-1.5-0.9H31l-1.4,0.9l-2.5,3.5l3.1,6.4l1.5,0.8h-3.5
		l1.5-0.8l-3.5-5.3L26,16.4L23.9,16.4L23.9,16.4z"/>
	<path class="st0" d="M43.9,16.4h-2.5v-2c-0.3,0.7-0.6,1.3-0.9,1.6c-0.3,0.4-0.7,0.6-1.1,0.6c-0.9,0-1.6-0.5-2.1-1.6
		s-0.8-2.5-0.8-4.4c0-1.8,0.3-3.3,0.8-4.4s1.3-1.7,2.2-1.7c0.5,0,0.9,0.3,1.2,0.8s0.7,1.2,0.9,2.2l0.2-2.7h2l-1.4,0.8v9.9L43.9,16.4
		z M41.6,10.3c0-1.4-0.2-2.6-0.6-3.6c-0.4-1-0.9-1.5-1.4-1.5c-0.6,0-1,0.5-1.3,1.4c-0.3,0.9-0.4,2.3-0.4,4.2c0,2,0.1,3.3,0.4,4.1
		c0.3,0.8,0.7,1.2,1.3,1.2s1.1-0.5,1.5-1.6C41.4,13.3,41.6,12,41.6,10.3z"/>
	<path class="st0" d="M44.1,16.4l1.4-0.9v-10l-1.4-0.8h2.1l0.1,3c0.2-1,0.5-1.8,1-2.4s0.9-0.8,1.4-0.8c0.8,0,1.5,0.5,2,1.5
		s0.8,2.3,0.8,3.9c0,1.1-0.2,2.1-0.5,3s-0.8,1.8-1.5,2.5l1.9,0.8h-3.1c0.7-0.8,1.2-1.8,1.5-2.8c0.3-1,0.5-2.3,0.5-3.8
		c0-1.6-0.1-2.8-0.4-3.6c-0.3-0.8-0.7-1.2-1.3-1.2c-0.5,0-1,0.6-1.5,1.7s-0.7,2.5-0.7,4.1c0,0.9,0,1.8,0.1,2.7
		c0.1,0.9,0.2,1.9,0.4,2.8H44.1z"/>
	<path class="st0" d="M60.2,16.4h-2.1L58,13.1c-0.3,1.2-0.6,2-1,2.6c-0.4,0.6-0.8,0.9-1.4,0.9c-0.9,0-1.6-0.5-2.1-1.6
		s-0.8-2.5-0.8-4.4c0-1.8,0.3-3.2,0.8-4.4s1.3-1.7,2.1-1.7c0.4,0,0.8,0.2,1.1,0.6c0.3,0.4,0.6,1,0.8,1.7l-0.3-6.8h2.8l-1.5,0.8v14.6
		L60.2,16.4z M57.8,10.3c0-1.4-0.2-2.7-0.6-3.7c-0.4-1-0.9-1.5-1.4-1.5c-0.6,0-1,0.5-1.3,1.4c-0.3,0.9-0.4,2.3-0.4,4
		c0,2.1,0.1,3.6,0.4,4.3c0.3,0.8,0.7,1.2,1.3,1.2c0.6,0,1.1-0.5,1.5-1.6C57.6,13.4,57.8,12,57.8,10.3z"/>
	<path class="st0" d="M70.8,10.4h-4.4c0,2.1,0.1,3.5,0.4,4.4s0.8,1.3,1.4,1.3c0.4,0,0.8-0.3,1.2-1c0.3-0.6,0.7-1.7,1-3.2v4.5
		L70,14.8c-0.3,0.6-0.6,1.1-0.9,1.4c-0.3,0.3-0.6,0.4-1,0.4c-0.9,0-1.6-0.5-2.2-1.6s-0.8-2.5-0.8-4.3c0-1.8,0.3-3.2,0.8-4.4
		s1.2-1.7,2-1.7c0.7,0,1.3,0.5,1.9,1.5s0.8,2.2,0.8,3.6L70.8,10.4L70.8,10.4z M69.5,10V9.2c0-1.3-0.1-2.3-0.4-3S68.5,5.2,68,5.2
		c-0.5,0-0.9,0.4-1.2,1.2s-0.4,2-0.5,3.6L69.5,10L69.5,10z"/>
	<path class="st0" d="M79.2,16.4h-2.1L77,13.1c-0.3,1.2-0.6,2-1,2.6c-0.4,0.6-0.8,0.9-1.4,0.9c-0.9,0-1.6-0.5-2.1-1.6
		s-0.8-2.5-0.8-4.4c0-1.8,0.3-3.2,0.8-4.4s1.3-1.7,2.1-1.7c0.4,0,0.8,0.2,1.1,0.6c0.3,0.4,0.6,1,0.8,1.7l-0.3-6.8h2.9l-1.5,0.8v14.6
		L79.2,16.4z M76.8,10.3c0-1.4-0.2-2.7-0.6-3.7c-0.4-1-0.9-1.5-1.4-1.5c-0.6,0-1,0.5-1.3,1.4c-0.3,0.9-0.4,2.3-0.4,4
		c0,2.1,0.1,3.6,0.4,4.3c0.3,0.8,0.7,1.2,1.3,1.2c0.6,0,1.1-0.5,1.5-1.6C76.6,13.4,76.8,12,76.8,10.3z"/>
	<path class="st0" d="M87.3,16.4h-2.4l0-2.1c-0.3,0.8-0.5,1.4-0.9,1.8s-0.8,0.6-1.2,0.6c-0.8,0-1.4-0.5-2-1.5S80,12.8,80,11.2
		c0-1.1,0.2-2.1,0.5-3s0.8-1.8,1.5-2.6l-1.9-0.8h3.1c-0.7,0.8-1.2,1.8-1.5,2.8s-0.5,2.3-0.5,3.8c0,1.6,0.1,2.8,0.4,3.6
		c0.3,0.8,0.7,1.1,1.3,1.1c0.5,0,1-0.5,1.4-1.3s0.7-2,0.7-3.2l0.1-6.7h2.1l-1.4,0.9v9.9L87.3,16.4z"/>
	<path class="st0" d="M92.4,11.9h1.3c-0.2,1.6-0.5,2.7-0.9,3.5c-0.4,0.8-1,1.2-1.8,1.2c-0.9,0-1.6-0.5-2.2-1.6S88,12.6,88,10.8
		c0-1.8,0.3-3.3,0.9-4.4c0.6-1.1,1.3-1.7,2.2-1.7c0.4,0,0.7,0.2,1,0.4c0.3,0.3,0.6,0.7,0.8,1.3l0.4-1.9v5.2c-0.2-1.4-0.6-2.6-1-3.3
		S91.5,5.2,91,5.2c-0.5,0-0.9,0.5-1.2,1.5s-0.4,2.4-0.4,4.3c0,1.8,0.1,3,0.4,3.9C90,15.6,90.4,16,91,16c0.5,0,0.8-0.3,1.1-0.8
		c0.2-0.5,0.3-1.5,0.3-2.9V11.9z"/>
	<path class="st0" d="M102.1,16.4h-2.5v-2c-0.3,0.7-0.6,1.3-0.9,1.6c-0.3,0.4-0.7,0.6-1.1,0.6c-0.9,0-1.6-0.5-2.1-1.6
		s-0.8-2.5-0.8-4.4c0-1.8,0.3-3.3,0.8-4.4s1.3-1.7,2.2-1.7c0.5,0,0.9,0.3,1.2,0.8s0.7,1.2,0.9,2.2l0.2-2.7h2l-1.4,0.8v9.9
		L102.1,16.4z M99.8,10.3c0-1.4-0.2-2.6-0.6-3.6c-0.4-1-0.9-1.5-1.4-1.5c-0.6,0-1,0.5-1.3,1.4C96.1,7.5,96,8.9,96,10.8
		c0,2,0.1,3.3,0.4,4.1c0.3,0.8,0.7,1.2,1.3,1.2s1.1-0.5,1.5-1.6C99.5,13.3,99.8,12,99.8,10.3z"/>
	<path class="st0" d="M108.9,12.1v4.1l-0.4-1.5c-0.3,0.7-0.6,1.1-0.9,1.4c-0.3,0.3-0.7,0.4-1.2,0.4c-0.8,0-1.3-0.3-1.7-1
		c-0.4-0.6-0.6-1.6-0.6-2.9c0-0.9,0-1.8,0.1-2.7s0.2-1.9,0.3-2.9h-1.1l-0.8,2V4.8l0.9,2h1.1c0.3-1.4,0.5-2.6,0.7-3.5
		c0.2-1,0.4-1.7,0.5-2.3l-1.5-0.8h3.9L106.3,1c-0.2,1.3-0.4,2.5-0.5,3.4s-0.2,1.7-0.3,2.3h1.8l0.9-2v4.4l-0.9-1.9h-1.9
		c-0.1,0.7-0.1,1.5-0.2,2.3c0,0.8-0.1,1.7-0.1,2.6c0,1.4,0.1,2.4,0.3,3c0.2,0.6,0.5,0.9,1,0.9c0.5,0,0.9-0.3,1.3-1
		C108.2,14.5,108.6,13.4,108.9,12.1z"/>
	<path class="st0" d="M109.5,16.4l1.7-0.9l-0.4-9.9l-1.9-0.8h5L112,5.6l-0.3,9.9l1.6,0.9H109.5z M109.8,2.9c0-0.2,0.2-0.3,0.4-0.5
		c0.3-0.1,0.7-0.2,1.1-0.2s0.8,0.1,1.1,0.2c0.3,0.1,0.4,0.3,0.4,0.5s-0.2,0.3-0.4,0.5s-0.7,0.2-1.1,0.2s-0.8-0.1-1.1-0.2
		C110,3.3,109.8,3.1,109.8,2.9z"/>
	<path class="st0" d="M117.3,4.6c0.8,0,1.4,0.6,2,1.7s0.8,2.5,0.8,4.3c0,1.8-0.3,3.3-0.8,4.4c-0.5,1.1-1.2,1.7-2,1.7
		c-0.8,0-1.5-0.6-2-1.7c-0.5-1.1-0.8-2.6-0.8-4.4c0-1.7,0.3-3.2,0.8-4.3C115.9,5.2,116.6,4.6,117.3,4.6z M117.3,5.1
		c-0.5,0-0.9,0.4-1.2,1.3c-0.3,0.9-0.4,2.2-0.4,3.9c0,1.9,0.1,3.3,0.4,4.3c0.3,1,0.7,1.5,1.2,1.5s0.9-0.5,1.2-1.5
		c0.3-1,0.4-2.4,0.4-4.3c0-1.7-0.1-3-0.4-3.9C118.3,5.6,117.8,5.1,117.3,5.1z"/>
	<path class="st0" d="M120.8,16.4l1.4-0.9v-10l-1.4-0.8h2.1l0.1,3c0.2-1,0.6-1.8,0.9-2.4s0.9-0.8,1.4-0.8c0.8,0,1.4,0.5,2,1.5
		s0.8,2.3,0.8,3.9c0,1.1-0.2,2.1-0.5,3s-0.8,1.8-1.5,2.5l1.9,0.8h-3.1c0.7-0.8,1.2-1.8,1.5-2.8c0.3-1,0.5-2.3,0.5-3.8
		c0-1.6-0.1-2.8-0.4-3.6c-0.3-0.8-0.7-1.2-1.3-1.2c-0.6,0-1.1,0.6-1.5,1.7s-0.7,2.5-0.7,4.1c0,0.9,0,1.8,0.1,2.7
		c0.1,0.9,0.2,1.9,0.4,2.8H120.8z"/>
</g>
</svg>
