<?xml version="1.0" encoding="utf-8"?>
<!-- Generator: Adobe Illustrator 24.3.0, SVG Export Plug-In . SVG Version: 6.00 Build 0)  -->
<svg version="1.1" id="Layer_1" xmlns="http://www.w3.org/2000/svg" xmlns:xlink="http://www.w3.org/1999/xlink" x="0px" y="0px"
	 viewBox="0 0 1670 1874" style="enable-background:new 0 0 1670 1874;" xml:space="preserve">
<style type="text/css">
	.st0{fill:#00FFFF;}
	.st1{fill:#FFFC8A;}
	.st2{fill:#00FF00;}
	.st3{fill:#A6FFF8;stroke:#FF0000;stroke-width:9;stroke-miterlimit:10;}
</style>
<g>
	<path class="st0" d="M0,58.07v723.86C0,814,26,840,58.07,840h1516.86c32.07,0,58.07-26,58.07-58.07V58.07C1633,26,1607,0,1574.93,0
		H58.07C26,0,0,26,0,58.07z M1562.93,782H75.07C43,782,17,756,17,723.93V140.07C17,108,43,82,75.07,82h1487.86
		c32.07,0,58.07,26,58.07,58.07v583.86C1621,756,1595,782,1562.93,782z"/>
</g>
<rect x="1616" y="82" class="st0" width="16" height="700"/>
<path class="st1" d="M1557.29,782H75.71C43.29,782,17,755.71,17,723.29V107.71C17,75.29,43.29,49,75.71,49h1481.57
	c32.43,0,58.71,26.29,58.71,58.71v615.57C1616,755.71,1589.71,782,1557.29,782z"/>
<path class="st2" d="M1616,107.5V140H17v-32.5C17,75.19,43.19,49,75.5,49h1482C1589.81,49,1616,75.19,1616,107.5z"/>
<path class="st3" d="M1564.64,1830.5H63.36c-31.4,0-56.86-25.46-56.86-56.86V927.36c0-31.4,25.46-56.86,56.86-56.86h1501.29
	c31.4,0,56.86,25.46,56.86,56.86v846.29C1621.5,1805.04,1596.04,1830.5,1564.64,1830.5z"/>
<path class="st1" d="M17,571.21C17,533.54,47.54,503,85.21,503h1462.57c37.67,0,68.21,30.54,68.21,68.21v160.57
	c0,37.67-30.54,68.21-68.21,68.21H85.21C47.54,800,17,769.46,17,731.79V571.21"/>
<g>
</g>
<g>
</g>
<g>
</g>
<g>
</g>
<g>
</g>
<g>
</g>
<g>
</g>
<g>
</g>
<g>
</g>
<g>
</g>
<g>
</g>
<g>
</g>
<g>
</g>
<g>
</g>
<g>
</g>
</svg>
