<svg xmlns="http://www.w3.org/2000/svg" viewBox="0 0 160.24 700"><defs><style>.cls-1{fill:#fffc85;}.cls-2{font-size:77.9px;}.cls-11,.cls-14,.cls-15,.cls-2,.cls-3,.cls-5,.cls-8{fill:red;font-family:BlackoakStd, Blackoak Std;}.cls-11,.cls-13,.cls-14,.cls-15,.cls-2,.cls-3,.cls-5,.cls-8{stroke:#000;stroke-miterlimit:10;}.cls-3{font-size:55.49px;letter-spacing:-0.1em;}.cls-4{letter-spacing:0em;}.cls-5{font-size:28.81px;}.cls-11,.cls-5{stroke-width:0.5px;}.cls-6{letter-spacing:-0.12em;}.cls-7{letter-spacing:0em;}.cls-11,.cls-8{font-size:43.75px;}.cls-9{letter-spacing:-0.09em;}.cls-10{letter-spacing:-0.3em;}.cls-12{letter-spacing:-0.02em;}.cls-13{fill:lime;}.cls-14{font-size:48.02px;}.cls-15{font-size:56.91px;}.cls-16{letter-spacing:-0.1em;}.cls-17{letter-spacing:0em;}.cls-18{letter-spacing:-0.03em;}.cls-19{letter-spacing:-0.07em;}</style></defs><g id="Layer_2" data-name="Layer 2"><g id="Layer_1-2" data-name="Layer 1"><rect class="cls-1" width="155" height="700"/><text class="cls-2" transform="translate(32.05 70.27) scale(0.31 1)">Get</text><text class="cls-3" transform="translate(20.79 134.6) scale(0.31 1)">Y<tspan class="cls-4" x="94.11" y="0">OUR</tspan></text><text class="cls-5" transform="translate(19.8 173.93) scale(0.31 1)">La<tspan class="cls-6" x="93.52" y="0">m</tspan><tspan class="cls-7" x="158.35" y="0">borgini</tspan></text><text class="cls-8" transform="translate(26.86 224.24) scale(0.31 1)">TO<tspan class="cls-9" x="157.67" y="0">D</tspan><tspan class="cls-10" x="234.98" y="0">A</tspan><tspan x="302.62" y="0">Y</tspan></text><text class="cls-8" transform="translate(43.57 282.01) scale(0.31 1)">AND</text><text class="cls-8" transform="translate(64.86 406.71) scale(0.31 1)">A</text><text class="cls-11" transform="translate(14.57 456.56) scale(0.31 1)">Assu<tspan class="cls-12" x="255.59" y="0">r</tspan><tspan x="305.33" y="0">ed</tspan></text><polygon class="cls-13" points="159.18 556.98 107.49 572.1 89.86 626.1 60.41 578.32 6.83 577.11 40.32 532.46 24.84 477.71 74.98 497.9 119 465.27 116.5 522.4 159.18 556.98"/><text class="cls-14" transform="translate(36.59 566.77) scale(0.31 1)">100%</text><text class="cls-15" transform="translate(13.57 676.81) scale(0.17 1)"><tspan class="cls-16">C</tspan><tspan class="cls-17" x="84.23" y="0">ASH</tspan><tspan class="cls-18" x="394.97" y="0">B</tspan><tspan class="cls-19" x="498.15" y="0">A</tspan><tspan x="599.22" y="0">CK</tspan></text><text class="cls-2" transform="translate(26.39 358.48) scale(0.31 1)">Get</text></g></g></svg>