<svg xmlns="http://www.w3.org/2000/svg" viewBox="0 0 1020 900"><defs><style>.cls-1{fill:#bbfffd;}.cls-2{fill:#fffcbb;opacity:0.44;}.cls-3{font-size:50.79px;font-family:OldEnglishTextMT, Old English Text MT;opacity:0.21;}</style></defs><g id="Layer_2" data-name="Layer 2"><g id="Layer_1-2" data-name="Layer 1"><rect class="cls-1" width="1020" height="900" rx="108.14"/><path class="cls-2" d="M868.07,457.7l-89.55,93.21c-17.29,18-25.12,43.86-20.93,69.16l21.7,131c10.55,63.7-52.42,112.57-106.55,82.69L561.4,772.33a70,70,0,0,0-68.54.28L382,835c-53.91,30.32-117.23-18-107.15-81.82L295.58,622c4-25.33-4-51.12-21.43-69l-90.23-92.48c-43.87-45-20-123.71,40.33-133.26L348.4,307.6c24-3.79,44.65-19.84,55.29-42.92l55.13-119.5c26.8-58.11,104.84-58.43,132.07-.54l56,119.05c10.81,23,31.6,38.87,55.6,42.46l124.29,18.62C887.21,333.82,911.61,412.38,868.07,457.7Z"/><text class="cls-3" transform="translate(421.1 481.7) scale(0.94 1)">SUBHAM</text></g></g></svg>