<?xml version="1.0" encoding="utf-8"?>
<!-- Generator: Adobe Illustrator 24.3.0, SVG Export Plug-In . SVG Version: 6.00 Build 0)  -->
<svg version="1.1" id="Layer_1" xmlns="http://www.w3.org/2000/svg" xmlns:xlink="http://www.w3.org/1999/xlink" x="0px" y="0px"
	 viewBox="0 0 1366 1048" style="enable-background:new 0 0 1366 1048;" xml:space="preserve">
<style type="text/css">
	.st0{fill:#E0DFD3;}
	.st1{fill:#F3FF00;}
	.st2{fill:#FFFC85;}
	.st3{fill:#BBFFFD;}
	.st4{opacity:0.44;fill:#FFFCBB;enable-background:new    ;}
	.st5{fill:none;}
	.st6{opacity:0.21;enable-background:new    ;}
	.st7{fill:#FF0000;stroke:#000000;stroke-miterlimit:10;}
	.st8{fill:#FF0000;stroke:#000000;stroke-width:0.5;stroke-miterlimit:10;}
	.st9{fill:#00FF00;stroke:#000000;stroke-miterlimit:10;}
</style>
<g>
	<rect y="-2" class="st0" width="1366" height="1058"/>
</g>
<g>
	
		<image style="overflow:visible;opacity:0.75;enable-background:new    ;" width="168" height="170" xlink:href="4B8E9847.png"  transform="matrix(1 0 0 1 -5 128)">
	</image>
	<g>
		<polygon class="st1" points="130.6,259.2 83.7,245.2 45.6,276 44.4,227.1 3.4,200.4 49.5,184.1 62.2,136.8 92,175.7 140.8,173.2 
			113.1,213.5 		"/>
	</g>
</g>
<g>
	<path d="M52.9,206.3c0,0.3,0.2,0.3,0.4,0.3c0.3,0,0.5-0.1,0.4-0.3l-0.1-0.9l0.4-0.1l0.7,2.2c-0.6,0.1-1.2,0.4-1.5,0.7
		c-0.2-0.1-0.6-0.1-1-0.1s-0.9,0.1-1.4,0.1c-0.9,0.1-1.8,0.3-2.2,0.6c-0.4-0.2-1.4-0.3-2.1-0.2l0.3-2.3l0.4-0.1l0.1,0.8
		c0,0.3,0.2,0.3,0.5,0.3s0.4-0.2,0.4-0.5l-0.8-5.7c-0.2-1.2-0.6-1.5-1-1.6c0.3-0.2,0.7-0.4,0.6-0.6c0-0.2-0.3-0.4-0.7-0.5
		c0.5-0.4,0.6-1,0.5-1.9l-0.8-5.7c0-0.2-0.2-0.3-0.5-0.3s-0.4,0.2-0.4,0.5l0.1,0.7h-0.3l-0.8-2.1c0.8-0.1,1.6-0.5,1.8-0.8
		c0.2,0.1,0.6,0.1,1,0.1s0.8-0.1,1.2-0.1c0.6-0.1,1.4-0.2,2.2-0.4c0.7-0.2,1.5-0.3,2.3-0.5c4.3-0.6,6.4,0.6,6.5,1.5l0.8,5.7
		c0.3,2-2.8,3-5.7,3.4c-2.1,0.3-2.2,1-2,2.6L52.9,206.3z M51.6,196.5c0.1,0.7,0.6,1,1.9,0.8c1.2-0.2,1.8-0.6,1.7-1.3l-0.8-6
		c-0.1-0.8-0.8-1-2-0.8s-1.6,0.5-1.5,1.3L51.6,196.5z"/>
	<path d="M67.5,193.8c0.2,1.1,0.8,1.5,1.4,1.6c-0.6,0.2-0.8,0.5-0.7,0.7c0,0.2,0.4,0.4,0.9,0.4c-0.4,0.2-1.1,0.8-0.8,2.7l0.6,4.5
		c0.1,0.7,0.4,1,1.9,0.8c1.4-0.2,1.9-0.6,1.8-1.3l-0.8-5.6c-0.1-0.5-0.6-1.1-1.1-1.3c0.3-0.2,0.6-0.4,0.6-0.6c0-0.2-0.3-0.4-0.8-0.5
		c0.5-0.3,0.8-0.9,0.7-2l-0.8-5.5c0-0.3-0.2-0.4-0.5-0.4c-0.2,0-0.5,0.1-0.4,0.4l0.1,0.7l-0.5,0.1l-0.6-2.3c0.5-0.1,1.1-0.3,1.3-0.6
		c0.2,0.1,0.5,0.1,0.8,0.1s0.6,0,0.9-0.1c0.7-0.1,1.5-0.2,1.9-0.5c0.3,0.2,1,0.4,1.7,0.3l-0.3,2.5l-0.5,0.1l-0.1-0.8
		c0-0.3-0.1-0.4-0.3-0.3c-0.2,0-0.3,0.1-0.3,0.4l0.8,6c0.1,0.8,0.5,1.2,1.2,1.4c-0.5,0.2-0.6,0.5-0.6,0.7s0.4,0.3,0.9,0.4
		c-0.6,0.3-1,1.1-0.8,2.1l0.6,4.7c0.2,1.8-2.3,3-3.7,3.2c-0.2-0.1-0.4-0.1-0.8-0.1c-0.3,0-0.8,0-1.4,0.1c-1.2,0.2-1.6,0.3-1.8,0.5
		c-0.7,0.1-4-0.1-4.2-1.8l-0.7-5.5c-0.1-1.1-0.7-1.4-1.1-1.6c0.3-0.2,0.5-0.4,0.5-0.6c0-0.2-0.2-0.4-0.7-0.5
		c0.5-0.3,0.9-0.6,0.7-1.8l-0.8-5.8c0-0.3-0.3-0.3-0.5-0.3s-0.3,0.1-0.3,0.3l0.1,0.8l-0.5,0.1l-1.1-2.1c0.8-0.1,1.6-0.5,2-0.8
		c0.3,0.1,0.7,0.1,1.1,0.1c0.4,0,0.9-0.1,1.3-0.1c0.9-0.1,1.9-0.3,2.4-0.6c0.3,0.2,1,0.3,1.7,0.2l-0.2,2.4l-0.5,0.1l-0.1-0.8
		c0-0.2-0.2-0.2-0.4-0.2c-0.2,0-0.4,0.2-0.3,0.6L67.5,193.8z"/>
	<path d="M83.7,196.1c-0.1-1.1-0.7-1.5-1.1-1.7c0.4-0.2,0.7-0.4,0.6-0.6c0-0.2-0.3-0.4-0.8-0.5c0.4-0.3,0.7-0.6,0.6-1.9l-0.8-5.7
		c0-0.4-0.1-0.5-0.4-0.4s-0.3,0.2-0.3,0.5l0.1,0.7l-0.5,0.1l-0.9-2.1c0.6-0.1,1.6-0.4,1.8-0.6c0.2,0,0.6,0.1,1.1,0
		c0.4,0,0.9,0,1.3-0.1c0.8-0.1,1.9-0.4,2.3-0.6c0.3,0.2,1.1,0.3,1.8,0.2l-0.2,2.2l-0.5,0.1l-0.1-0.7c0-0.3-0.2-0.5-0.4-0.4
		c-0.3,0-0.5,0.1-0.4,0.6l0.7,5.5c0.2,1.3,0.6,1.6,1.1,1.8c-0.4,0.2-0.5,0.4-0.5,0.6c0,0.2,0.3,0.4,0.6,0.4
		c-0.4,0.2-0.7,0.9-0.6,1.9l0.7,5.3c0.3,1.9-2.8,2.9-5.1,3.2c-3.1,0.4-5.5,0-5.7-1.6l-0.3-2.3c-0.1-0.8-0.3-1.1-0.6-1.2
		c1.3-0.6,1.8-0.9,1.6-2.4l0.5-0.1c0.2,1.7,0.6,1.8,2.1,1.9c-0.4,0.3-0.5,0.6-0.4,1.4l0.3,2.2c0.1,0.9,0.5,1.2,1.6,1
		c1.2-0.2,1.4-0.5,1.3-1.4L83.7,196.1z"/>
	<path d="M96.1,200.5c0,0.2,0.2,0.3,0.4,0.3s0.4-0.2,0.4-0.4v-0.9l0.4-0.1l0.3,2.3c-0.5,0.1-1.1,0.3-1.3,0.6
		c-0.2-0.1-0.5-0.1-0.9-0.1s-0.7,0-1,0.1c-0.6,0.1-1.1,0.2-1.6,0.5c-0.2-0.2-1-0.3-1.4-0.3l0.1-2.2l0.4-0.1L92,201
		c0,0.2,0.2,0.3,0.5,0.2c0.3,0,0.4-0.2,0.4-0.3l0.1-5.8c0.1-1.4-0.5-1.7-0.9-2c0.3-0.1,0.6-0.4,0.6-0.6c0-0.2-0.3-0.4-0.7-0.5
		c0.6-0.4,1.1-0.8,1.2-2.6l0.4-6.8c0.5-0.1,0.8-0.3,0.9-0.6c0.2,0.1,0.6,0.1,1,0.1c0.5,0,1-0.1,1.3-0.1c0.8-0.1,1.8-0.4,2.2-0.6
		c0.2,0.2,0.6,0.3,1,0.3l2.1,6.4c0.6,2,1.2,2,1.9,2.1c-0.5,0.2-0.7,0.5-0.7,0.6c0,0.2,0.3,0.4,0.8,0.4c-0.4,0.3-0.7,1-0.4,2.1
		l1.7,5.5c0,0.2,0.2,0.3,0.5,0.3c0.2,0,0.4-0.2,0.4-0.4l-0.1-0.8l0.5-0.1l0.8,2.1c-0.5,0.1-1.1,0.4-1.1,0.6
		c-0.2-0.1-0.7-0.1-1.1-0.1c-0.5,0-0.9,0.1-1.3,0.1c-0.8,0.1-1.8,0.3-2.3,0.6c-0.2-0.2-1.2-0.3-1.7-0.2l-0.4-2.1l0.4-0.1l0.3,0.8
		c0.1,0.1,0.2,0.2,0.4,0.2c0.2,0,0.3-0.2,0.2-0.4l-0.8-2.6c-0.2-0.2-0.5-0.5-1.2-0.4l-1.8,0.3c-0.6,0.1-0.9,0.4-0.8,0.7L96.1,200.5z
		 M96.5,190.2c0.1,0.5,0.4,1.1,0.7,1.3c-0.3,0.2-0.5,0.4-0.4,0.6c0,0.2,0.2,0.4,0.5,0.5c-0.4,0.3-0.9,1.2-0.9,1.9s0.4,0.8,1.3,0.7
		c1-0.1,1.4-0.4,1.1-1.1c-0.2-0.7-0.9-1.3-1.3-1.6c0.3-0.2,0.5-0.4,0.4-0.6c0-0.2-0.2-0.4-0.6-0.5c0.3-0.2,0.2-1.1,0.2-1.4l-0.6-2.5
		c0-0.3-0.2-0.3-0.3-0.3s-0.2,0.1-0.2,0.4L96.5,190.2z"/>
	<path d="M54.6,236.9c0.2,1.4,1,1.6,2,1.4c1.6-0.2,2.1-0.8,1.9-1.7c-0.3-2.1-2-3.9-3.5-5.1c-0.9-0.7-1.5-0.9-2.1-0.9
		c0.3-0.2,0.2-0.6,0.1-0.7c-0.3-0.2-0.7-0.3-1.3-0.3c0.2-0.4,0.2-0.9-0.5-1.6c-0.8-0.8-2.3-2.8-2.6-4.8c-0.2-1.6,1.3-3.2,5.2-3.7
		c0.7-0.1,1.2-0.1,1.8-0.1c0.5,0,1.1,0,1.6-0.1s1-0.3,1.2-0.4c0.3,0.3,1.1,0.4,1.7,0.3c-0.3,0.2-0.3,0.9-0.3,1.5l0.3,2.2
		c0.1,0.9,0.4,1.3,0.9,1.5c-1.4,0.5-1.8,0.9-1.6,2.4l-0.5,0.1c-0.2-1.6-0.7-1.8-2.2-1.9c0.4-0.4,0.5-0.7,0.4-1.7l-0.2-1.4
		c-0.1-0.9-1.1-1.2-2.4-1c-1.2,0.2-1.6,0.7-1.5,1.4c0.1,1,1.1,2.8,1.6,3.4c1,1.2,2.8,2.8,4.4,2.9c-0.4,0.2-0.5,0.6-0.3,0.7
		c0.2,0.2,0.7,0.2,1.2,0.1c-0.3,0.4-0.4,1,0.6,2c0.8,0.8,2.1,2.6,2.3,4c0.2,1.6-1.3,3.6-5.5,4.2c-0.9,0.1-1.6,0.2-2.2,0.2
		c-0.6,0-1.1,0-1.6,0.1s-0.7,0.2-1.1,0.4c-0.4-0.2-0.9-0.4-1.7-0.3c0.3-0.3,0.5-0.6,0.4-1.5l-0.4-2.8c-0.1-0.7-0.4-1.2-0.8-1.3
		c1.5-0.4,2-0.8,1.8-2.3l0.4-0.1c0.2,1.5,0.9,1.7,2.2,1.7c-0.3,0.2-0.3,0.7-0.2,1.5L54.6,236.9z"/>
	<path d="M67.7,236.3c0,0.2,0.2,0.3,0.4,0.3c0.2,0,0.4-0.2,0.4-0.4v-0.9l0.4-0.1l0.3,2.3c-0.5,0.1-1.1,0.3-1.3,0.6
		c-0.2-0.1-0.5-0.1-0.9-0.1c-0.3,0-0.7,0-1,0.1c-0.6,0.1-1.1,0.2-1.6,0.5c-0.2-0.2-1-0.3-1.4-0.3l0.1-2.2l0.4-0.1l0.1,0.8
		c0,0.2,0.2,0.3,0.5,0.2c0.3,0,0.4-0.2,0.4-0.3l0.1-5.8c0.1-1.4-0.5-1.7-0.9-2c0.3-0.1,0.6-0.4,0.6-0.6c0-0.2-0.3-0.4-0.7-0.5
		c0.6-0.4,1.1-0.8,1.2-2.6l0.4-6.8c0.5-0.1,0.8-0.3,0.9-0.6c0.2,0.1,0.6,0.1,1,0c0.5,0,1-0.1,1.3-0.1c0.8-0.1,1.8-0.4,2.2-0.6
		c0.2,0.2,0.6,0.3,1,0.3l2.1,6.4c0.6,2,1.2,2,1.9,2.1c-0.5,0.2-0.7,0.5-0.7,0.6c0,0.2,0.3,0.4,0.8,0.4c-0.4,0.3-0.7,1-0.4,2.1
		l1.7,5.5c0,0.2,0.2,0.3,0.5,0.3c0.2,0,0.4-0.2,0.4-0.4l-0.1-0.8l0.5-0.1l0.8,2.1c-0.5,0.1-1.1,0.4-1.1,0.6
		c-0.2-0.1-0.7-0.1-1.1-0.1c-0.5,0-0.9,0.1-1.3,0.1c-0.8,0.1-1.8,0.3-2.3,0.6c-0.2-0.2-1.2-0.3-1.7-0.2l-0.4-2.1l0.4-0.1l0.3,0.8
		c0.1,0.1,0.2,0.2,0.4,0.2c0.2,0,0.3-0.2,0.2-0.4l-0.8-2.6c-0.2-0.2-0.5-0.5-1.2-0.4l-1.8,0.3c-0.6,0.1-0.9,0.4-0.8,0.7L67.7,236.3z
		 M68.1,225.9c0.1,0.5,0.4,1.1,0.7,1.3c-0.3,0.2-0.5,0.4-0.4,0.6c0,0.2,0.2,0.4,0.5,0.5c-0.4,0.3-0.9,1.2-0.9,1.9s0.4,0.8,1.3,0.7
		c1-0.1,1.4-0.4,1.1-1.1c-0.2-0.7-0.9-1.3-1.3-1.6c0.3-0.2,0.5-0.4,0.4-0.6c0-0.2-0.2-0.4-0.6-0.5c0.3-0.2,0.2-1.1,0.2-1.4l-0.6-2.5
		c0-0.3-0.2-0.4-0.3-0.3S68,223,68,223.3L68.1,225.9z"/>
	<path d="M78.8,218.2c0-0.4-0.2-0.4-0.5-0.4c-0.2,0-0.3,0.2-0.3,0.5l0.1,0.6l-0.4,0.1l-0.6-2.1c0.6-0.1,1.5-0.4,1.7-0.7
		c0.2,0,0.5,0.1,1,0c0.4,0,0.9,0,1.4-0.1c1-0.1,1.9-0.4,2.2-0.6c0.3,0.2,1.2,0.3,1.9,0.2l-0.3,2.2l-0.4,0.1l-0.1-0.7
		c-0.1-0.2-0.2-0.3-0.6-0.2c-0.3,0-0.4,0.2-0.4,0.5l0.7,5.1c0.2,1.4,0.4,1.8,1.1,2c-0.4,0.2-0.6,0.4-0.6,0.6c0,0.2,0.3,0.4,0.8,0.4
		c-0.6,0.4-0.8,0.9-0.6,2.1l0.7,5.2c0.1,0.7,0.3,1.1,1.9,0.9c1.6-0.2,1.8-0.7,1.7-1.4l-0.2-1.3c-0.2-1.1-0.5-1.6-0.8-1.8
		c1.5-0.5,1.7-0.8,1.5-2.4l0.4-0.1c0.2,1.5,0.7,1.8,2.3,1.9c-0.4,0.3-0.5,0.8-0.4,1.9l0.2,1.5c0.2,1.2,0.4,1.5,0.8,1.8
		c-0.7,0.1-1.4,0.4-1.7,0.7c-0.2,0-0.5,0-0.7,0c-0.3,0-0.5,0-0.8,0s-0.7,0.1-1.1,0.2c-0.4,0.1-0.8,0.2-1.2,0.3
		c-0.8,0.1-1.5,0.2-2.2,0.2c-0.8,0-1.5,0-2.4,0.2c-0.7,0.1-1.1,0.2-1.6,0.5c-0.3-0.2-1.2-0.4-2-0.3l0.2-2.2l0.5-0.1l0.1,0.8
		c0,0.2,0.1,0.3,0.4,0.2c0.3,0,0.4-0.2,0.4-0.4l-0.8-5.8c-0.2-1.2-0.8-1.7-1.4-1.8c0.3-0.1,0.4-0.2,0.5-0.3s0.1-0.2,0.1-0.3
		c0-0.2-0.3-0.4-0.8-0.5c0.7-0.4,0.9-1.3,0.8-2.2L78.8,218.2z"/>
	<path d="M99.8,231.7c0.1,0.6,0.6,0.7,1.8,0.6c1.1-0.1,1.4-0.4,1.3-1.5l-0.3-1.9c-0.1-0.6-0.2-1.1-0.6-1.4c1.5-0.5,1.9-0.8,1.7-2.4
		l0.4-0.1c0.2,1.7,0.7,1.8,2.3,1.9c-0.4,0.3-0.5,0.8-0.4,1.5l0.3,2.3c0.2,1.3,0.3,1.4,0.7,1.6c-0.5,0.1-1.3,0.5-1.5,0.7
		c-0.3,0-0.5,0-0.8,0s-0.6,0-0.9,0.1c-0.7,0.1-1.2,0.2-1.6,0.4c-0.5,0.1-0.9,0.3-1.8,0.4c-0.7,0.1-1.3,0.1-1.9,0.1s-1.3,0.1-2,0.2
		c-0.5,0.1-1,0.2-1.4,0.5c-0.3-0.2-1.2-0.3-1.8-0.3l0.2-2.4l0.5-0.1l0.1,0.8c0,0.3,0.1,0.4,0.4,0.4s0.4-0.2,0.4-0.4l-0.7-5
		c-0.2-1.7-0.9-2.2-1.4-2.4c0.4-0.2,0.6-0.4,0.6-0.6c0-0.2-0.3-0.3-0.8-0.4c0.5-0.3,0.9-1,0.8-2.2l-0.7-5.4c0-0.2-0.1-0.3-0.3-0.2
		c-0.3,0-0.4,0.1-0.4,0.3l0.1,0.9l-0.5,0.1l-0.8-2.2c0.7-0.1,1.4-0.4,1.7-0.7c0.2,0,0.5,0.1,0.9,0.1s0.9,0,1.4-0.1
		c0.9-0.1,1.5-0.3,2.1-0.4c0.5-0.1,0.9-0.2,1.3-0.3c0.7-0.1,1.2-0.1,1.6-0.1c0.5,0,0.9,0,1.6-0.1c0.4-0.1,1-0.3,1.3-0.4
		c0.2,0.2,1,0.3,1.6,0.3c-0.3,0.2-0.5,0.6-0.3,1.3l0.3,2.5c0.1,0.7,0.2,1.1,0.6,1.4c-1.6,0.5-1.8,0.9-1.6,2.4l-0.5,0.1
		c-0.2-1.4-0.7-1.8-2.3-1.9c0.4-0.3,0.5-0.7,0.4-1.5l-0.2-1.6c-0.1-0.9-0.6-1.2-1.7-1.1c-1,0.1-1.5,0.5-1.4,1.5l0.7,5.2
		c0.2,1.1,0.6,1.2,1.2,1.1c0.4-0.1,0.7-0.3,0.6-0.5c0-0.2-0.2-0.3-0.3-0.4c-0.1-0.1-0.3-0.3-0.3-0.5c-0.1-0.4,0.9-0.9,1.4-0.9
		c-0.2,0.2-0.2,0.3-0.2,0.4c0,0.2,0.3,0.3,0.9,0.5c0.3,0.1,0.8,0.3,0.8,0.6s-0.2,0.6-0.8,0.9l1.3,0.3l-1.3,0.6
		c0.6,0.1,1,0.3,1.1,0.7c0,0.3-0.2,0.6-0.6,0.8c-0.7,0.4-1,0.6-1,0.8s0.2,0.3,0.4,0.4c-0.7,0.1-1.5,0-1.5-0.5c0-0.3,0.1-0.5,0.3-0.7
		c0.2-0.2,0.2-0.3,0.2-0.5s-0.5-0.3-0.9-0.3c-0.9,0.1-0.9,0.5-0.7,1.9L99.8,231.7z"/>
</g>
<rect x="1211" y="279" class="st2" width="155" height="656"/>
<path class="st3" d="M1102.9,1040H255.1c-59.7,0-108.1-48.4-108.1-108.1V262.1c0-59.7,48.4-108.1,108.1-108.1h847.7
	c59.7,0,108.1,48.4,108.1,108.1v669.7C1211,991.6,1162.6,1040,1102.9,1040z"/>
<path class="st4" d="M1052.5,604.6l-93.4,91.8c-18,17.7-26.2,43.2-21.8,68.1l22.6,129c11,62.7-54.7,110.8-111.1,81.4l-116.1-60.5
	c-22.4-11.7-49.2-11.6-71.5,0.3L545.5,976c-56.2,29.8-122.3-17.8-111.8-80.6l21.6-129.1c4.2-24.9-4.2-50.3-22.4-67.9l-94.1-91
	c-45.8-44.3-20.9-121.8,42.1-131.2l129.5-19.3c25-3.7,46.6-19.5,57.7-42.2l57.5-117.6c28-57.2,109.4-57.5,137.8-0.5l58.4,117.2
	c11.3,22.6,33,38.3,58,41.8l129.7,18.3C1072.5,482.6,1097.9,560,1052.5,604.6z"/>
<g>
	<rect x="548.3" y="593.9" class="st5" width="331.7" height="131.1"/>
	<path class="st6" d="M602,591.7l11,3.7l0.8-1.4c0.3-0.5,0.5-0.8,0.6-1c0.1-0.1,0.3-0.2,0.4-0.2c0.2,0,0.3,0.1,0.4,0.2
		c0.1,0.1,0.2,0.2,0.2,0.4s-0.2,0.7-0.6,1.4l-5.3,9l4.2-0.3c1.3,0,2.7,0.1,4.4,0.5s3.1,1,4.3,1.9s2.2,1.9,2.9,3c0.7,1.2,1,2.4,1,3.8
		c0,2.6-1.1,5.1-3.2,7.6c-2.2,2.5-6,5.1-11.5,7.8c-1.9-0.7-4.2-1.5-6.8-2.3c-4.6,2.1-8.3,3.1-11.3,3.1c-2.1,0-3.7-0.5-4.8-1.4
		s-1.7-2-1.7-3.2c0-1.3,0.7-2.5,2.1-3.5c1.4-1.1,3.4-1.6,6.1-1.6c1.1,0,2.4,0.1,3.9,0.4l2-3.5l-3.6,0.3c-0.8,0-2-0.1-3.4-0.4
		c-1.4-0.3-2.6-0.7-3.5-1.2c-0.9-0.6-1.6-1.3-2.1-2.1s-0.7-1.7-0.7-2.6c0-1.4,0.5-2.7,1.5-3.9c0.7-0.7,1.7-1.4,3.2-1.9V604
		c0-1.5,0.7-3.3,2-5.2C595.9,597,598.4,594.6,602,591.7z M603.2,625.4c-4-1.4-7.4-2-10-2c-1.3,0-2.4,0.3-3.2,0.9
		c-0.5,0.4-0.8,0.9-0.8,1.4c0,0.6,0.3,1.1,0.8,1.4c0.8,0.6,2.1,0.9,3.7,0.9C596.2,628,599.4,627.1,603.2,625.4z M605.7,608.3
		c-2.1,0.3-4.2,0.5-6.2,0.5c-2.2,0-3.8-0.3-4.7-0.8s-1.6-1.3-2.1-2.4c-1.2,0.7-1.8,1.7-1.8,2.8c0,1,0.5,1.8,1.4,2.5
		c1.2,0.8,3.3,1.3,6.2,1.3c1.4,0,3.1-0.1,5.2-0.4L605.7,608.3z M610.8,599.3c-2.6-1.3-4.5-2.1-6-2.5c-1.4-0.4-2.7-0.6-3.8-0.6
		c-1.5,0-2.8,0.4-3.7,1.3c-1,0.9-1.4,1.9-1.4,3s0.4,2.1,1.2,2.8s2.1,1.1,3.7,1.1c1.1,0,3.5-0.2,7.4-0.5L610.8,599.3z M600.2,620
		c1.5,0.3,2.8,0.6,3.8,0.9c1,0.3,2.7,0.9,5.2,1.7c3.9-1.8,5.9-3.5,5.9-5.2c0-0.5-0.2-1-0.7-1.4s-1-0.6-1.8-0.6
		c-0.9,0-1.9,0.1-3.2,0.2c-3.5,0.4-5.9,0.6-7,0.6L600.2,620z M605,611.6c3.9-0.4,6.6-0.6,8.1-0.6c2.1,0,3.6,0.5,4.7,1.4
		s1.6,2.1,1.6,3.4c0,1.1-0.5,2.2-1.6,3.3s-3.4,2.4-6.9,4l5,1.3c2.1-1.3,3.8-2.7,4.9-4.3c1.2-1.5,1.7-3.2,1.7-5.1
		c0-1.2-0.4-2.4-1.1-3.6c-0.7-1.2-1.8-2.1-3.3-2.8s-3.2-1-5.2-1c-1.6,0-3.6,0.2-6.1,0.5L605,611.6z"/>
	<path class="st6" d="M668.1,592.5l0.8,0.7c-1.4,1.7-2.3,3-2.6,3.8s-0.5,2-0.5,3.5v17.4c0,2.4,0.2,3.9,0.6,4.6s0.9,1,1.4,1
		c0.4,0,0.9-0.2,1.3-0.7l0.4,1.4l-5.2,4.1c-1.4-0.9-2.4-1.7-2.8-2.6c-0.5-0.8-0.8-2.2-0.9-4.2c-2.6,2.5-5,4.2-7.3,5.2
		s-4.8,1.5-7.5,1.5c-5,0-8.8-1.8-11.4-5.4c-2-2.7-3-5.7-3-9.3c0-2.6,0.6-5,1.7-7.3c1.1-2.3,2.9-4.4,5.1-6.5c1.6-1.4,3.7-2.9,6.3-4.5
		c-2.1,0.5-3.6,0.8-4.6,0.8c-0.7,0-1.6,0-2.5-0.1s-1.7-0.1-2.3-0.1c-1.4,0-2.4,0.4-3.2,1.2s-1.2,2-1.2,3.4c0,0.5,0,1.2,0.1,2h-1
		c-0.2-1.2-0.3-2.1-0.3-2.8c0-2.6,0.7-4.6,2-6.2c1.4-1.5,2.9-2.3,4.8-2.3c0.5,0,1,0,1.5,0.1c0.3,0.1,1.3,0.4,2.9,1
		c1.7,0.6,3.1,0.9,4.5,0.9c1.2,0,2.3-0.2,3.3-0.7c0.5-0.2,1.2-0.7,1.9-1.4h1.1v13.7c1.7,0.9,3.3,1.4,4.7,1.4c0.8,0,1.5-0.1,2.1-0.3
		s1.4-0.5,2.3-1.1v-7.1l-2.7-2l-2.8,3.1l-0.8-0.8l5.9-6.6l5.2,3.7L668.1,592.5z M640.4,621.6c1.1-1.2,1.8-2.2,2.1-3.2
		s0.5-2.8,0.5-5.4v-7.3c0-1.9,0.1-3.1,0.2-3.7c0.1-0.6,0.4-1.2,0.8-2c0.7-1.3,2-2.9,3.8-5c-2.6,1.5-4.7,2.9-6.2,4.3
		s-2.8,3.1-3.8,5.2c-1,2.1-1.5,4.4-1.5,7c0,2.3,0.4,4.3,1.3,6.2C638.2,619,639.1,620.3,640.4,621.6z M650.5,593.6
		c-1,1.1-1.7,2.1-2,2.9c-0.3,0.9-0.4,2.6-0.4,5.1V613c0,1.2-0.1,2.2-0.3,2.8c-0.2,0.8-0.7,1.5-1.3,2.3c-0.9,1.1-2.6,2.5-5.1,4.3
		c1.2,0.8,2.3,1.4,3.3,1.7s2.2,0.5,3.6,0.5c0.7,0,1.4-0.1,2.1-0.2v-30.8H650.5z M660.7,606.2c-1,0.5-1.8,0.8-2.4,1
		c-0.6,0.2-1.3,0.2-2.1,0.2c-1.4,0-3-0.4-4.6-1.2v5.7c1.7-0.7,3.3-1.1,4.7-1.1c1.3,0,2.8,0.4,4.4,1.1L660.7,606.2L660.7,606.2z
		 M660.7,613.1c-1.6-0.8-3.1-1.2-4.4-1.2c-0.8,0-1.5,0.1-2.2,0.3s-1.5,0.5-2.5,1.1v10.9c1.6-0.3,3.1-0.8,4.4-1.5
		c1.3-0.6,2.9-1.6,4.6-2.9v-6.7H660.7z"/>
	<path class="st6" d="M703.5,591.2c1.7,0.5,3,1.1,3.8,2c1.2,1.2,1.8,2.7,1.8,4.3c0,1.3-0.5,2.7-1.4,4.1s-2.7,3.1-5.3,5
		c2.2,0.2,3.8,0.6,4.8,1.1s1.7,1.2,2.1,2c0.4,0.8,0.6,2.2,0.6,4.1v8.4c-5.8,0.7-10.7,2.7-14.8,6.1c-1.4-1-2.8-1.7-4-2.1
		c-2.1-0.7-4.3-1-6.6-1c-2.9,0-5.2,0.6-6.9,1.8c-1.2,0.8-1.8,1.6-1.8,2.3c0,0.3,0.2,0.7,0.5,1.3s0.5,1,0.5,1.4
		c0,0.3-0.1,0.6-0.4,0.9s-0.5,0.4-0.8,0.4c-0.5,0-0.9-0.2-1.2-0.6c-0.4-0.4-0.5-1-0.5-1.7c0-0.6,0.2-1.4,0.7-2.2
		c0.4-0.8,1.4-2,2.9-3.5s2.4-2.6,2.9-3.3c0.4-0.7,0.6-1.4,0.6-2c0-0.7-0.2-1.3-0.7-1.8s-1.1-0.7-1.8-0.7s-1.2,0.2-1.6,0.6
		c-0.4,0.4-0.7,1-0.9,1.9h-0.9c0-0.3,0-0.5,0-0.7c0-1.4,0.5-2.5,1.4-3.4s2.1-1.3,3.7-1.3c0.2,0,0.5,0,0.8,0c0-1.6-0.3-2.8-0.7-3.5
		c-0.7-1.2-1.8-1.7-3.3-1.7c-0.9,0-1.7,0.2-2.4,0.7c-0.4,0.2-0.7,0.7-1.1,1.5l-0.9-0.3c0.2-1.6,0.8-2.8,1.8-3.7s2.4-1.4,4-1.4
		c0.6,0,1.4,0,2.2,0.1c0.1-2.3,0.3-4,0.6-5c0.4-1,1-2,1.8-2.9s2.4-2.1,4.8-3.6c-2.2,0.7-4.1,1.1-5.7,1.1c-1,0-2.3-0.2-3.9-0.6
		c-0.9-0.2-1.6-0.3-2-0.3c-0.7,0-1.4,0.2-1.9,0.7s-0.8,1.4-1,2.6h-0.9c0-1.5,0.3-2.7,0.8-3.7s1.3-1.8,2.3-2.4c1-0.6,2.1-0.9,3.2-0.9
		c0.8,0,2.3,0.2,4.2,0.7s3.6,0.7,4.8,0.7c0.9,0,1.8-0.1,2.6-0.3s1.9-0.6,3.3-1.2l0.5,1.1c-3.5,1.7-5.9,3.4-7,5
		c-1.2,1.6-1.8,3.8-1.8,6.5v10c0,2.2-0.2,3.9-0.7,5.1s-1.5,2.6-3,4.2c2.9-1.2,4.8-2.5,5.8-3.9s1.5-3.5,1.5-6.2v-7.2
		c0-3.4,0.3-5.7,0.9-7.1c0.6-1.4,1.7-2.6,3.2-3.5C694.8,594.2,698.2,592.9,703.5,591.2z M699.3,593.6c-1.8,0.8-3,1.5-3.6,2
		c-0.6,0.6-1,1.2-1.3,2s-0.4,2-0.4,3.8v10c0,1.8-0.2,3.1-0.5,4s-1,1.8-1.9,2.7s-2.8,2.1-5.6,3.8c1.5-0.2,3-0.3,4.3-0.3
		c2.2,0,4.4,0.3,6.4,0.9v-20.3h1.1v6.3c2.2-1.3,3.9-2.7,5-4.2c1.1-1.4,1.6-3,1.6-4.6c0-1.4-0.4-2.5-1.3-3.5S701,594.4,699.3,593.6z
		 M697.8,612c1.3,0.5,2.5,0.7,3.6,0.7s2.3-0.2,3.6-0.7c0-1.1-0.3-2-0.8-2.7s-1.5-1.3-2.9-1.9c-1.8,1.2-3,1.9-3.6,2.3v2.3H697.8z
		 M705,613.1c-1.4,0.5-2.6,0.7-3.6,0.7c-1.1,0-2.3-0.2-3.6-0.7v4.3c1.3-0.5,2.4-0.7,3.5-0.7s2.3,0.2,3.7,0.7L705,613.1L705,613.1z
		 M705,618.6c-1.5-0.5-2.8-0.8-3.8-0.8c-1.1,0-2.2,0.3-3.4,0.8v4.3c0.7,0.3,1.4,0.7,2,1.1c1.7-0.9,3.4-1.5,5.2-2V618.6z"/>
	<path class="st6" d="M742.8,591.2l0.5,1c-2.2,0.7-3.7,1.5-4.8,2.3c-1,0.8-1.7,1.6-2,2.4c-0.3,0.8-0.5,2.2-0.5,4.1v5l9.5-7.6
		c2,1.3,3.5,2.5,4.5,3.6s1.7,2.2,2,3.4s0.5,3,0.5,5.5v3.6c0,1.9-0.1,3.3-0.4,4.2c-0.2,0.9-0.7,1.8-1.4,2.8c-1,1.3-2.8,3-5.4,5
		c-1.8,1.4-2.9,2.4-3.4,3c-0.4,0.6-0.6,1-0.6,1.4c0,0.2,0.1,0.4,0.2,0.6c0.2,0.2,0.4,0.2,0.7,0.2c0.2,0,0.4,0,0.7-0.1
		s0.6-0.1,0.7-0.1c0.4,0,0.7,0.1,1,0.3c0.2,0.2,0.3,0.5,0.3,0.9c0,0.5-0.2,0.8-0.5,1.1c-0.5,0.4-1.1,0.6-1.8,0.6s-1.4-0.3-1.9-0.9
		c-0.5-0.6-0.8-1.3-0.8-2.2c0-0.6,0.2-1.3,0.6-2.1c0.4-0.8,1.4-2.2,3-4.1c1.6-1.9,2.6-3.4,3.1-4.4s0.8-2.2,1-3.7
		c-2-0.9-3.8-1.4-5.5-1.4c-2.1,0-4.2,0.5-6.2,1.4c-2.1,1-4.4,2.7-7.1,5.1c1.1,0,2-0.1,2.5-0.1c1.3,0,3,0.1,5.2,0.3
		c0.6,0.1,1.1,0.1,1.6,0.1c0.8,0,1.5-0.2,2.1-0.6s1.3-1.1,1.9-2l1.1,0.6l-5.5,7.7c-2.2-0.9-4.2-1.6-5.8-2c-1.7-0.4-3.3-0.6-5-0.6
		c-1.9,0-3.6,0.2-5.1,0.7s-2.5,1.1-3.1,1.8c-0.5,0.6-0.7,1-0.7,1.5c0,0.3,0.2,0.8,0.6,1.3c0.3,0.4,0.4,0.8,0.4,1.1
		c0,0.4-0.1,0.7-0.4,1c-0.2,0.3-0.5,0.4-0.8,0.4c-0.4,0-0.8-0.2-1.1-0.7c-0.4-0.4-0.6-1-0.6-1.6c0-0.8,0.2-1.5,0.6-2.3
		c0.4-0.7,1.3-1.8,2.8-3.3c1.4-1.4,2.4-2.6,2.8-3.3c0.4-0.8,0.6-1.5,0.6-2.3c0-0.6-0.2-1-0.5-1.3s-0.7-0.5-1.2-0.5
		c-1,0-1.8,0.7-2.4,2.1h-1.1c0.1-1.3,0.4-2.3,0.8-2.9s1-1.2,1.8-1.7c0.6-0.4,1.4-0.6,2.5-0.7c-0.1-2-0.5-3.3-1.2-4.1s-1.7-1.1-3-1.1
		c-0.8,0-1.5,0.2-1.9,0.5c-0.5,0.3-0.9,0.9-1.4,1.7l-0.9-0.3c0.2-1.1,0.5-1.9,0.8-2.4c0.5-0.8,1.3-1.4,2.1-1.9
		c0.9-0.4,1.8-0.7,2.9-0.7c0.6,0,1.3,0,2.1,0.1c0-0.8-0.1-1.4-0.1-1.9c0-2,0.5-3.8,1.6-5.6c0.8-1.3,2.1-2.6,3.9-4
		c-1.8,0.6-3.1,0.9-3.7,0.9c-0.6,0-2-0.2-4.4-0.6c-0.9-0.2-1.5-0.3-1.9-0.3c-0.6,0-1.1,0.2-1.5,0.7c-0.5,0.5-0.8,1.4-1,2.6H714
		c0.3-1.5,0.6-2.6,1.1-3.4c0.7-1.2,1.6-2.1,2.7-2.7c1.1-0.6,2.2-1,3.2-1c0.7,0,1.8,0.2,3.4,0.7c1.6,0.5,2.9,0.7,3.9,0.7
		c2,0,4.1-0.6,6.5-1.9l0.5,1c-3.3,1.3-5.6,2.9-6.8,4.8c-0.8,1.3-1.2,3.3-1.2,6.1v11.4c0,2-0.2,3.6-0.6,4.7c-0.4,1.1-1.3,2.6-2.8,4.3
		c2-1.1,3.5-2.3,4.6-3.4c1.1-1.1,1.7-2.2,2-3.2s0.4-2.7,0.4-5.2V603c0-2.6,0.3-4.5,0.9-5.8c0.6-1.3,1.6-2.4,3.1-3.3
		C736.5,593.5,739.1,592.4,742.8,591.2z M736.1,607.5v1.1c2.1,0.8,4.1,1.3,5.9,1.3c1.1,0,2-0.1,2.9-0.3c0.8-0.2,1.8-0.6,2.9-1.1
		c-0.3-1.2-0.8-2.3-1.6-3.2s-2-1.8-3.7-2.8L736.1,607.5z M736.1,616c2-0.8,3.9-1.3,5.7-1.3c1,0,1.9,0.1,2.8,0.3
		c0.9,0.2,1.9,0.5,3.2,1v-6.3c-1.2,0.5-2.2,0.9-3.1,1.1c-0.8,0.2-1.8,0.3-2.8,0.3c-1.9,0-3.8-0.4-5.8-1.2L736.1,616L736.1,616z"/>
	<path class="st6" d="M789,591.2l0.5,1.1c-1.2,0.6-2,1.1-2.6,1.7c-0.6,0.6-1,1.2-1.2,1.9s-0.3,1.7-0.3,3.1c0,0.4,0,1,0,1.8l0.4,18.2
		c0,2,0.2,3.3,0.6,3.9c0.3,0.4,0.6,0.7,1,0.7c0.5,0,1.2-0.5,2.2-1.4l0.7,0.9l-4.5,3.9l-1.5,1.2c-1.3-0.6-2.2-1.4-2.7-2.4
		s-0.9-2.6-0.9-4.8l-9.4,7.2c-5.3-3.5-8.8-5.2-10.8-5.2c-0.5,0-0.9,0.1-1.2,0.4c-0.2,0.2-0.4,0.5-0.4,0.9s0.2,0.9,0.5,1.4
		c0.4,0.7,0.6,1.1,0.6,1.3c0,0.3-0.1,0.6-0.3,0.8s-0.5,0.3-0.8,0.3c-0.4,0-0.7-0.2-1-0.5c-0.4-0.4-0.5-1-0.5-1.7
		c0-0.8,0.2-1.7,0.7-2.6c0.4-1,1.1-2,2-3.2c0.2-0.2,0.3-0.5,0.5-0.7l3.5-4.8c-2.4-1.8-4-3.5-5-5.1s-1.4-3.5-1.4-5.5
		c0-2.3,0.6-4.5,1.8-6.5s3-3.6,5.4-4.7c2.4-1.2,4.9-1.7,7.4-1.7c3.9,0,7.6,1.4,11.3,4.1c0.9-0.9,1.7-1.7,2.5-2.3
		C786.7,592.4,787.7,591.8,789,591.2z M777,596.9c-2.1-1-4.1-1.5-6.1-1.5c-2.2,0-4.2,0.5-6.1,1.4c-1.9,1-3.3,2.2-4.3,3.7
		c-0.9,1.5-1.4,3-1.4,4.6c0,3.3,1.8,6.3,5.4,8.9l8.2-11.1c-1.2-0.7-2.3-1-3.3-1c-1.3,0-2.5,0.6-3.3,1.9c-0.2,0.3-0.3,0.4-0.5,0.4
		c-0.1,0-0.2,0-0.3-0.1s-0.1-0.2-0.1-0.4c0-0.5,0.3-1.2,0.8-2.1c0.5-0.9,1.3-1.6,2.3-2.2c1-0.6,2.1-0.8,3.2-0.8
		c1.1,0,2.4,0.3,3.9,0.8L777,596.9z M764.7,615.6l-2.2,3l12.4,5.3l5.7-4.3l-0.1-4.1L764.7,615.6L764.7,615.6z M780.1,599.4
		c-0.5-0.5-0.8-0.9-1-1c-0.1-0.1-0.5-0.4-1.2-0.9L767.3,612h13.1L780.1,599.4z"/>
	<path class="st6" d="M838.5,593.3l0.8,0.8c-1.1,1.2-1.8,2.2-2.1,2.9c-0.3,0.8-0.4,1.9-0.4,3.4v18.9c0,1.9,0.2,3.2,0.5,3.6
		c0.3,0.5,0.8,0.7,1.3,0.7c0.4,0,1.1-0.4,1.9-1.1l0.7,1l-5.9,4.6c-1.4-0.7-2.4-1.5-2.9-2.5s-0.7-2.6-0.7-4.9v-23.3l-4.1-3.1l-1.6,1
		v12.1h3l-3,3.7v10.3l1.9-1.6l0.7,0.8l-9,7.6c-1.4-1.6-2.5-2.8-3.3-3.6c-0.6-0.5-1.3-1-2.2-1.5v-0.9c0.8-0.3,1.3-0.7,1.5-1.2
		c0.2-0.4,0.3-1.4,0.3-3v-6.9h-7.4v10.5c0,2.9-0.7,5.1-2.2,6.7c-1.5,1.6-3.4,2.3-5.8,2.3c-0.5,0-1.4-0.1-2.8-0.3
		c-0.9-0.1-1.6-0.2-2-0.2c-0.8,0-1.4,0.2-1.8,0.6c-0.4,0.4-0.6,1-0.6,1.9h-1c-0.2-0.7-0.3-1.3-0.3-1.8c0-0.9,0.2-1.7,0.7-2.5
		s1.1-1.3,1.8-1.7c0.6-0.3,1.7-0.5,3.2-0.7s2.7-0.6,3.5-1.5c0.7-0.8,1.1-2,1.1-3.5c0-2.3-0.5-4.2-1.6-5.7s-2.4-2.3-3.9-2.3
		c-1.2,0-2.2,0.6-3,1.7l-0.9-0.4c0.4-1.2,1-2.1,1.5-2.8s1.4-1.2,2.3-1.5c0.7-0.3,1.8-0.4,3.1-0.4c0-0.5,0-0.9,0-1.1
		c0-2.7,0.5-5,1.6-6.9s2.8-3.6,5.1-5.2c2.3-1.6,5.7-3.3,10.1-5.3c1.5,0.8,2.6,1.7,3.1,2.5s0.8,2,0.9,3.6l9.6-6.1l5.8,4.4
		L838.5,593.3z M808.3,597c-1.4,1.1-2.3,2.2-2.7,3.2s-0.6,2.7-0.6,5.2v13.8c0,2.3-0.3,3.8-0.9,4.8c-0.6,0.9-1.7,1.7-3.3,2.4
		c0.7,0,1.3,0.1,1.9,0.1c1.2,0,2.2-0.2,2.9-0.6c0.8-0.4,1.3-0.9,1.5-1.5s0.4-1.7,0.4-3.2v-18.4c0-1.4,0.1-2.6,0.3-3.5
		C807.7,598.6,807.9,597.8,808.3,597z M815.9,607.5v-7.3c0-1.8-0.2-3.1-0.7-3.9c-0.5-0.8-1.3-1.4-2.5-1.9c-1.1,0.6-1.9,1.1-2.4,1.6
		c-0.6,0.7-1.1,1.5-1.4,2.4c-0.3,0.9-0.5,2.3-0.5,4v7.7l2-2.6H815.9z M824.9,596.1l-4.1,2.6v8.8h4.1V596.1z M824.9,611.1h-4.1v6.3
		c0,2.2,0.1,3.6,0.4,4.2c0.5,1.1,1.1,1.6,1.9,1.6c0.4,0,1-0.3,1.7-1L824.9,611.1L824.9,611.1z"/>
</g>
<g>
	<path class="st7" d="M1282.4,308.6c0,1.1-0.1,1.7-0.3,1.7h-8.7c-0.2,0-0.4-0.3-0.6-1.1c-0.2-0.8-1.4-5.5-7.1-5.5
		c-5.4,0-7.5,8.5-7.5,14.5c0,12,5,13.3,8.3,13.3c2.1,0,2.8-3.5,2.9-6.6h-5c-0.4,0-0.7-0.4-0.7-1.1v-7.6c0-1.5,0.3-1.7,0.7-1.7h23.3
		c0.5,0,0.7,0.9,0.7,1.7v6.9c0,1.6-0.3,1.8-0.8,1.8h-5v18.3c0,1.5-0.4,1.6-0.9,1.6h-6.5c-0.6,0-0.9-0.1-1.1-1.2l-1.4-4.5
		c-1.9,5.5-5.7,5.8-10.3,5.8c-1.4,0-18.2-0.4-18.2-26.6c0-27,13.3-28.1,17.8-28.1c8.1,0,9.4,2.3,11.3,5.2l0.3-3.6
		c0-0.7,0.1-1.6,0.6-1.6h7.6c0.5,0,0.8,0.4,0.8,2.8v15.6H1282.4z"/>
	<path class="st7" d="M1305.5,345c-4.8,0-15.7-1.2-15.7-19.7c0-18.6,11.6-19.6,12.9-19.6h4.6c5.3,0,12.9,6.6,12.9,18.6v1.3
		c0,0.4-0.1,0.6-0.5,0.6h-18.6c0.2,5.8,2.8,7.7,5.1,7.7h2.4c2.1,0,3.9-0.7,5.1-4.3c0.1-0.2,0.2-0.4,0.3-0.4h5.7
		c0.2,0,0.3,0.7,0.2,0.9c-0.6,3.9-2.7,14.9-11.8,14.9H1305.5z M1309.2,320.1c-0.5-2.2-1.5-4.6-3.7-4.6c-2.9,0-3.6,2.3-4.1,4.6
		H1309.2z"/>
	<path class="st7" d="M1326.3,317.1h-4.2c-0.3,0-0.4-0.3-0.4-0.7v-8.6c0-0.9,0.1-1.3,0.4-1.3h1.5c4.1,0,6-3.6,6.9-14.5
		c0-0.7,0.2-1.5,0.4-1.5h5.1c0.2,0,0.4,0.4,0.4,1.1v14.9h4.5c0.3,0,0.7,0.1,0.7,1.4v8c0,0.5-0.2,1.2-0.5,1.2h-4.7v10.4
		c0,2.1,0.6,6.1,2,6.1c1.5,0,2.3-3,2.7-8c0-0.7,0.1-1.7,0.4-1.7h2.8c0.2,0,0.3,0.4,0.3,1.1c0,3.6-1.1,19.8-7.2,19.8h-6.4
		c-0.9,0-4.7-2-4.7-10.9L1326.3,317.1L1326.3,317.1z"/>
</g>
<g>
	<path class="st7" d="M1250.8,375.7c-0.2,0-0.3-0.3-0.3-0.6v-8c0-0.7,0.1-1,0.3-1h11.5c0.1,0,0.4,0.1,0.4,0.5v8.3
		c0,0.5-0.1,0.8-0.2,0.8h-4l-6.5,15.6v4h4.5c0.1,0,0.2,0.1,0.2,0.3v8.9c0,0.3,0,0.6-0.1,0.6h-18c-0.2,0-0.2-0.3-0.2-0.5v-8.8
		c0-0.3,0.1-0.5,0.2-0.5h4.4v-3.8l-6.6-15.8h-3.9c-0.2,0-0.3-0.2-0.3-0.5v-8.1c0-0.7,0.2-1,0.3-1h16.9c0.2,0,0.4,0.1,0.4,0.5v8.5
		c0,0.5-0.1,0.6-0.2,0.6h-2.6l3,8.4l3.4-8.3v-0.1H1250.8z"/>
	<path class="st7" d="M1278.4,366.1c8,0,13.1,9,13.1,18.4c0,9.5-3.6,20.6-12.3,20.6h-3.1c-7.1,0-10.1-4.6-12.1-8.9
		c-1.5-3.4-2-8.2-2-11.2c0-4,0.9-7.5,1.8-10c1.5-4.3,5.4-8.9,11.1-8.9H1278.4z M1272.3,385.1c0,5.6,2,11,4.5,11
		c2.9,0,4.5-5.4,4.5-10.1c0-4.6-1.7-10.8-4.7-10.8C1274.4,375.2,1272.3,379.9,1272.3,385.1z"/>
	<path class="st7" d="M1296.8,375.7h-3.9c-0.2,0-0.3-0.2-0.3-0.8v-8c0-0.4,0.1-0.7,0.2-0.7h16.3c0.3,0,0.4,0.1,0.4,0.5v8.6
		c0,0.3-0.2,0.5-0.3,0.5h-3.6v14c0,1.5,0.3,5.2,2.2,5.2h4.4c0.3,0,1.5-1.2,1.5-4.7v-14.5h-3.3c-0.1,0-0.2-0.3-0.2-0.7v-8.4
		c0-0.2,0.1-0.5,0.2-0.5h11.7c0.3,0,0.5,0.3,0.5,1.4v7.5c0,0.4-0.1,0.7-0.2,0.7h-4v15.7c0,2-0.2,13.7-4.7,13.7h-11.3
		c-1,0-5.6-1-5.6-12L1296.8,375.7L1296.8,375.7z"/>
	<path class="st7" d="M1345.6,366.1c0.5,0,4.2,0.4,5.7,2.2c1.1,1.3,2.7,4,2.7,8.2c0,3.9-1.8,6.8-3.5,8.8c1.4,2,2.2,3.1,2.8,8.5
		c0.1,1,0.3,1.7,0.6,1.7c0.4,0,1.3-0.9,1.3-4.4v-1.5c0-0.3,0.1-0.5,0.2-0.5h2c0.1,0,0.2,0.2,0.2,0.8v5.6c0,5.6-2.7,9.6-4,9.6h-6.9
		c-1.1,0-2.2-2.9-2.4-4.4c-0.3-1.3-0.6-5.4-0.8-6.6c-0.6-4.1-2.3-4.3-2.7-4.3h-4.4v5.7h4c0.2,0,0.3,0.1,0.3,0.3v8.9
		c0,0.3-0.1,0.3-0.3,0.3h-16.8c-0.1,0-0.2-0.2-0.2-0.7v-8.5c0-0.3,0.1-0.6,0.2-0.6h3.8v-19.8h-3.9c-0.2,0-0.3-0.1-0.3-0.8v-7.9
		c0-0.4,0.1-0.7,0.2-0.7L1345.6,366.1L1345.6,366.1z M1336.5,375.7v5.8h5.3c1.1,0,2.5-0.7,2.5-2.8c0-2.4-1.8-3.1-2.1-3.1h-5.7V375.7
		z"/>
</g>
<g>
	<path class="st8" d="M1246.7,441.3c0,0.5-0.1,0.7-0.2,0.7h-15.3c-0.1,0-0.2-0.2-0.2-0.5v-4.1c0-0.2,0.1-0.5,0.2-0.5h2v-10h-2
		c-0.1,0-0.2-0.2-0.2-0.5v-4.2c0-0.3,0.1-0.5,0.2-0.5h8.5c0.1,0,0.2,0.2,0.2,0.7v3.8c0,0.3-0.1,0.5-0.2,0.5h-2v10h5.2v-3.1
		c0-0.3,0-0.8,0.2-0.8h3.3c0.1,0,0.2,0.2,0.2,0.8v7.7H1246.7z"/>
	<path class="st8" d="M1257.3,436.5c0,0.1,0.1,1.5,0.6,1.5c0.7,0,0.7-2.1,0.7-2.2s0-0.2,0.1-0.2h1.1v0.1c0,4.7-1.3,6.3-2.2,6.3h-2.5
		c-0.8,0-1.5-1.4-1.7-2.6c-0.5,1.9-2.1,2.7-2.4,2.7c-1.1,0-3.7-0.3-3.7-4.2c0-4,2.9-4.5,3.3-4.5h1.5c0.4,0,1.3-0.3,1.3-1.1
		c0-0.9-0.5-1.2-0.9-1.2h-1.1c-0.4,0-1,1.2-1.2,1.4c-0.2,0.3-1.3,1-1.6,1c-0.3,0-1.3-0.5-1.3-2.5c0-3,1.9-3.4,4.8-3.4
		c3.3,0,5.2,0.5,5.2,4.9L1257.3,436.5L1257.3,436.5z M1253.4,434.1L1253.4,434.1c-0.1,0.4-0.4,1.3-0.8,1.6c-0.6,0.4-1.2,0.6-1.2,1.6
		c0,0.6,0.4,0.6,0.5,0.6c0.8,0,1.5-0.6,1.5-2.8V434.1z"/>
	<path class="st8" d="M1267.6,442c-0.1,0-0.1-0.2-0.1-0.4v-3.4c0-0.2,0-0.3,0.1-0.3h1.3v-1.6c0-3-0.1-4.5-1.6-4.5s-1.5,3.1-1.5,5.4
		v0.7h1.2c0.1,0,0.1,0.2,0.1,0.3v3.6c0,0.2,0,0.3-0.1,0.3h-6.6c-0.1,0-0.1-0.2-0.1-0.4v-3.5c0-0.2,0.1-0.3,0.1-0.3h1.6v-6.1h-1.5
		c-0.1,0-0.2-0.1-0.2-0.3v-3.4c0-0.3,0.1-0.5,0.1-0.5h5.3c0.1,0,0.1,0.1,0.1,0.3v2.5l0,0c0.6-2.4,1.5-2.7,2.1-2.7h2.6
		c0.7,0,1.7,1.1,2.1,3c0.6-2.4,1.4-3,2.2-3h2.4c1.9,0,2.3,2.4,2.3,5.2v5h1.5c0.1,0,0.1,0.1,0.1,0.2v3.7c0,0.2,0,0.3-0.1,0.3h-6.6
		c-0.1,0-0.1-0.2-0.1-0.4v-3.4c0-0.2,0-0.3,0.1-0.3h1.3v-1.6c0-2.8-0.2-4.5-1.6-4.5c-1.1,0-1.6,2.3-1.6,3.8v2.3h1.3
		c0.1,0,0.1,0.2,0.1,0.3v3.6c0,0.2,0,0.3-0.1,0.3h-6.2V442z"/>
	<path class="st8" d="M1285.8,421.8c0.1,0,0.1,0.1,0.1,0.3v8c0.1-0.4,1-2.5,2.6-2.5c1.9,0,4.4,2.4,4.4,7.4c0,5.8-2.7,7.1-4.8,7.1
		c-2.2,0-3.4-2.5-3.6-3l-0.8,2.8c0,0.1-0.1,0.2-0.1,0.2h-1.2c-0.1,0-0.2-0.2-0.2-0.4V426h-1.5c-0.1,0-0.2-0.1-0.2-0.3v-3.4
		c0-0.4,0.1-0.5,0.1-0.5H1285.8z M1286,434.9c0,1.9,0.5,3.2,1.4,3.2c0.8,0,1.4-1.1,1.4-3.2s-0.7-3.2-1.4-3.2
		C1286.6,431.7,1286,432.8,1286,434.9z"/>
	<path class="st8" d="M1298.8,442.1c-3.1,0-5.1-3.4-5.1-7.3c0-5.3,2.9-7.2,5.4-7.2h1c1.6,0,5,1.8,5,7.3c0,6.6-4,7.2-5,7.2H1298.8z
		 M1297.9,434.8c0,1.9,0.7,3.3,1.6,3.3c0.8,0,1.6-1.2,1.6-3.3c0-2.1-0.9-3.3-1.6-3.3C1298.7,431.6,1297.9,432.7,1297.9,434.8z"/>
	<path class="st8" d="M1314.1,427.5c0.6,0,1.6,1.3,1.6,3.3c0,1.9-0.7,3-1.3,3c-0.6,0-1.1-0.9-1.3-1.3c-0.2-0.5-0.5-0.7-0.8-0.7
		c-0.4,0-1.2,1-1.2,2.9v3.1h1.6c0.1,0,0.1,0.2,0.1,0.3v3.6c0,0.2-0.1,0.3-0.1,0.3h-6.9c-0.1,0-0.1-0.2-0.1-0.3v-3.6
		c0-0.2,0.1-0.3,0.1-0.3h1.6v-6.1h-1.6c-0.1,0-0.2-0.1-0.2-0.3V428c0-0.3,0.1-0.5,0.2-0.5h5.2c0.1,0,0.1,0.1,0.1,0.3v2.4
		c0.4-1.2,1.3-2.7,2.4-2.7L1314.1,427.5L1314.1,427.5z"/>
	<path class="st8" d="M1321.9,427.5c1.4,0,2.9,0.4,4,1.8c0.7-1.5,1.5-1.8,2.5-1.8s1.2,1.7,1.2,2.9c0,0.7-0.2,2.7-1.2,2.7
		c-1.1,0-1.3-2.4-1.3-2.8c-0.2,0.1-0.6,0.7-0.7,1c0,0.2,0.1,0.4,0.1,0.7c0,2.8-2.3,4.2-3.5,4.2h-4c-0.1,0.2-0.1,0.5-0.1,0.9
		c0,0.5,0.4,0.7,0.5,0.7h6.7c1.3,0,3.5,0.5,3.5,4.1c0,3.5-2.4,4.5-2.8,4.5h-9c-0.5,0-1.4-1.2-1.4-2.4c0-1.2,0.5-1.8,0.8-2.2
		c-0.1-0.3-0.8-1.1-0.8-2.8s0.9-3,1.3-3.6c-0.2-0.2-1.2-1.4-1.2-3.2c0-4.3,3.9-4.6,4.4-4.6h1V427.5z M1318.3,442.3
		c-0.1,0.1-0.2,0.4-0.2,0.9s0.2,0.7,0.6,0.7h5.4c1,0,1.4,0,1.4-0.8c0-0.9-1.5-0.8-2.1-0.8L1318.3,442.3L1318.3,442.3z M1320.2,431.9
		c0,1,0.5,1.2,1.2,1.2c0.8,0,1.2-0.2,1.2-1.2c0-1.2-0.6-1.5-1.3-1.5C1320.6,430.4,1320.2,430.7,1320.2,431.9z"/>
	<path class="st8" d="M1336.9,437.9c0.1,0,0.1,0.2,0.1,0.3v3.6c0,0.2,0,0.3-0.1,0.3h-6.9c-0.1,0-0.1-0.2-0.1-0.4v-3.5
		c0-0.2,0.1-0.3,0.1-0.3h1.6v-6.1h-1.5c-0.1,0-0.2-0.1-0.2-0.3v-3.4c0-0.3,0.1-0.5,0.1-0.5h5.2c0.1,0,0.1,0.1,0.1,0.3v10H1336.9z
		 M1334.9,421.8c0.1,0,0.2,0.1,0.2,0.4v3.7c0,0.2,0,0.4-0.1,0.4h-2.9c-0.1,0-0.1,0-0.1-0.2v-4c0-0.1,0-0.2,0.1-0.2L1334.9,421.8
		L1334.9,421.8z"/>
	<path class="st8" d="M1347.4,427.6c1.4,0,2.3,2.5,2.3,5.2v5h1.5c0.1,0,0.1,0.2,0.1,0.3v3.6c0,0.2-0.1,0.3-0.2,0.3h-6.5
		c-0.1,0-0.1-0.2-0.1-0.4v-3.4c0-0.2,0-0.3,0.1-0.3h1.3v-1.4c0-3.8-0.1-4.6-1.6-4.6s-1.5,2.9-1.5,5.2v0.8h1.2c0.1,0,0.1,0.2,0.1,0.3
		v3.6c0,0.2,0,0.3-0.1,0.3h-6.6c-0.1,0-0.1-0.2-0.1-0.4v-3.5c0-0.2,0.1-0.3,0.1-0.3h1.5v-6.1h-1.5c-0.1,0-0.2-0.1-0.2-0.3v-3.4
		c0-0.3,0.1-0.5,0.1-0.5h5.2c0.1,0,0.1,0.1,0.1,0.3v2.5l0,0c0.2-0.6,0.8-2.8,2.3-2.8L1347.4,427.6L1347.4,427.6z"/>
	<path class="st8" d="M1358.7,437.9c0.1,0,0.1,0.2,0.1,0.3v3.6c0,0.2,0,0.3-0.1,0.3h-6.9c-0.1,0-0.1-0.2-0.1-0.4v-3.5
		c0-0.2,0.1-0.3,0.1-0.3h1.6v-6.1h-1.5c-0.1,0-0.2-0.1-0.2-0.3v-3.4c0-0.3,0.1-0.5,0.1-0.5h5.2c0.1,0,0.1,0.1,0.1,0.3v10H1358.7z
		 M1356.7,421.8c0.1,0,0.2,0.1,0.2,0.4v3.7c0,0.2,0,0.4-0.1,0.4h-2.9c-0.1,0-0.1,0-0.1-0.2v-4c0-0.1,0-0.2,0.1-0.2L1356.7,421.8
		L1356.7,421.8z"/>
</g>
<g>
	<path class="st7" d="M1257.2,481.6c0.1,0,0.2,0,0.2,0.2v7.1c0,0.2-0.1,0.2-0.2,0.2h-13.7c-0.1,0-0.2-0.2-0.2-0.6v-6.4
		c0-0.2,0.1-0.5,0.2-0.5h3.3v-15.8h-3.7v5.5c0,0.3-0.1,0.3-0.2,0.3h-4.6c-0.1,0-0.2-0.2-0.2-0.5V459c0-0.3,0.1-0.6,0.2-0.6h23.9
		c0.2,0,0.2,0.1,0.2,1V471c0,0.3,0,0.7-0.2,0.7h-4.4c-0.1,0-0.2,0-0.2-0.5v-5.4h-3.9v15.8H1257.2z"/>
	<path class="st7" d="M1276.3,458.4c6.3,0,10.3,7.1,10.3,14.5c0,7.5-2.8,16.3-9.7,16.3h-2.5c-5.6,0-7.9-3.6-9.5-7
		c-1.2-2.7-1.6-6.4-1.6-8.8c0-3.1,0.7-5.9,1.4-7.9c1.2-3.4,4.2-7,8.8-7h2.8V458.4z M1271.5,473.4c0,4.4,1.6,8.7,3.6,8.7
		c2.3,0,3.5-4.3,3.5-8c0-3.6-1.4-8.5-3.7-8.5C1273.2,465.5,1271.5,469.2,1271.5,473.4z"/>
	<path class="st7" d="M1290.8,465.6h-3c-0.1,0-0.3,0.1-0.3-0.5v-5.9c0-0.3,0.1-0.8,0.3-0.8h14.7c0.6,0,9.6,2.2,9.6,15.3
		c0,13.1-7.2,15.4-10.3,15.4H1288c-0.3,0-0.6,0-0.6-1v-4.9c0-0.6,0-1.4,0.3-1.4h3L1290.8,465.6L1290.8,465.6z M1297.7,481.8h2.5
		c1.6,0,3.9-2.6,3.9-8.1c0-5.8-2.6-8.1-3.3-8.1h-3.2L1297.7,481.8L1297.7,481.8z"/>
	<path class="st7" d="M1322.7,489.1c-0.2,0-0.3-0.4-0.3-0.8v-6c0-0.4,0.1-0.6,0.2-0.6h2.3l-0.8-3.5h-4.2l-0.8,3.5h2.6
		c0.2,0,0.2,0.2,0.2,0.5v6.1c0,0.5-0.1,0.8-0.2,0.8h-9.3c-0.3,0-0.5-0.1-0.5-0.7v-6.3c0-0.5,0.1-0.7,0.3-0.7h2.8l5.3-22.3
		c0.1-0.6,0.3-0.9,0.5-0.9h6.3c0.3,0,0.4,0.5,0.5,0.9l5.5,22.7h3c0.2,0,0.2,0.7,0.2,1.4v5.2c0,0.5-0.1,0.7-0.4,0.7L1322.7,489.1
		L1322.7,489.1z M1320.8,474.5h2.4l-1.1-4.8c0-0.1-0.2-0.1-0.2,0L1320.8,474.5z"/>
	<path class="st7" d="M1347.5,465.9c-0.2,0-0.2-0.2-0.2-0.5v-6.3c0-0.5,0.1-0.8,0.2-0.8h9.1c0.1,0,0.3,0.1,0.3,0.4v6.5
		c0,0.4-0.1,0.7-0.2,0.7h-3.1l-5.2,12.3v3.2h3.5c0.1,0,0.2,0.1,0.2,0.2v7c0,0.2,0,0.5-0.1,0.5h-14.2c-0.1,0-0.2-0.2-0.2-0.4v-6.9
		c0-0.2,0.1-0.4,0.2-0.4h3.5v-3l-5.2-12.4h-3.1c-0.2,0-0.2-0.2-0.2-0.4v-6.4c0-0.5,0.1-0.8,0.3-0.8h13.4c0.2,0,0.3,0.1,0.3,0.4v6.7
		c0,0.4-0.1,0.5-0.2,0.5h-2l2.4,6.6l2.7-6.5V466h-2.2V465.9z"/>
</g>
<g>
	<path class="st7" d="M1265.9,543.3c-0.2,0-0.3-0.4-0.3-0.8v-6c0-0.4,0.1-0.6,0.2-0.6h2.3l-0.8-3.5h-4.2l-0.8,3.5h2.6
		c0.2,0,0.2,0.2,0.2,0.5v6.1c0,0.5-0.1,0.8-0.2,0.8h-9.3c-0.3,0-0.5-0.1-0.5-0.7v-6.3c0-0.5,0.1-0.7,0.3-0.7h2.8l5.3-22.3
		c0.1-0.6,0.3-0.9,0.5-0.9h6.3c0.3,0,0.4,0.5,0.5,0.9l5.5,22.7h3c0.2,0,0.2,0.7,0.2,1.4v5.2c0,0.5-0.1,0.7-0.4,0.7L1265.9,543.3
		L1265.9,543.3z M1263.9,528.6h2.4l-1.1-4.8c0-0.1-0.2-0.1-0.2,0L1263.9,528.6z"/>
	<path class="st7" d="M1292.6,512.5c0.1,0,0.3,0.2,0.4,0.5l7,17.8v-10.6h-3c-0.2,0-0.3-0.2-0.3-0.5v-6.3c0-0.5,0.1-0.9,0.2-0.9h9.8
		c0.2,0,0.3,0.6,0.3,1v6c0,0.5-0.1,0.7-0.3,0.7h-2.9v21.9c0,0.7-0.1,1.1-0.2,1.1h-8.4c-0.1,0-0.2,0-0.3-0.3l-7.7-19.6v12.1h3.2
		c0.2,0,0.3,0.2,0.3,0.6v6.2c0,0.6-0.1,0.9-0.3,0.9h-10c-0.1,0-0.2-0.3-0.2-0.8v-6.2c0-0.3,0.1-0.7,0.3-0.7h3v-15.3h-3.1
		c-0.1,0-0.2-0.1-0.2-0.7V513c0-0.4,0.1-0.6,0.3-0.6L1292.6,512.5L1292.6,512.5z"/>
	<path class="st7" d="M1310.9,519.8h-3c-0.1,0-0.3,0.1-0.3-0.5v-5.9c0-0.3,0.1-0.8,0.3-0.8h14.7c0.6,0,9.6,2.2,9.6,15.3
		s-7.2,15.4-10.3,15.4h-13.7c-0.3,0-0.6,0-0.6-1v-4.9c0-0.6,0-1.4,0.3-1.4h3V519.8z M1317.8,536h2.5c1.6,0,3.9-2.6,3.9-8.1
		c0-5.8-2.6-8.1-3.3-8.1h-3.2L1317.8,536L1317.8,536z"/>
</g>
<g>
	<path class="st7" d="M1287.2,660.1c-0.2,0-0.3-0.4-0.3-0.8v-6c0-0.4,0.1-0.6,0.2-0.6h2.3l-0.8-3.5h-4.2l-0.8,3.5h2.6
		c0.2,0,0.2,0.2,0.2,0.5v6.1c0,0.5-0.1,0.8-0.2,0.8h-9.3c-0.3,0-0.5-0.1-0.5-0.7v-6.3c0-0.5,0.1-0.7,0.3-0.7h2.8l5.3-22.3
		c0.1-0.6,0.3-0.9,0.5-0.9h6.3c0.3,0,0.4,0.5,0.5,0.9l5.5,22.7h3c0.2,0,0.2,0.7,0.2,1.4v5.2c0,0.5-0.1,0.7-0.4,0.7L1287.2,660.1
		L1287.2,660.1z M1285.2,645.5h2.4l-1.1-4.8c0-0.1-0.2-0.1-0.2,0L1285.2,645.5z"/>
</g>
<g>
	<path class="st8" d="M1236.9,706.9c-0.2,0-0.3-0.4-0.3-0.8v-6c0-0.4,0.1-0.6,0.2-0.6h2.3l-0.8-3.5h-4.2l-0.8,3.5h2.6
		c0.2,0,0.2,0.2,0.2,0.5v6.1c0,0.5-0.1,0.8-0.2,0.8h-9.3c-0.3,0-0.5-0.1-0.5-0.7v-6.3c0-0.5,0.1-0.7,0.3-0.7h2.8l5.3-22.3
		c0.1-0.6,0.3-0.9,0.5-0.9h6.3c0.3,0,0.4,0.5,0.5,0.9l5.5,22.7h3c0.2,0,0.2,0.7,0.2,1.4v5.2c0,0.5-0.1,0.7-0.4,0.7L1236.9,706.9
		L1236.9,706.9z M1234.9,692.2h2.4l-1.1-4.8c0-0.1-0.2-0.1-0.2,0L1234.9,692.2z"/>
	<path class="st8" d="M1251.5,706.9c-0.1,0-0.2-0.4-0.2-0.6v-5.6c0-0.2,0.1-0.4,0.2-0.4h4.7c0.1,0,0.2,0.2,0.2,0.5
		c0.2,1.3,1.3,2,2.3,2h1.4c0.5,0,1.2-0.3,1.2-1.6s-0.6-1.5-0.8-1.5c-0.2,0-3.7-0.6-4-0.7c-2.2-0.4-5.1-2.3-5.1-7.8
		c0-4.2,2.6-6.4,6-6.4h1.7c1,0,2.3,0.7,2.9,1.7c0-0.4,0.1-0.8,0.1-1.2c0-0.2,0.1-0.4,0.2-0.4h3.7c0.1,0,0.2,0.3,0.2,0.7v5.2
		c0,0.2-0.1,0.5-0.2,0.5h-4.1c-0.1,0-0.1-0.1-0.2-0.3c-0.2-0.6-0.5-1.5-1.7-1.5h-1.8c-0.9,0-1.2,0.3-1.2,1.6s0.5,1.3,1.1,1.4
		c0.4,0,4,0.3,4.6,0.4c0.2,0,4.1,0.3,4.1,6.9c0,5.6-3.5,7.2-5.5,7.2h-2.2c-0.9,0-2.3-0.7-2.7-1.3c-0.2,0.4-0.4,0.7-0.5,0.9
		s-0.2,0.3-0.3,0.3L1251.5,706.9L1251.5,706.9z"/>
	<path class="st8" d="M1268,706.9c-0.1,0-0.2-0.4-0.2-0.6v-5.6c0-0.2,0.1-0.4,0.2-0.4h4.7c0.1,0,0.2,0.2,0.2,0.5
		c0.2,1.3,1.3,2,2.3,2h1.4c0.5,0,1.2-0.3,1.2-1.6s-0.6-1.5-0.8-1.5c-0.2,0-3.7-0.6-4-0.7c-2.2-0.4-5.1-2.3-5.1-7.8
		c0-4.2,2.6-6.4,6-6.4h1.7c1,0,2.3,0.7,2.9,1.7c0-0.4,0.1-0.8,0.1-1.2c0-0.2,0.1-0.4,0.2-0.4h3.7c0.1,0,0.2,0.3,0.2,0.7v5.2
		c0,0.2-0.1,0.5-0.2,0.5h-4.1c-0.1,0-0.1-0.1-0.2-0.3c-0.2-0.6-0.5-1.5-1.7-1.5h-1.8c-0.9,0-1.2,0.3-1.2,1.6s0.5,1.3,1.1,1.4
		c0.4,0,4,0.3,4.6,0.4c0.2,0,4.1,0.3,4.1,6.9c0,5.6-3.5,7.2-5.5,7.2h-2.2c-0.9,0-2.3-0.7-2.7-1.3c-0.2,0.4-0.4,0.7-0.5,0.9
		s-0.2,0.3-0.3,0.3L1268,706.9L1268,706.9z"/>
	<path class="st8" d="M1305,700.5c0.2,0,0.3,0.2,0.3,0.4v5.2c0,0.5-0.1,0.7-0.2,0.7h-7.9c-0.1,0-0.2-0.2-0.2-0.4v-3
		c-1,2.6-2.8,3.4-3.5,3.4h-3.3c-2.6,0-3.5-2.7-3.5-7.8v-7.7h-2.3c-0.1,0-0.2-0.1-0.2-0.3v-5c0-0.8,0.2-1,0.4-1h7.6
		c0.2,0,0.3,0.3,0.3,1.4v8.7c0,3.6,0.2,5.2,2.3,5.2c2,0,2.4-2.7,2.4-6.8v-2.1h-2.5c-0.1,0-0.2-0.2-0.2-0.5v-5.5
		c0-0.3,0.1-0.4,0.2-0.4h8.1c0.1,0,0.1,0.3,0.1,0.5v15L1305,700.5L1305,700.5z"/>
	<path class="st8" d="M1318.7,684.9c1,0,2.4,1.9,2.4,5.1c0,3-1,4.6-2,4.6c-0.9,0-1.6-1.3-2-2.1s-0.7-1.1-1.2-1.1
		c-0.6,0-1.8,1.6-1.8,4.4v4.7h2.4c0.1,0,0.2,0.2,0.2,0.5v5.4c0,0.3-0.1,0.5-0.2,0.5H1306c-0.1,0-0.2-0.3-0.2-0.5V701
		c0-0.2,0.1-0.4,0.2-0.4h2.5v-9.2h-2.4c-0.2,0-0.2-0.1-0.2-0.4v-5.1c0-0.5,0.1-0.8,0.2-0.8h7.9c0.1,0,0.2,0.2,0.2,0.4v3.6
		c0.6-1.9,2-4.1,3.6-4.1L1318.7,684.9L1318.7,684.9z"/>
	<path class="st8" d="M1330.5,706.9c-2.7,0-8.8-0.7-8.8-11.1c0-10.5,6.5-11,7.3-11h2.6c3,0,7.2,3.7,7.2,10.5v0.7
		c0,0.2-0.1,0.3-0.3,0.3H1328c0.1,3.2,1.5,4.3,2.9,4.3h1.4c1.2,0,2.2-0.4,2.9-2.4c0.1-0.1,0.1-0.2,0.2-0.2h3.2
		c0.1,0,0.2,0.4,0.1,0.5c-0.3,2.2-1.5,8.4-6.6,8.4H1330.5z M1332.6,693c-0.3-1.2-0.8-2.6-2.1-2.6c-1.6,0-2,1.3-2.3,2.6H1332.6z"/>
	<path class="st8" d="M1350.5,682.4h-2.4c-0.2,0-0.2-0.2-0.2-0.4v-5.1c0-0.5,0.1-0.8,0.2-0.8h8c0.1,0,0.2,0.2,0.2,0.4v23.6h2.4
		c0.1,0,0.1,0.2,0.1,0.6v5.7c0,0.2,0,0.4-0.1,0.4h-8.1c-0.1,0-0.2-0.2-0.2-0.6v-2.3c-0.4,0.8-1.6,3-3.7,3c-3.3,0-6.9-3.8-6.9-11.2
		c0-5.7,2.3-8.6,2.8-9.1s1.6-1.7,3.8-1.7c1.7,0,3.4,2.4,4.1,4.3L1350.5,682.4L1350.5,682.4z M1346.4,696c0,3.3,1.1,4.3,2.1,4.3
		c1.1,0,2-1.2,2-4.3c0-3.4-1.2-4.6-2.2-4.6C1347.3,691.3,1346.4,693.5,1346.4,696z"/>
</g>
<polygon class="st9" points="1370.2,801 1318.5,815.1 1300.9,865.7 1271.4,821 1217.8,819.8 1251.3,778 1235.8,726.7 1286,745.6 
	1330,715 1327.5,768.6 "/>
<g>
	<path class="st7" d="M1259.2,776.4c0.1,0,0.2,0.2,0.2,0.5v25.2h3.3c0.1,0,0.2,0.3,0.2,0.5v7.1c0,0.4-0.1,0.5-0.2,0.5h-14.4
		c-0.1,0-0.2-0.4-0.2-0.6v-7c0-0.3,0.1-0.5,0.2-0.5h3.4v-14h-3.3c-0.2,0-0.3-0.2-0.3-0.5v-6.4c0-0.3,0.1-0.9,0.2-0.9h5.1
		c0.7,0,1.2-2.2,1.5-3.6c0-0.2,0.2-0.4,0.2-0.4h4.1V776.4z"/>
	<path class="st7" d="M1273.8,810.1c-5.7,0-10-6.8-10-16.7c0-7.6,3-17.1,10-17.1h2.3c4,0,9.2,4.4,9.2,16.2c0,13-6.5,17.5-9.2,17.5
		L1273.8,810.1L1273.8,810.1z M1272,793.3c0,5.1,1.5,8.6,2.7,8.6c1.7,0,2.8-4,2.8-8.6c0-4-1-8.6-2.8-8.6
		C1272.9,784.7,1272,788.6,1272,793.3z"/>
	<path class="st7" d="M1296.7,810.1c-5.7,0-10-6.8-10-16.7c0-7.6,3-17.1,10-17.1h2.3c4,0,9.2,4.4,9.2,16.2c0,13-6.5,17.5-9.2,17.5
		L1296.7,810.1L1296.7,810.1z M1294.8,793.3c0,5.1,1.5,8.6,2.7,8.6c1.7,0,2.8-4,2.8-8.6c0-4-1-8.6-2.8-8.6
		C1295.8,784.7,1294.8,788.6,1294.8,793.3z"/>
	<path class="st7" d="M1316.2,796.7c-3.7,0-6.8-4.1-6.8-10.1c0-4.5,2-10.2,6.5-10.2h1.5c2.6,0,6,2.6,6,9.8c0,7.8-3.8,10.5-5.6,10.5
		H1316.2z M1314.6,786.6c0,3.1,1,5.1,1.7,5.1c1.1,0,1.8-2.4,1.8-5.1c0-2.4-0.6-5.2-1.8-5.2C1315.2,781.4,1314.6,783.7,1314.6,786.6z
		 M1326.7,776.8c0.1-0.4,0.3-0.5,0.5-0.5h1.7c0.2,0,0.3,0.9,0.1,1.4l-6.2,31.2c-0.1,0.7-0.2,1.1-0.5,1.1h-1.8
		c-0.3,0-0.3-0.5-0.1-1.4L1326.7,776.8z M1332.9,810.1c-3.7,0-6.8-4.1-6.8-10.1c0-4.5,2-10.2,6.5-10.2h1.5c2.6,0,6,2.7,6,9.8
		c0,7.8-3.8,10.5-5.6,10.5H1332.9z M1331.3,800c0,3.1,0.9,5.1,1.7,5.1c1.1,0,1.8-2.4,1.8-5.1c0-2.4-0.7-5.1-1.8-5.1
		C1331.9,794.9,1331.3,797.2,1331.3,800z"/>
</g>
<g>
	<path class="st7" d="M1239.5,895.7c0.1,0,0.2,0.3,0.1,0.9c-0.2,1.7-0.7,16.7-6.8,16.7c-6.3,0-7.8-10.2-7.8-19.3
		c0-9,1.6-20.7,7-20.7c1.9,0,3.1,1.9,4.1,4.9l0.1-3.5c0-0.6,0.1-1,0.1-1h3.2c0.1,0,0.2,0.2,0.2,1.2V890c0,0.5,0,0.9-0.1,1h-3.1
		c-0.1,0-0.1,0-0.2-0.5s-0.8-7.1-2.9-7.1s-2.6,6.7-2.6,9.7c0,2.3,0.2,10.3,2.9,10.3c2.1,0,3.1-5.2,3.3-7.3c0-0.3,0.1-0.4,0.2-0.4
		H1239.5z"/>
	<path class="st7" d="M1247.2,913.3c-0.1,0-0.2-0.5-0.2-1v-7.8c0-0.5,0.1-0.8,0.2-0.8h1.7l-0.6-4.6h-3l-0.6,4.6h1.8
		c0.1,0,0.2,0.3,0.2,0.6v7.9c0,0.6,0,1-0.1,1h-6.7c-0.2,0-0.4-0.1-0.4-0.9v-8.2c0-0.6,0-0.9,0.2-0.9h2l3.8-29
		c0.1-0.8,0.2-1.1,0.3-1.1h4.5c0.2,0,0.3,0.6,0.4,1.1l4,29.5h2.2c0.2,0,0.2,1,0.2,1.8v6.8c0,0.6-0.1,0.9-0.3,0.9h-9.6V913.3z
		 M1245.8,894.2h1.7l-0.8-6.3c0-0.2-0.1-0.2-0.1,0L1245.8,894.2z"/>
	<path class="st7" d="M1268.6,873.9c0-0.4,0.1-0.6,0.2-0.6h2.7c0.2,0,0.3,0.7,0.3,1.1v9.8c0,0.4,0,0.6-0.1,0.6h-3.2
		c0,0-0.1,0-0.1-0.3c-0.3-3-1.4-3.7-1.7-3.7h-3c-0.2,0-1,0.2-1,2.7c0,2.7,1.2,2.6,1.6,2.6l1.9,0.1c1,0,3.2,1,3.8,1.7
		c0.6,0.7,2.6,2.9,2.6,11.5c0,12.2-4,13.9-5.4,13.9h-2.7c-1.1,0-2.3-1.9-3-3.6l-0.1,3.1c0,0.4-0.1,0.5-0.1,0.5h-3.3
		c-0.1,0-0.1-0.2-0.1-0.6v-10.9c0-0.3,0-0.6,0.1-0.6h3.5c0.1,0,0.1,0.2,0.1,0.6c0.2,3.5,1.8,3.7,1.9,3.7h3.5c0.1,0,0.7-0.3,0.7-2.1
		c0-2-0.5-2.6-0.7-2.6l-2.8-0.1c-0.8,0-3-1.3-3.9-2.7c-1.6-2.5-2.4-7.4-2.4-11.2c0-5.3,1.1-8.5,1.6-10c0.7-2.1,2-3.5,3.6-3.5h2.7
		c1.4,0,2.3,1.8,2.8,3V873.9z"/>
	<path class="st7" d="M1282.3,873.3c0.1,0,0.2,0.4,0.2,0.9v8.2c0,0.5-0.1,0.7-0.2,0.7h-1.9v5.6h4.7V883h-2c-0.1,0-0.2-0.2-0.2-0.6
		v-8.1c0-0.5,0.1-1.1,0.2-1.1h9.1c0.1,0,0.2,0.4,0.2,1.1v7.6c0,0.4,0,1.1-0.2,1.1h-2.2v20.1h2.1c0.1,0,0.3,0.1,0.3,1.1v8.3
		c0,0.6-0.1,0.9-0.2,0.9h-9.2c-0.1,0-0.2-0.2-0.2-0.9v-8.7c0-0.4,0-0.6,0.1-0.6h2v-5.8h-4.7v5.8h2c0.1,0,0.1,0.2,0.1,0.5v9.1
		c0,0.4-0.1,0.6-0.1,0.6h-9.2c0,0-0.1-0.2-0.1-0.7v-8.8c0-0.3,0-0.6,0.1-0.6h2.3V883h-2.3c-0.1,0-0.1-0.2-0.1-0.9V874
		c0-0.4,0-0.7,0.1-0.7H1282.3z"/>
	<path class="st7" d="M1293,913.3c-0.1,0-0.2-0.2-0.2-0.6v-8.1c0-1.1,0.1-1.5,0.2-1.5h2.2v-20.2h-2.1c-0.2,0-0.2-0.3-0.2-0.8v-7.4
		c0-1.1,0.1-1.4,0.2-1.4h13.7c1.6,0,3.5,4.2,3.5,10c0,5.2-1.3,8.5-1.9,10.2c0.4,0.8,2,2,2,9.6c0,8.7-2.4,10.2-2.7,10.2H1293z
		 M1300.2,888.6h3.7c0.3,0,0.7-1.1,0.7-2.7s-0.6-2.9-1-2.9h-3.4L1300.2,888.6L1300.2,888.6z M1300.2,903.4h3.3
		c0.6,0,1.1-0.9,1.1-2.5c0-1.9-0.6-3.1-1-3.1h-3.4V903.4z"/>
	<path class="st7" d="M1318.5,913.3c-0.1,0-0.2-0.5-0.2-1v-7.8c0-0.5,0.1-0.8,0.2-0.8h1.7l-0.6-4.6h-3l-0.6,4.6h1.8
		c0.1,0,0.2,0.3,0.2,0.6v7.9c0,0.6,0,1-0.1,1h-6.7c-0.2,0-0.4-0.1-0.4-0.9v-8.2c0-0.6,0-0.9,0.2-0.9h2l3.8-29
		c0.1-0.8,0.2-1.1,0.3-1.1h4.5c0.2,0,0.3,0.6,0.4,1.1l4,29.5h2.2c0.2,0,0.2,1,0.2,1.8v6.8c0,0.6-0.1,0.9-0.3,0.9h-9.6V913.3z
		 M1317.1,894.2h1.7l-0.8-6.3c0-0.2-0.1-0.2-0.1,0L1317.1,894.2z"/>
	<path class="st7" d="M1342.8,895.7c0.1,0,0.2,0.3,0.1,0.9c-0.2,1.7-0.7,16.7-6.8,16.7c-6.3,0-7.8-10.2-7.8-19.3
		c0-9,1.6-20.7,7-20.7c1.9,0,3.1,1.9,4.1,4.9l0.1-3.5c0-0.6,0.1-1,0.1-1h3.2c0.1,0,0.2,0.2,0.2,1.2V890c0,0.5,0,0.9-0.1,1h-3.1
		c-0.1,0-0.1,0-0.2-0.5s-0.8-7.1-2.9-7.1s-2.6,6.7-2.6,9.7c0,2.3,0.2,10.3,2.9,10.3c2.1,0,3.1-5.2,3.3-7.3c0-0.3,0.1-0.4,0.2-0.4
		H1342.8z"/>
	<path class="st7" d="M1345.9,903.2v-19.8h-2.2c-0.1,0-0.2-0.3-0.2-1.1v-7.8c0-0.6,0.1-1.2,0.2-1.2h8.5c0.1,0,0.2,0.3,0.2,1.6v7.7
		c0,0.5-0.1,0.8-0.4,0.8h-1.2v10.2l4.3-10.1v-0.1h-2.1c-0.1,0-0.2-0.1-0.2-1.3v-7.7c0-0.5,0-1.1,0.3-1.1h7.8c0.1,0,0.2,0.3,0.2,1.6
		v7.4c0,0.5-0.1,1.1-0.2,1.1h-2.2l-2.1,5.3l2.6,14.6h2.3c0.1,0,0.2,0.4,0.2,1.2v7.8c0,0.4,0,1.1-0.3,1.1h-9.3
		c-0.1,0-0.2-0.5-0.2-1.4v-8c0-0.4,0.1-0.8,0.2-0.8h0.7l-0.9-5l-1.1,2.7v2.3h0.5c0.1,0,0.1,0.5,0.1,1.1v8.1c0,0.5-0.1,0.9-0.2,0.9
		h-7.7c-0.1,0-0.2-0.4-0.2-1.3v-7.7c0-0.6,0.1-1.1,0.1-1.1H1345.9z"/>
</g>
<g>
	<path class="st7" d="M1276.7,578.7c0,1.1-0.1,1.7-0.3,1.7h-8.7c-0.2,0-0.4-0.3-0.6-1.1s-1.4-5.5-7.1-5.5c-5.4,0-7.5,8.5-7.5,14.5
		c0,12,5,13.3,8.3,13.3c2.1,0,2.8-3.5,2.9-6.6h-5c-0.4,0-0.7-0.4-0.7-1.1v-7.6c0-1.5,0.3-1.7,0.7-1.7h23.3c0.5,0,0.7,0.9,0.7,1.7
		v6.9c0,1.6-0.3,1.8-0.8,1.8h-5v18.3c0,1.5-0.4,1.6-0.9,1.6h-6.5c-0.6,0-0.9-0.1-1.1-1.2l-1.4-4.5c-1.9,5.5-5.7,5.8-10.3,5.8
		c-1.4,0-18.2-0.4-18.2-26.6c0-27,13.3-28.1,17.8-28.1c8.1,0,9.4,2.3,11.3,5.2l0.3-3.6c0-0.7,0.1-1.6,0.6-1.6h7.6
		c0.5,0,0.8,0.4,0.8,2.8v15.6H1276.7z"/>
	<path class="st7" d="M1299.8,615.1c-4.8,0-15.7-1.2-15.7-19.7c0-18.6,11.6-19.6,12.9-19.6h4.6c5.3,0,12.9,6.6,12.9,18.6v1.3
		c0,0.4-0.1,0.6-0.5,0.6h-18.6c0.2,5.8,2.8,7.7,5.1,7.7h2.4c2.1,0,3.9-0.7,5.1-4.3c0.1-0.2,0.2-0.4,0.3-0.4h5.7
		c0.2,0,0.3,0.7,0.2,0.9c-0.6,3.9-2.7,14.9-11.8,14.9H1299.8z M1303.5,590.2c-0.5-2.2-1.5-4.6-3.7-4.6c-2.9,0-3.6,2.3-4.1,4.6
		H1303.5z"/>
	<path class="st7" d="M1320.6,587.2h-4.2c-0.3,0-0.4-0.3-0.4-0.7v-8.6c0-0.9,0.1-1.3,0.4-1.3h1.5c4.1,0,6-3.6,6.9-14.5
		c0-0.7,0.2-1.5,0.4-1.5h5.1c0.2,0,0.4,0.4,0.4,1.1v14.9h4.5c0.3,0,0.7,0.1,0.7,1.4v8c0,0.5-0.2,1.2-0.5,1.2h-4.7v10.4
		c0,2.1,0.6,6.1,2,6.1c1.5,0,2.3-3,2.7-8c0-0.7,0.1-1.7,0.4-1.7h2.8c0.2,0,0.3,0.4,0.3,1.1c0,3.6-1.1,19.8-7.2,19.8h-6.4
		c-0.9,0-4.7-2-4.7-10.9L1320.6,587.2L1320.6,587.2z"/>
</g>
</svg>
