<?xml version="1.0" encoding="utf-8"?>
<!-- Generator: Adobe Illustrator 24.3.0, SVG Export Plug-In . SVG Version: 6.00 Build 0)  -->
<svg version="1.1" id="Layer_1" xmlns="http://www.w3.org/2000/svg" xmlns:xlink="http://www.w3.org/1999/xlink" x="0px" y="0px"
	 viewBox="0 0 1049.57 856.57" style="enable-background:new 0 0 1049.57 856.57;" xml:space="preserve">
<style type="text/css">
	.st0{fill:#FFFF00;}
	.st1{fill:#FF0000;}
</style>
<g>
	<path class="st0" d="M29.57,847.07c-16.27,0-29.5-13.23-29.5-29.5v-788c0-16.27,13.23-29.5,29.5-29.5h990
		c16.27,0,29.5,13.23,29.5,29.5v788c0,16.27-13.23,29.5-29.5,29.5H29.57z"/>
	<path class="st1" d="M1019.57,0.57c15.99,0,29,13.01,29,29v788c0,15.99-13.01,29-29,29h-990c-15.99,0-29-13.01-29-29v-788
		c0-15.99,13.01-29,29-29H1019.57 M1019.57-0.43h-990c-16.57,0-30,13.43-30,30v788c0,16.57,13.43,30,30,30h990
		c16.57,0,30-13.43,30-30v-788C1049.57,13,1036.14-0.43,1019.57-0.43L1019.57-0.43z"/>
</g>
<g>
</g>
<g>
</g>
<g>
</g>
<g>
</g>
<g>
</g>
<g>
</g>
<g>
</g>
<g>
</g>
<g>
</g>
<g>
</g>
<g>
</g>
<g>
</g>
<g>
</g>
<g>
</g>
<g>
</g>
</svg>
