<?xml version="1.0" encoding="utf-8"?>
<!-- Generator: Adobe Illustrator 24.3.0, SVG Export Plug-In . SVG Version: 6.00 Build 0)  -->
<svg version="1.1" id="Layer_1" xmlns="http://www.w3.org/2000/svg" xmlns:xlink="http://www.w3.org/1999/xlink" x="0px" y="0px"
	 viewBox="0 0 434 162" style="enable-background:new 0 0 434 162;" xml:space="preserve">
<style type="text/css">
	.st0{fill:none;}
	.st1{stroke:#000000;stroke-width:2;stroke-miterlimit:10;}
	.st2{fill:none;stroke:#000000;stroke-width:13;stroke-miterlimit:10;}
</style>
<g>
	<polygon class="st0" points="859,234 0,234 0,147.3 0,41 859,41 	"/>
	<path class="st1" d="M64.4,75.5l1.9-3.1c-4.2,1-8.3,1.5-12.5,1.5c-4.8,0-9-0.8-12.4-2.3c-3.4-1.6-6.1-3.7-7.8-6.4
		c-1.8-2.7-2.7-5.8-2.7-9.2c0-5,2.1-9.9,6.2-14.6c4.1-4.7,9.9-8.5,17.3-11.4s15.8-4.3,25.1-4.3v1c-8.7,0-16.6,1.5-23.7,4.2
		C48.6,33.6,43,37.2,39,41.7c-4,4.5-6,9.3-6,14.6c0,4.9,1.9,8.8,5.7,11.6c3.8,2.8,9.1,4.3,16.1,4.5c3.8,0.1,8.1-0.5,12.9-1.9
		c4.6-6.3,9.8-12.7,15.4-19.1c5.6-6.4,12-12.3,19.1-17.7c7.1-5.4,13.7-8.1,19.7-8.1c3.7,0,5.6,1.6,5.6,4.8c0,2.4-1.3,5.3-3.8,8.9
		c-2.5,3.5-6.1,7.2-10.8,11.1c-4.7,3.9-10.2,7.5-16.7,10.9c-6.5,3.4-13.5,6.4-21,8.8l-1.2,1.6c-4.4,6.1-7.3,10-8.8,11.9
		c-1.4,1.9-3.5,4.2-6,6.8c-2.6,2.7-5.7,5.3-9.3,7.8c-3.6,2.5-7.8,4.9-12.6,7.2c6.1,2.1,12.3,3.1,18.6,3.1c3.2,0,6.2-0.5,8.9-1.5
		s5.7-2.8,9.1-5.5c3.4-2.6,8.8-7.2,16.2-13.9v1.2c-5.2,4.7-9.4,8.4-12.5,11.1c-3.1,2.6-5.8,4.6-8.1,5.9c-2.2,1.3-4.5,2.3-6.6,2.8
		c-2.2,0.6-4.5,0.8-7,0.8c-5.7,0-12.3-1.1-20-3.4c-3.4,1.2-6.7,2.1-9.8,2.6c-3.1,0.5-6.5,0.8-10.1,0.8c-8.2,0-12.3-1.5-12.3-4.5
		c0-3.1,3.7-4.7,11-4.7c2.8,0,5.6,0.2,8.2,0.7c2.7,0.5,5.8,1.4,9.6,2.7l3.1,1c5.8-3.2,10.8-7,15.2-11.4C55.2,89,59.7,83,64.4,75.5z
		 M33.5,105.3c-3.5-1.2-7.1-2.1-10.7-2.8c-3.6-0.7-6.6-1.1-8.9-1.1c-2.8,0-4.9,0.3-6.5,1c-1.5,0.7-2.3,1.5-2.3,2.6
		c0,2.3,3.5,3.4,10.6,3.4C22.1,108.5,28.1,107.4,33.5,105.3z M75.6,68.6c7.9-2.6,15.1-5.8,21.4-9.5c6.4-3.7,11.6-7.4,15.7-11.1
		s7.2-7.1,9.4-10.2c2.2-3.1,3.3-5.4,3.3-7c0-1.2-0.3-2.2-0.9-3.1c-0.6-0.8-1.5-1.2-2.7-1.2c-5.4,0.3-11.2,2.8-17.2,7.4
		c-6.1,4.6-11.7,10.1-16.8,16.6C82.6,57.1,78.5,63.1,75.6,68.6z"/>
	<path class="st1" d="M129.1,89.2l-3.7,3.1c-5.9,4.9-10.2,8.3-13,10.3c-2.8,2-5.3,3-7.4,3c-1.4,0-2.1-0.8-2.1-2.4
		c0-1.7,0.7-4.1,2-7.2c-7,6.4-12.1,9.6-15.5,9.6c-1.5,0-2.7-0.6-3.6-1.7c-0.9-1.1-1.4-2.8-1.4-5c0-2.5,0.7-4.9,2.2-7.4
		s3.4-4.6,5.9-6.4c2.5-1.9,5.2-3.3,8.3-4.4c3.1-1.1,6-1.6,8.9-1.6c1.4,0,2.5,0.3,3.1,0.8s1,1.4,1.1,2.5c0,0.2-0.1,0.5-0.1,0.7
		c0,0.2-0.1,0.5-0.1,0.9c-0.1,0.4-0.1,0.7-0.2,1l4.6-5.4l6.2-0.4l-1.9,2.3c-1.6,1.9-2.8,3.4-3.8,4.6c-1,1.2-1.8,2.2-2.5,3
		c-7.6,8.3-11.4,13.1-11.4,14.5c0,0.7,0.3,1.1,1,1.1c0.9,0,2.3-0.5,4.2-1.6c1.9-1.1,3.9-2.6,6.3-4.4c2.3-1.8,5-3.9,7.9-6.4
		c3-2.5,4.7-3.9,5.2-4.3V89.2z M109.7,80.2c-2.9,0-6.2,1.4-9.8,4.3c-3.6,2.9-6.7,6.2-9.4,9.8s-4,6.3-4,7.8c0,0.7,0.2,1.3,0.7,1.8
		c0.5,0.5,1.1,0.7,1.8,0.7c2,0,4.9-1.4,8.6-4.2c3.8-2.8,7.2-5.9,10.2-9.4c3-3.5,4.5-6.3,4.5-8.3C112.5,81,111.6,80.2,109.7,80.2z"/>
	<path class="st1" d="M127.2,90.6v-1.3c3.6-3.3,6.6-5.8,9.1-7.5c2.4-1.8,4.6-2.6,6.5-2.6c1.6,0,2.3,1.1,2.3,3.1
		c0,1.8-0.5,3.5-1.5,5.1c-1,1.6-2.8,4-5.2,7.1c6.8-5.6,12-9.6,15.4-11.9c3.4-2.3,6.4-3.4,8.9-3.4c1.8,0,2.7,0.8,2.7,2.5
		c0,3.3-2.4,7.9-7.3,13.7l2.1-1.5c3.3-2.4,6.4-4.7,9.4-6.9c3-2.2,5.8-4,8.6-5.5c2.8-1.5,5-2.2,6.6-2.2c0.8,0,1.4,0.3,1.9,0.9
		c0.5,0.6,0.7,1.5,0.7,2.7c0,2.2-0.7,4.5-2.2,6.6c-1.5,2.2-4,4.6-7.7,7.3c-1.5,1.1-2.9,2.3-4.2,3.7c-1.3,1.4-2,2.4-2,2.9
		c0,0.9,0.7,1.4,2.1,1.4c2.1,0,5-1.3,8.5-3.9c3.5-2.6,8.8-6.9,15.8-12.8v1.2c-6.6,5.7-11.7,9.9-15.3,12.5c-3.5,2.6-6.7,4-9.3,4
		c-1.9,0-2.9-1-2.9-2.9c0-2.1,0.7-4.2,2.1-6.4c1.4-2.1,3.8-4.8,7.2-8c3.9-3.7,5.9-6,5.9-7c0-0.9-0.4-1.3-1.2-1.3
		c-1.3,0-4,1.4-8.3,4.1s-8.9,6.1-14.1,10c-5.2,4-9.4,7.5-12.7,10.7H143l11.4-12.5c0.8-0.8,2-2.1,3.6-3.7c1.6-1.7,2.9-3.2,4.1-4.5
		c1.1-1.3,1.7-2.3,1.7-2.7c0-0.2-0.1-0.5-0.3-0.8c-0.2-0.3-0.5-0.4-1-0.4c-2.7,0-6.8,2.1-12.2,6.4s-11.8,9.7-19.1,16.3l-2.1,2h-6.3
		L138,87.6c3.5-3.6,5.3-5.8,5.3-6.4c0-0.7-0.3-1-0.9-1c-0.8,0-2.1,0.5-3.7,1.6c-1.7,1.1-3.5,2.4-5.4,3.9
		C131.3,87.2,129.3,88.9,127.2,90.6z"/>
	<path class="st1" d="M228.7,60.1L245.9,41h6.3l-47.2,52.5c-3.4,3.8-5.4,6.6-6.1,8.4c-0.7,1.8-0.4,2.7,1,2.7c3.7,0,7.6-1.3,11.6-3.9
		c4.1-2.6,7.4-5.6,10.2-9c2.7-3.4,4.1-6.1,4.1-8c0-2.7,0.8-4,2.3-4c0.6,0,0.9,0.3,0.9,0.9c0,3.2-2.1,7.3-6.3,12.2
		c2.6,0.1,4.6-0.1,5.9-0.7s3.1-2.1,5.2-4.4v1.2c-2.1,2.3-3.8,3.7-5.3,4.3c-1.5,0.6-3.7,0.7-6.7,0.5c-3.7,4.1-7.5,7.1-11.4,9.1
		c-3.9,2-7.5,2.9-10.7,2.9c-2.2,0-3.3-1-3.3-3.1c0-1.8,0.5-3.6,1.4-5.5c0.9-1.9,2.5-4.2,4.7-7.1c0.5-0.8,1.4-1.9,2.7-3.3
		c1.3-1.4,3-3.4,5.2-5.8c2.2-2.4,4.2-4.7,6-6.8c1.8-2.1,2.8-3.2,2.9-3.3l-23.2,19.9v-1.2l2.3-2.1c4.5-3.9,8.2-7.1,11-9.6
		c2.8-2.5,6-5.2,9.4-8.3c3.4-3,5.7-5.1,6.9-6.2C226.7,62.1,227.8,61.1,228.7,60.1z"/>
	<path class="st1" d="M264.9,87.6v1.2c-2.7,3.3-5.8,4.9-9.2,4.9c-0.3,0-0.7-0.1-1-0.1c-0.3,0-0.7-0.1-1.2-0.1
		c-7.8,8.1-14.6,12.2-20.3,12.2c-1.1,0-2.1-0.3-3-0.8c-0.9-0.6-1.6-1.3-2.1-2.2c-0.5-0.9-0.7-2-0.7-3.2c0-3.3,1.4-6.5,4.3-9.6
		c2.9-3.1,6.4-5.7,10.4-7.7c4.1-2,7.7-3,10.7-3c3.3,0,5,1.5,5,4.6c0,2.5-1.2,5.4-3.6,8.7c0.5,0.2,1,0.3,1.6,0.3
		C259.1,92.7,262.1,91,264.9,87.6z M253.3,80.2c-2.7,0-5.9,1.6-9.4,4.7c-3.5,3.1-6.7,6.5-9.5,10.2c-2.8,3.7-4.2,6-4.2,6.9
		c0,0.8,0.4,1.4,1.1,1.9c0.7,0.5,1.6,0.8,2.7,0.8c2.6,0,5.7-1.3,9.3-3.8c3.6-2.6,6.8-5.6,9.6-9.1c2.8-3.5,4.2-6.2,4.2-8.2
		c0-1-0.4-1.8-1.1-2.4C255.2,80.5,254.3,80.2,253.3,80.2z"/>
	<path class="st1" d="M263.2,89.5c2.2-1.8,4.4-3.5,6.6-5.3c2.2-1.8,4.3-3.5,6.5-5.1c-0.4-1.5-0.2-2.9,0.6-4.1
		c0.8-1.2,1.7-1.8,2.9-1.8c0.6,0,1.2,0.2,1.7,0.5c0.5,0.4,0.7,0.8,0.7,1.4c0,0.6-0.2,1.1-0.6,1.5c-0.4,0.4-0.9,0.6-1.5,0.6
		s-1.4-0.5-2.4-1.5c-0.3,0.4-0.4,0.9-0.4,1.6c0,0.6,0.2,1.1,0.7,1.6s1.1,0.8,1.7,0.8c0.4,0,1.1-0.1,2-0.3c1-0.2,1.6-0.3,1.8-0.3
		c0.4,0,0.7,0.4,1,1.1c0.3,0.7,0.4,1.6,0.4,2.6c0,0.9-0.6,2-1.8,3.5c-1.2,1.4-3.3,3.8-6.2,7.1c-2.9,3.3-5,5.6-6.1,7
		c-1.1,1.4-1.7,2.4-1.7,3.1s0.5,1.1,1.5,1.1c1.4,0,4.3-1.6,8.8-4.8c4.5-3.2,9.7-7.3,15.6-12.2v1.2c-13.1,11.2-21.4,16.8-24.9,16.8
		c-1.3,0-2-0.8-2-2.4c0-2.3,0.5-4.5,1.4-6.5c0.9-2.1,2.5-4.3,4.7-6.8l8.6-9.4c-1,0.4-2.2,0.6-3.5,0.5c-1.3,0-2.1-0.4-2.4-1.1
		c-6.5,5.4-10.9,9-13.3,10.8V89.5z"/>
	<path class="st1" d="M293.5,114.4l10.9-13.8c-0.8,0.5-1.5,0.9-2.1,1.3c-3.5,2.4-6.3,3.6-8.3,3.6c-3.4,0-5.1-2.2-5.1-6.7
		c0-2.7,0.8-5.3,2.5-7.7c1.7-2.4,3.8-4.5,6.5-6.2c2.6-1.7,5.4-3.1,8.2-4c2.8-1,5.4-1.4,7.8-1.4c2.9,0,4.4,1.1,4.4,3.1
		c0,0.6-0.2,1.5-0.6,2.7l5.1-5.9h6.2l-27.2,31.1c4.6-2.2,9.3-5.2,14.2-8.8s10.8-8.3,17.7-14.1v1.2c-4.7,4.1-8.8,7.5-12.2,10.1
		c-3.4,2.7-6.8,5.1-10.4,7.4c-3.6,2.2-7.3,4.2-11.1,6c-6.3,6.8-11.5,12.4-15.7,16.6c-4.2,4.2-7.7,7.5-10.5,9.7
		c-2.8,2.2-5.2,3.8-7.1,4.7s-3.7,1.3-5.3,1.3c-1.5,0-2.6-0.4-3.5-1.2c-0.9-0.8-1.3-1.9-1.3-3.1c0-2.1,1-4.3,3.1-6.7
		c2.1-2.4,5-4.9,8.8-7.3s8.3-4.7,13.3-6.8l10.7-4.5L293.5,114.4z M292.1,116c-9.1,3.9-15.8,7-20.1,9.3c-4.3,2.3-7.9,4.9-10.8,8
		c-2.4,2.7-3.7,5.1-3.7,7c0,1,0.4,1.8,1.1,2.4s1.7,0.9,2.9,0.9c2.3,0,5-1,7.9-3c2.9-2,6.4-5.2,10.4-9.6
		C285.9,123.9,290,118.9,292.1,116z M317.4,83c0-0.8-0.3-1.4-1-1.9c-0.7-0.5-1.5-0.7-2.4-0.7c-2.7,0-5.9,1.4-9.5,4.2s-6.7,6-9.3,9.6
		c-2.6,3.6-4,6.3-4,8c0,0.6,0.3,1.1,0.9,1.6c0.6,0.5,1.3,0.7,1.9,0.7c2,0,4.8-1.4,8.6-4.2c3.8-2.8,7.2-5.9,10.2-9.4
		C315.8,87.4,317.4,84.8,317.4,83z"/>
	<path class="st1" d="M332,90.5l-0.1-1.2c3.7-3.4,8.1-6.6,13-9.6h6.6L334.2,99c-1.2,1.4-2,2.6-2.3,3.8c-0.3,1.2,0,1.8,0.9,1.8
		c2.4,0,6.1-1.8,10.9-5.4c4.8-3.6,9.3-7.4,13.4-11.4V89c-4.7,4.5-9.3,8.4-13.7,11.7c-4.4,3.3-8,4.9-10.8,4.9c-1.6,0-2.4-0.9-2.4-2.6
		c0-5.1,4-11.6,11.9-19.5c0.4-0.4,0.8-0.9,1.2-1.3c0.4-0.4,0.7-0.8,1.1-1.1C339.9,83.8,335.8,86.9,332,90.5z M357.3,64.3
		c1.1,0,1.6,0.7,1.6,2c0,0.8-0.2,1.4-0.7,1.9c-0.4,0.5-1,0.7-1.7,0.7c-1.3,0-2-0.6-2-1.8c0-0.7,0.3-1.3,0.8-1.9
		C356,64.6,356.6,64.3,357.3,64.3z"/>
	<path class="st1" d="M355.1,90.6v-1.2c7.4-6.9,12.6-10.3,15.6-10.3c1.7,0,2.5,1.1,2.5,3.1c0,1.7-0.5,3.3-1.5,4.9s-3.1,4.4-6.2,8.4
		c6.1-5,11.3-9,15.7-12c4.4-3,8.3-4.5,11.4-4.5c1.7,0,2.5,1.1,2.5,3.4c0,2.2-0.8,4.5-2.3,6.7c-1.6,2.2-4.1,4.6-7.7,7.2
		c-3.8,2.9-5.7,4.9-5.7,6.2c0,0.5,0.2,0.9,0.7,1.4c0.5,0.4,0.9,0.6,1.4,0.6c1.7,0,4-0.9,6.8-2.8c2.8-1.9,5.9-4.3,9.2-7.2
		c3.3-2.9,6-5.2,8.1-7v1.2c-3,2.8-5.9,5.4-8.7,7.8c-2.8,2.4-5.7,4.5-8.5,6.3c-2.8,1.8-5.1,2.7-7,2.7c-1.2,0-2-0.4-2.5-1.2
		c-0.5-0.8-0.8-1.6-0.8-2.4c0-1.9,0.7-3.9,2.2-6.3c1.5-2.3,3.5-4.6,6.1-6.8c3-2.6,5-4.7,6.2-6.3c1.1-1.6,0.8-2.4-1-2.4
		c-2.3,0-5.8,1.6-10.4,4.7c-4.6,3.1-9,6.4-13,9.8c-4.1,3.4-7.9,6.8-11.5,10.1h-5.7l9.7-11c7.1-8,10.7-12.3,10.7-13
		c0-0.5-0.3-0.7-0.9-0.7C368.2,80.2,363.1,83.6,355.1,90.6z"/>
	<path class="st1" d="M403.9,90.5l-0.1-1.2c3.7-3.4,8.1-6.6,13-9.6h6.6L406.1,99c-1.2,1.4-2,2.6-2.3,3.8c-0.3,1.2,0,1.8,0.9,1.8
		c2.4,0,6.1-1.8,10.9-5.4c4.8-3.6,9.3-7.4,13.4-11.4V89c-4.7,4.5-9.3,8.4-13.7,11.7c-4.4,3.3-8,4.9-10.8,4.9c-1.6,0-2.4-0.9-2.4-2.6
		c0-5.1,4-11.6,11.9-19.5c0.4-0.4,0.8-0.9,1.2-1.3c0.4-0.4,0.7-0.8,1.1-1.1C411.8,83.8,407.7,86.9,403.9,90.5z M429.2,64.3
		c1.1,0,1.6,0.7,1.6,2c0,0.8-0.2,1.4-0.7,1.9c-0.4,0.5-1,0.7-1.7,0.7c-1.3,0-2-0.6-2-1.8c0-0.7,0.3-1.3,0.8-1.9
		C427.8,64.6,428.5,64.3,429.2,64.3z"/>
</g>
<line class="st2" x1="435" y1="157.5" x2="0" y2="156.8"/>
<g>
</g>
<g>
</g>
<g>
</g>
<g>
</g>
<g>
</g>
<g>
</g>
<g>
</g>
<g>
</g>
<g>
</g>
<g>
</g>
<g>
</g>
<g>
</g>
<g>
</g>
<g>
</g>
<g>
</g>
</svg>
